<svg width="703" height="527" viewBox="0 0 703 527" fill="none" xmlns="http://www.w3.org/2000/svg">
<g clip-path="url(#clip0_465_332)">
<path d="M580.957 450.524C583.8 425.834 597.97 401.507 619.776 393.472C611.177 418.885 611.179 446.764 619.782 472.176C623.132 481.963 627.803 492.473 624.651 502.337C622.69 508.474 617.893 513.17 612.53 516.107C607.167 519.043 601.216 520.442 595.339 521.814L594.182 522.847C584.852 500.097 578.113 475.215 580.957 450.524Z" fill="#F0F0F0"/>
<path d="M619.993 393.939C607.294 409.304 599.401 428.599 597.436 449.083C596.94 453.485 597.09 457.943 597.88 462.294C598.777 466.506 600.701 470.382 603.454 473.519C605.966 476.5 608.856 479.234 610.653 482.822C611.548 484.674 612.071 486.709 612.186 488.793C612.302 490.878 612.008 492.966 611.324 494.919C609.737 499.835 606.609 503.841 603.424 507.644C599.887 511.867 596.152 516.192 594.649 521.791C594.467 522.469 593.503 522.124 593.685 521.447C596.3 511.707 605.056 506.174 609.232 497.402C611.18 493.308 611.998 488.556 610.171 484.235C608.574 480.457 605.596 477.634 603.029 474.64C600.302 471.622 598.3 467.929 597.2 463.884C596.207 459.59 595.898 455.145 596.287 450.739C597.014 440.806 599.184 431.058 602.716 421.852C606.693 411.321 612.309 401.603 619.321 393.117C619.755 392.592 620.424 393.418 619.993 393.939Z" fill="white"/>
<path d="M597.709 442.447C594.571 441.624 591.806 439.624 589.908 436.803C588.01 433.982 587.102 430.525 587.347 427.048C587.399 426.344 588.413 426.398 588.361 427.102C588.128 430.34 588.974 433.56 590.746 436.183C592.519 438.806 595.101 440.658 598.028 441.405C598.663 441.569 598.341 442.609 597.709 442.447Z" fill="white"/>
<path d="M601.996 472.188C607.664 468.534 611.847 462.708 613.713 455.87C613.898 455.193 614.862 455.537 614.678 456.214C612.724 463.325 608.358 469.379 602.453 473.168C601.89 473.529 601.436 472.547 601.996 472.188Z" fill="white"/>
<path d="M607.635 412.36C608.788 412.951 610.059 413.224 611.333 413.154C612.608 413.084 613.847 412.674 614.938 411.959C615.497 411.591 615.95 412.573 615.395 412.939C614.186 413.722 612.817 414.174 611.409 414.254C610.001 414.335 608.596 414.042 607.317 413.401C607.192 413.351 607.089 413.252 607.029 413.123C606.969 412.995 606.956 412.846 606.994 412.708C607.037 412.571 607.128 412.457 607.248 412.391C607.368 412.326 607.508 412.315 607.635 412.36Z" fill="white"/>
<path d="M686.244 437.572C685.901 437.813 685.559 438.053 685.215 438.303C680.623 441.564 676.284 445.223 672.24 449.242C671.923 449.548 671.605 449.863 671.297 450.177C661.65 459.974 653.772 471.62 648.062 484.522C645.795 489.658 643.892 494.974 642.371 500.422C640.271 507.946 638.549 516.285 634.392 522.439C633.965 523.087 633.501 523.705 633.003 524.29H595.438C595.353 524.244 595.267 524.207 595.181 524.161L593.682 524.235C593.742 523.948 593.81 523.652 593.87 523.365C593.905 523.198 593.947 523.032 593.982 522.865C594.007 522.754 594.033 522.643 594.05 522.541C594.059 522.504 594.067 522.467 594.076 522.439C594.093 522.337 594.119 522.245 594.136 522.152C594.513 520.496 594.902 518.839 595.302 517.183C595.302 517.173 595.302 517.173 595.31 517.164C598.387 504.55 602.466 492.102 608.166 480.718C608.337 480.376 608.509 480.024 608.697 479.682C611.293 474.566 614.271 469.688 617.602 465.096C619.434 462.588 621.382 460.182 623.439 457.886C628.764 451.967 634.919 446.989 641.677 443.134C655.15 435.453 670.748 432.51 685.147 437.202C685.516 437.322 685.876 437.442 686.244 437.572Z" fill="#F0F0F0"/>
<path d="M686.16 438.087C667.454 442.099 650.394 452.373 637.404 467.451C634.554 470.643 632.188 474.3 630.393 478.288C628.76 482.234 628.136 486.58 628.585 490.874C628.929 494.887 629.711 498.949 629.146 502.983C628.828 505.043 628.11 507.007 627.04 508.747C625.97 510.487 624.572 511.962 622.936 513.077C618.929 515.97 614.197 517.136 609.534 518.102C604.356 519.174 598.962 520.199 594.64 523.692C594.117 524.115 593.539 523.213 594.062 522.791C601.581 516.714 611.656 517.989 619.882 513.7C623.72 511.698 627.022 508.435 627.973 503.797C628.804 499.742 628.001 495.552 627.62 491.492C627.125 487.31 627.587 483.06 628.963 479.115C630.565 475.041 632.796 471.291 635.563 468.026C641.682 460.568 648.85 454.195 656.803 449.141C665.85 443.318 675.752 439.21 686.082 436.993C686.721 436.856 686.795 437.951 686.16 438.087Z" fill="white"/>
<path d="M641.322 462.33C639.276 459.633 638.183 456.239 638.24 452.752C638.298 449.266 639.5 445.915 641.634 443.298C642.068 442.77 642.848 443.473 642.414 444.001C640.423 446.434 639.302 449.556 639.255 452.802C639.208 456.049 640.237 459.207 642.157 461.706C642.574 462.25 641.737 462.871 641.322 462.33Z" fill="white"/>
<path d="M628.162 488.864C634.725 489.631 641.314 487.699 646.616 483.453C647.141 483.032 647.718 483.934 647.194 484.355C641.669 488.762 634.808 490.758 627.981 489.943C627.33 489.865 627.515 488.787 628.162 488.864Z" fill="white"/>
<path d="M666.022 444.76C666.613 445.982 667.475 447.026 668.532 447.799C669.589 448.572 670.806 449.049 672.076 449.188C672.727 449.258 672.542 450.336 671.895 450.267C670.493 450.107 669.148 449.578 667.979 448.727C666.81 447.876 665.851 446.728 665.188 445.385C665.115 445.264 665.088 445.118 665.112 444.976C665.136 444.834 665.209 444.708 665.316 444.622C665.427 444.54 665.563 444.508 665.695 444.534C665.828 444.56 665.945 444.641 666.022 444.76Z" fill="white"/>
<path d="M459.629 325.873C460.406 325.006 460.998 323.965 461.362 322.825C461.727 321.684 461.855 320.47 461.738 319.27C461.622 318.07 461.263 316.912 460.687 315.878C460.111 314.844 459.332 313.959 458.405 313.285L465.349 284.925L451.97 289.785L447.426 315.971C446.481 317.727 446.165 319.798 446.539 321.789C446.913 323.78 447.95 325.554 449.454 326.775C450.958 327.995 452.825 328.578 454.7 328.411C456.575 328.245 458.329 327.342 459.629 325.873Z" fill="#9E616A"/>
<path d="M521.534 516.361L512.214 516.36L507.78 477.542L521.535 477.543L521.534 516.361Z" fill="#9E616A"/>
<path d="M523.91 526.116L493.859 526.115V525.705C493.86 522.355 495.092 519.142 497.285 516.774C499.479 514.405 502.454 513.074 505.556 513.074L523.911 513.075L523.91 526.116Z" fill="#2F2E41"/>
<path d="M477.443 516.361L468.123 516.36L463.689 477.542L477.444 477.543L477.443 516.361Z" fill="#9E616A"/>
<path d="M479.82 526.116L449.769 526.115V525.705C449.769 522.355 451.001 519.142 453.195 516.774C455.388 514.405 458.363 513.074 461.465 513.074L479.82 513.075L479.82 526.116Z" fill="#2F2E41"/>
<path d="M472.259 282.474L468.681 283.542C468.681 283.542 459.335 348.966 458.575 383.443C457.815 417.921 460.856 504.934 460.856 504.934H480.621L496.585 357.175L504.187 504.934H525.472C525.472 504.934 540.676 311.205 533.834 295.609C526.992 280.012 472.259 282.474 472.259 282.474Z" fill="#2F2E41"/>
<path d="M500.772 167.031C510.635 167.031 518.631 158.397 518.631 147.746C518.631 137.095 510.635 128.461 500.772 128.461C490.909 128.461 482.913 137.095 482.913 147.746C482.913 158.397 490.909 167.031 500.772 167.031Z" fill="#9E616A"/>
<path d="M545.998 192.177L518.278 172.615L489.553 173.837L461.616 190.535L472.259 254.564L467.698 291.504C467.698 291.504 508.748 286.579 517.87 293.967C523.198 298.35 529.481 301.177 536.115 302.176L534.595 238.967L545.998 192.177Z" fill="#3F3D56"/>
<path d="M466.937 189.714L464.065 189.071L461.616 190.535C461.616 190.535 454.774 200.386 454.774 209.416C454.774 218.445 446.412 305.459 446.412 305.459L461.616 312.847L473.779 244.714L466.937 189.714Z" fill="#3F3D56"/>
<path d="M516.412 133.606C516.412 133.606 521.083 123.964 510.807 123.087C510.807 123.087 502.046 114.506 493.117 121.518C493.117 121.518 488.246 121.518 485.582 127.47C485.582 127.47 481.752 125.901 480.91 130.1C480.91 130.1 478.107 138.866 480.91 146.755C483.713 154.645 484.644 155.521 484.644 155.521C484.644 155.521 480.038 138.981 491.249 138.104C502.461 137.228 515.007 129.662 515.941 139.304C516.876 148.947 518.282 151.323 518.282 151.323C518.282 151.323 527.156 137.551 516.412 133.606Z" fill="#2F2E41"/>
<path d="M285.631 247.057H64.415V68.104H285.631V247.057Z" fill="white"/>
<path d="M285.631 247.057H64.415V68.104H285.631V247.057ZM66.6956 70.5667V244.594H283.35V70.5667H66.6956Z" fill="#E6E6E6"/>
<path d="M174.954 203.401C198.218 203.401 217.076 183.036 217.076 157.916C217.076 132.796 198.218 112.432 174.954 112.432C151.691 112.432 132.833 132.796 132.833 157.916C132.833 183.036 151.691 203.401 174.954 203.401Z" fill="#0096C7"/>
<path d="M192.446 154.096H178.124V138.632C178.124 137.667 177.769 136.741 177.137 136.059C176.505 135.376 175.648 134.993 174.754 134.993C173.861 134.993 173.004 135.376 172.372 136.059C171.74 136.741 171.385 137.667 171.385 138.632V154.096H157.063C156.17 154.096 155.312 154.48 154.68 155.162C154.048 155.845 153.693 156.77 153.693 157.735C153.693 158.7 154.048 159.626 154.68 160.308C155.312 160.991 156.17 161.374 157.063 161.374H171.385V176.839C171.385 177.804 171.74 178.73 172.372 179.412C173.004 180.095 173.861 180.478 174.754 180.478C175.648 180.478 176.505 180.095 177.137 179.412C177.769 178.73 178.124 177.804 178.124 176.839V161.374H192.446C193.339 161.374 194.197 160.991 194.829 160.308C195.461 159.626 195.816 158.7 195.816 157.735C195.816 156.77 195.461 155.845 194.829 155.162C194.197 154.48 193.339 154.096 192.446 154.096Z" fill="white"/>
<path d="M82.6625 67.3571H0V0H82.6625V67.3571Z" fill="white"/>
<path d="M82.6625 67.3571H0V0H82.6625V67.3571ZM1.52038 65.7154H81.1421V1.64177H1.52038V65.7154Z" fill="#E6E6E6"/>
<path d="M71.7588 18.3452H10.9023V22.7263H71.7588V18.3452Z" fill="#E4E4E4"/>
<path d="M71.7588 31.4878H10.9023V35.8689H71.7588V31.4878Z" fill="#E4E4E4"/>
<path d="M71.7588 44.6309H10.9023V49.0119H71.7588V44.6309Z" fill="#E4E4E4"/>
<path d="M632.282 526.232H549.619V458.875H632.282V526.232Z" fill="white"/>
<path d="M632.282 526.232H549.619V458.875H632.282V526.232ZM551.14 524.59H630.761V460.517H551.14V524.59Z" fill="#E6E6E6"/>
<path d="M621.378 477.22H560.521V481.601H621.378V477.22Z" fill="#E4E4E4"/>
<path d="M621.378 490.363H560.521V494.744H621.378V490.363Z" fill="#E4E4E4"/>
<path d="M621.378 503.506H560.521V507.887H621.378V503.506Z" fill="#E4E4E4"/>
<path d="M582.081 405.372L520.337 346.021L561.811 295.71L623.555 355.06L582.081 405.372Z" fill="white"/>
<path d="M582.081 405.372L520.337 346.021L561.811 295.71L623.555 355.06L582.081 405.372ZM522.483 345.887L581.956 403.054L621.408 355.195L561.936 298.028L522.483 345.887Z" fill="#E6E6E6"/>
<path d="M558.659 317.24L555.961 320.513L601.417 364.206L604.114 360.934L558.659 317.24Z" fill="#E4E4E4"/>
<path d="M550.566 327.057L547.868 330.329L593.324 374.023L596.022 370.75L550.566 327.057Z" fill="#E4E4E4"/>
<path d="M542.473 336.874L539.775 340.146L585.231 383.84L587.929 380.568L542.473 336.874Z" fill="#E4E4E4"/>
<path d="M129.465 106.76H37.249V31.6177H129.465V106.76Z" fill="white"/>
<path d="M129.465 106.76H37.249V31.6177H129.465V106.76ZM38.9451 104.928H127.769V33.4492H38.9451V104.928Z" fill="#E6E6E6"/>
<path d="M117.302 52.083H49.4121V56.9704H117.302V52.083Z" fill="#0096C7"/>
<path d="M117.302 66.7446H49.4121V71.632H117.302V66.7446Z" fill="#0096C7"/>
<path d="M117.302 81.4067H49.4121V86.2941H117.302V81.4067Z" fill="#0096C7"/>
<path d="M368.782 303.472H228.058V188.804H368.782V303.472Z" fill="white"/>
<path d="M368.782 303.472H228.058V188.804H368.782V303.472ZM230.646 300.677H366.193V191.599H230.646V300.677Z" fill="#E6E6E6"/>
<path d="M350.22 220.035H246.618V227.493H350.22V220.035Z" fill="#0096C7"/>
<path d="M350.22 242.408H246.618V249.866H350.22V242.408Z" fill="#0096C7"/>
<path d="M350.22 264.783H246.618V272.241H350.22V264.783Z" fill="#0096C7"/>
<path d="M702.094 527H336.979C336.739 526.999 336.51 526.896 336.34 526.712C336.171 526.529 336.076 526.281 336.076 526.022C336.076 525.764 336.171 525.515 336.34 525.332C336.51 525.149 336.739 525.046 336.979 525.045H702.094C702.334 525.045 702.565 525.148 702.735 525.331C702.904 525.515 703 525.763 703 526.022C703 526.282 702.904 526.53 702.735 526.713C702.565 526.897 702.334 527 702.094 527Z" fill="#CACACA"/>
<path d="M536.548 325.255C536.003 324.201 535.679 323.031 535.599 321.827C535.519 320.624 535.683 319.416 536.082 318.288C536.481 317.161 537.104 316.142 537.907 315.302C538.71 314.463 539.673 313.824 540.73 313.43L540.776 284.096L552.547 292.51L550.699 319.076C551.194 321.036 551.005 323.124 550.17 324.945C549.334 326.765 547.909 328.191 546.165 328.953C544.42 329.714 542.478 329.759 540.705 329.077C538.933 328.395 537.454 327.036 536.548 325.255Z" fill="#9E616A"/>
<path d="M537.636 195.46L542.895 189.987L546.758 192.998C546.758 192.998 550.559 197.923 553.6 212.699C556.641 227.475 553.6 308.743 553.6 308.743L536.876 306.28L539.156 263.594L532.314 227.475L537.636 195.46Z" fill="#3F3D56"/>
</g>
<defs>
<clipPath id="clip0_465_332">
<rect width="703" height="527" fill="white"/>
</clipPath>
</defs>
</svg>
