<svg width="460" height="364" viewBox="0 0 460 364" fill="none" xmlns="http://www.w3.org/2000/svg">
<g clip-path="url(#clip0_422_313)">
<path d="M335.647 88.646C335.647 123.569 292.135 226.558 267.187 282.738C265.495 286.55 263.021 289.725 260.023 291.936C257.025 294.147 253.61 295.312 250.132 295.312C246.654 295.312 243.239 294.147 240.241 291.936C237.243 289.725 234.769 286.55 233.077 282.738C208.129 226.558 164.617 123.569 164.617 88.646C164.617 39.6882 202.903 0 250.132 0C297.361 0 335.647 39.6882 335.647 88.646Z" fill="#0096C7"/>
<path d="M250.533 146.064C276.254 146.064 297.105 119.906 297.105 87.6387C297.105 55.371 276.254 29.2129 250.533 29.2129C224.812 29.2129 203.961 55.371 203.961 87.6387C203.961 119.906 224.812 146.064 250.533 146.064Z" fill="white"/>
<path d="M56.1924 140.503C71.5981 140.503 84.087 124.835 84.087 105.508C84.087 86.1813 71.5981 70.5137 56.1924 70.5137C40.7867 70.5137 28.2979 86.1813 28.2979 105.508C28.2979 124.835 40.7867 140.503 56.1924 140.503Z" fill="#FF6584"/>
<path d="M250.132 364C287.423 364 317.654 361.072 317.654 357.461C317.654 353.849 287.423 350.921 250.132 350.921C212.84 350.921 182.609 353.849 182.609 357.461C182.609 361.072 212.84 364 250.132 364Z" fill="#0096C7"/>
<path opacity="0.4" d="M50.5127 136.629C51.9324 125.653 45.9912 115.312 37.2426 113.531C28.494 111.75 20.251 119.204 18.8313 130.179C17.4116 141.154 23.3528 151.496 32.1014 153.277C40.85 155.058 49.093 147.604 50.5127 136.629Z" fill="#0096C7"/>
<path d="M410.128 237.259C283.75 177.826 129.614 235.768 40.6217 354.292C40.1159 354.957 39.61 355.631 39.1202 356.306H37.7632C38.2289 355.631 38.7107 354.957 39.1844 354.292C130.023 226.752 282.112 175.922 410.128 237.259Z" fill="#3F3D56"/>
<path d="M444.663 256.972C433.493 249.499 421.958 242.914 410.128 237.259C421.989 242.821 433.528 249.408 444.663 256.972Z" fill="#3F3D56"/>
<path opacity="0.4" d="M375.497 197.676C385.217 197.676 393.098 187.79 393.098 175.595C393.098 163.4 385.217 153.514 375.497 153.514C365.776 153.514 357.896 163.4 357.896 175.595C357.896 187.79 365.776 197.676 375.497 197.676Z" fill="#0096C7"/>
<path d="M377.457 345.438C378.817 351.746 383.476 355.653 383.476 355.653C383.476 355.653 385.929 349.332 384.569 343.025C383.209 336.717 378.55 332.81 378.55 332.81C378.55 332.81 376.096 339.13 377.457 345.438Z" fill="#3F3D56"/>
<path d="M379.455 344.083C383.188 348.641 383.643 355.648 383.643 355.648C383.643 355.648 378.048 355.265 374.316 350.706C370.583 346.148 370.127 339.142 370.127 339.142C370.127 339.142 375.723 339.525 379.455 344.083Z" fill="#0096C7"/>
<path d="M2.69793 257.734V267.464L2.3125 267.988V257.633C2.44097 257.663 2.56948 257.703 2.69793 257.734Z" fill="#3F3D56"/>
<path d="M27.413 354.287C27.3006 354.519 27.1802 354.751 27.0597 354.982H2.3125V258.217L2.69793 257.734L5.98203 262.418V255.568H16.4205V277.306L26.9634 292.326L27.0597 292.467C27.1882 292.97 27.3087 293.474 27.4291 293.978C27.4299 293.985 27.4328 293.993 27.4371 293.998C29.0183 300.346 30.3157 306.8 31.3235 313.329C33.6199 328.731 33.2746 342.854 27.413 354.287Z" fill="#CCCCCC"/>
<path d="M11.002 311.221H4.35791V318.167H11.002V311.221Z" fill="#3F3D56"/>
<path d="M11.002 323.724H4.35791V330.67H11.002V323.724Z" fill="#3F3D56"/>
<path d="M215.666 298.023L212.344 291.078L243.349 257.737C266.271 243.895 293.902 247.889 323.078 257.737V267.461L294.287 306.359L261.067 314.694L215.666 298.023Z" fill="#3F3D56"/>
<path d="M336.803 277.303C342.309 269.619 343.074 262.313 336.803 255.567H326.364V262.421L323.078 257.737L296.502 291.078L292.072 296.635L286.536 324.419L296.502 354.981H347.439V292.467L336.803 277.303Z" fill="#CCCCCC"/>
<path d="M212.344 291.078H296.502V354.981H212.344C202.162 341.161 207.451 315.974 212.344 291.078Z" fill="#F2F2F2"/>
<path d="M284.875 311.221H267.157V330.67H284.875V311.221Z" fill="#3F3D56"/>
<path d="M259.959 310.526H244.457V354.981H259.959V310.526Z" fill="#CCCCCC"/>
<path d="M226.739 317.472V310.527H220.095V317.472H226.185H226.739Z" fill="#3F3D56"/>
<path d="M226.185 323.029H220.095V329.976H226.739V323.029H226.185Z" fill="#3F3D56"/>
<path d="M237.813 310.526H231.168V317.472H237.813V310.526Z" fill="#3F3D56"/>
<path d="M237.813 323.029H231.168V329.975H237.813V323.029Z" fill="#3F3D56"/>
<path d="M320.31 318.168V311.221H313.665V318.168H319.756H320.31Z" fill="#3F3D56"/>
<path d="M319.756 323.724H313.665V330.67H320.31V323.724H319.756Z" fill="#3F3D56"/>
<path d="M331.383 311.221H324.739V318.167H331.383V311.221Z" fill="#3F3D56"/>
<path d="M331.383 323.724H324.739V330.67H331.383V323.724Z" fill="#3F3D56"/>
<path d="M65.8152 181.332L60.2788 175.774L91.2843 141.044H169.905V171.607L118.968 214.673L65.8152 181.332Z" fill="#3F3D56"/>
<path d="M184.24 160.525V141.738H173.802V146.339L169.906 141.043L144.437 175.774L134.471 184.109L119.018 325.744L142.322 354.98H196.482C204.78 302.611 211.361 248.812 196.482 177.163L184.24 160.525Z" fill="#CCCCCC"/>
<path d="M60.2788 175.774H144.437V354.981H60.2788C51.0695 285.36 46.5719 220.797 60.2788 175.774Z" fill="#F2F2F2"/>
<path d="M108.448 311.221H92.9453V354.981H108.448V311.221Z" fill="#CCCCCC"/>
<path d="M76.3351 323.724V316.778H69.6914V323.724H75.7819H76.3351Z" fill="#3F3D56"/>
<path d="M75.7819 329.281H69.6914V336.227H76.3351V329.281H75.7819Z" fill="#3F3D56"/>
<path d="M87.4087 316.778H80.7646V323.724H87.4087V316.778Z" fill="#3F3D56"/>
<path d="M121.183 329.281H115.092V336.227H121.736V329.281H121.183Z" fill="#3F3D56"/>
<path d="M132.81 316.778H126.166V323.724H132.81V316.778Z" fill="#3F3D56"/>
<path d="M132.81 329.281H126.166V336.227H132.81V329.281Z" fill="#3F3D56"/>
<path d="M168.244 184.804V177.858H161.601V184.804H167.691H168.244Z" fill="#3F3D56"/>
<path d="M167.691 190.361H161.601V197.307H168.244V190.361H167.691Z" fill="#3F3D56"/>
<path d="M179.318 177.858H172.674V184.804H179.318V177.858Z" fill="#3F3D56"/>
<path d="M179.318 190.361H172.674V197.307H179.318V190.361Z" fill="#3F3D56"/>
<path d="M168.244 223.702V216.756H161.601V223.702H167.691H168.244Z" fill="#3F3D56"/>
<path d="M167.691 229.259H161.601V236.204H168.244V229.259H167.691Z" fill="#3F3D56"/>
<path d="M179.318 216.755H172.674V223.701H179.318V216.755Z" fill="#3F3D56"/>
<path d="M179.318 229.258H172.674V236.204H179.318V229.258Z" fill="#3F3D56"/>
<path d="M168.244 262.6V255.653H161.601V262.6H167.691H168.244Z" fill="#3F3D56"/>
<path d="M167.691 268.156H161.601V275.102H168.244V268.156H167.691Z" fill="#3F3D56"/>
<path d="M179.318 255.653H172.674V262.599H179.318V255.653Z" fill="#3F3D56"/>
<path d="M179.318 268.156H172.674V275.102H179.318V268.156Z" fill="#3F3D56"/>
<path d="M168.244 301.497V294.551H161.601V301.497H167.691H168.244Z" fill="#3F3D56"/>
<path d="M167.691 307.054H161.601V313.999H168.244V307.054H167.691Z" fill="#3F3D56"/>
<path d="M179.318 294.551H172.674V301.497H179.318V294.551Z" fill="#3F3D56"/>
<path d="M179.318 307.053H172.674V313.999H179.318V307.053Z" fill="#3F3D56"/>
<path d="M69.6909 184.804H133.917V201.474C113.33 194.347 91.8628 194.858 69.6909 201.474V184.804Z" fill="#3F3D56"/>
<path d="M69.6909 218.145C89.7365 225.554 111.145 225.554 133.917 218.145V234.815H69.6909V218.145Z" fill="#3F3D56"/>
<path d="M69.6909 251.485H133.917V268.156C112.029 259.388 90.5976 258.974 69.6909 268.156V251.485Z" fill="#3F3D56"/>
<path d="M69.6909 284.826C90.637 294.954 112.065 294.532 133.917 284.826V301.497H69.6909V284.826Z" fill="#3F3D56"/>
<path d="M414.873 255.865H460V283.143L455.969 284.725L442.559 289.976L421.522 283.862L400.508 277.753L389.412 274.528L383.871 271.957C388.48 264.023 396.863 257.783 414.873 255.865Z" fill="#3F3D56"/>
<path d="M460 271.957V354.982H383.871C383.847 354.931 383.831 354.884 383.807 354.833V354.828C383.789 354.771 383.767 354.714 383.743 354.66C382.554 351.66 381.489 348.667 380.547 345.681C372.557 320.419 373.425 295.824 383.871 271.957H460Z" fill="#F2F2F2"/>
<path d="M432.041 311.221H416.538V354.981H432.041V311.221Z" fill="#CCCCCC"/>
<path d="M399.928 323.724V316.778H393.284V323.724H399.375H399.928Z" fill="#3F3D56"/>
<path d="M399.375 329.281H393.284V336.227H399.928V329.281H399.375Z" fill="#3F3D56"/>
<path d="M411.001 316.778H404.357V323.724H411.001V316.778Z" fill="#3F3D56"/>
<path d="M411.001 329.281H404.357V336.227H411.001V329.281Z" fill="#3F3D56"/>
<path d="M445.329 323.724V316.778H438.685V323.724H444.775H445.329Z" fill="#3F3D56"/>
<path d="M444.775 329.281H438.685V336.227H445.329V329.281H444.775Z" fill="#3F3D56"/>
<path d="M456.402 316.778H449.758V323.724H456.402V316.778Z" fill="#3F3D56"/>
<path d="M456.402 329.281H449.758V336.227H456.402V329.281Z" fill="#3F3D56"/>
<path d="M400.511 223.63H410.055C419.468 223.63 428.495 228.321 435.151 236.671C441.807 245.021 445.547 256.347 445.547 268.156H400.511V223.63Z" fill="#3F3D56"/>
<path d="M111.445 102.749H120.989C130.402 102.749 139.429 107.44 146.085 115.79C152.741 124.141 156.481 135.466 156.481 147.275H111.445V102.749Z" fill="#3F3D56"/>
<path d="M264.007 214.563H273.551C282.964 214.563 291.992 219.255 298.648 227.605C305.304 235.955 309.043 247.28 309.043 259.09H264.007V214.563Z" fill="#3F3D56"/>
<path d="M445.547 284.826H400.511V301.497H445.547V284.826Z" fill="#3F3D56"/>
<path d="M460 354.292H2.3125V356.307H460V354.292Z" fill="#3F3D56"/>
<path d="M44.5249 274.707H42.9189V354.287H44.5249V274.707Z" fill="#3F3D56"/>
<path d="M59.3456 284.849C59.4478 312.676 43.8421 335.325 43.8421 335.325C43.8421 335.325 23.857 312.376 27.9685 285.03C32.1034 257.529 44.9904 234.671 43.4719 234.554C43.4719 234.554 59.2433 257.022 59.3456 284.849Z" fill="#0096C7"/>
<path d="M205.117 274.707H203.511V354.287H205.117V274.707Z" fill="#3F3D56"/>
<path d="M219.938 284.849C221.385 312.617 204.434 335.325 204.434 335.325C204.434 335.325 188.663 312.858 188.561 285.03C188.458 257.203 204.064 234.554 204.064 234.554C202.543 242.182 218.766 262.381 219.938 284.849Z" fill="#0096C7"/>
<path d="M100.782 145.348L170.538 141.067L199.8 171.709L194.627 177.569L148.289 176.26L100.782 145.348Z" fill="#3F3D56"/>
<path d="M31.179 287.551L27.4211 291.812L26.9634 292.326L26.0079 293.414L2.31253 292.749V257.633C1.54169 257.421 0.770842 257.22 0 257.029L1.91909 256.908L2.31253 257.321L5.98206 261.159L16.4205 272.098L28.0795 284.307L31.179 287.551Z" fill="#3F3D56"/>
<path d="M253.344 261.192L323.101 256.911L352.363 287.553L347.189 293.413L300.851 292.105L253.344 261.192Z" fill="#3F3D56"/>
</g>
<defs>
<clipPath id="clip0_422_313">
<rect width="460" height="364" fill="white"/>
</clipPath>
</defs>
</svg>
