<svg width="898" height="557" viewBox="0 0 898 557" fill="none" xmlns="http://www.w3.org/2000/svg">
<g clip-path="url(#clip0_531_339)">
<path d="M217.339 502.047L218.337 479.613C228.738 474.053 240.339 471.116 252.132 471.058C235.901 484.328 237.93 509.909 226.925 527.754C223.45 533.294 218.773 537.981 213.241 541.467C207.708 544.953 201.462 547.15 194.966 547.894L181.383 556.211C179.519 545.82 179.93 535.149 182.587 524.933C185.244 514.716 190.085 505.197 196.776 497.032C200.574 492.488 204.93 488.441 209.74 484.986C212.993 493.564 217.339 502.047 217.339 502.047Z" fill="#F2F2F2"/>
<path d="M796.921 36.5527H164.598C164.332 36.5468 164.08 36.4373 163.894 36.2475C163.708 36.0577 163.604 35.8028 163.604 35.5373C163.604 35.2718 163.708 35.0169 163.894 34.8271C164.08 34.6373 164.332 34.5278 164.598 34.522H796.921C797.187 34.5278 797.439 34.6373 797.625 34.8271C797.81 35.0169 797.914 35.2718 797.914 35.5373C797.914 35.8028 797.81 36.0577 797.625 36.2475C797.439 36.4373 797.187 36.5468 796.921 36.5527Z" fill="#CACACA"/>
<path d="M186.954 22.3376C192.988 22.3376 197.879 17.3372 197.879 11.1688C197.879 5.00045 192.988 0 186.954 0C180.92 0 176.028 5.00045 176.028 11.1688C176.028 17.3372 180.92 22.3376 186.954 22.3376Z" fill="#3F3D56"/>
<path d="M224.695 22.3376C230.729 22.3376 235.62 17.3372 235.62 11.1688C235.62 5.00045 230.729 0 224.695 0C218.661 0 213.77 5.00045 213.77 11.1688C213.77 17.3372 218.661 22.3376 224.695 22.3376Z" fill="#3F3D56"/>
<path d="M262.437 22.3376C268.471 22.3376 273.362 17.3372 273.362 11.1688C273.362 5.00045 268.471 0 262.437 0C256.403 0 251.512 5.00045 251.512 11.1688C251.512 17.3372 256.403 22.3376 262.437 22.3376Z" fill="#3F3D56"/>
<path d="M774.304 2.76807H747.494C746.963 2.77862 746.457 2.99713 746.084 3.37668C745.712 3.75623 745.504 4.26655 745.504 4.79807C745.504 5.32958 745.712 5.8399 746.084 6.21945C746.457 6.599 746.963 6.81751 747.494 6.82806H774.304C774.835 6.81751 775.341 6.599 775.714 6.21945C776.086 5.8399 776.294 5.32958 776.294 4.79807C776.294 4.26655 776.086 3.75623 775.714 3.37668C775.341 2.99713 774.835 2.77862 774.304 2.76807Z" fill="#3F3D56"/>
<path d="M774.304 10.3882H747.494C746.963 10.3987 746.457 10.6172 746.084 10.9968C745.712 11.3763 745.504 11.8867 745.504 12.4182C745.504 12.9497 745.712 13.46 746.084 13.8396C746.457 14.2191 746.963 14.4376 747.494 14.4482H774.304C774.835 14.4376 775.341 14.2191 775.714 13.8396C776.086 13.46 776.294 12.9497 776.294 12.4182C776.294 11.8867 776.086 11.3763 775.714 10.9968C775.341 10.6172 774.835 10.3987 774.304 10.3882Z" fill="#3F3D56"/>
<path d="M774.304 17.998H747.494C746.963 18.0086 746.457 18.2271 746.084 18.6066C745.712 18.9862 745.504 19.4965 745.504 20.028C745.504 20.5596 745.712 21.0699 746.084 21.4494C746.457 21.829 746.963 22.0475 747.494 22.058H774.304C774.835 22.0475 775.341 21.829 775.714 21.4494C776.086 21.0699 776.294 20.5596 776.294 20.028C776.294 19.4965 776.086 18.9862 775.714 18.6066C775.341 18.2271 774.835 18.0086 774.304 17.998Z" fill="#3F3D56"/>
<path d="M656.714 116.142H222.704C220.565 116.142 218.514 116.991 217.001 118.502C215.488 120.013 214.637 122.063 214.634 124.202V329.072C214.636 331.211 215.487 333.262 217 334.775C218.513 336.288 220.564 337.139 222.704 337.142H656.714C658.852 337.137 660.901 336.285 662.412 334.772C663.923 333.26 664.772 331.21 664.774 329.072V124.202C664.772 122.065 663.922 120.016 662.411 118.505C660.9 116.994 658.851 116.144 656.714 116.142Z" fill="#3F3D56"/>
<path d="M542.074 214.841C539.937 214.843 537.888 215.693 536.377 217.204C534.866 218.716 534.016 220.764 534.014 222.901V280.771C534.015 282.909 534.865 284.959 536.376 286.472C537.887 287.985 539.936 288.837 542.074 288.841H664.774V214.841H542.074Z" fill="#0096C7"/>
<path opacity="0.5" d="M871.088 288.837H542.078C539.939 288.835 537.889 287.984 536.377 286.472C534.865 284.96 534.014 282.91 534.012 280.771V222.903C534.014 220.765 534.865 218.715 536.377 217.202C537.889 215.69 539.94 214.84 542.078 214.837H871.088C873.227 214.84 875.277 215.69 876.789 217.202C878.302 218.715 879.152 220.765 879.155 222.903V280.771C879.152 282.91 878.302 284.96 876.789 286.472C875.277 287.984 873.227 288.835 871.088 288.837Z" fill="#0096C7"/>
<path d="M586.571 268.626C593.8 268.626 599.66 262.766 599.66 255.537C599.66 248.308 593.8 242.447 586.571 242.447C579.342 242.447 573.481 248.308 573.481 255.537C573.481 262.766 579.342 268.626 586.571 268.626Z" fill="white"/>
<path d="M860.893 251.733H624.379C623.345 251.733 622.354 251.323 621.623 250.592C620.892 249.861 620.481 248.869 620.481 247.836C620.481 246.802 620.892 245.811 621.623 245.08C622.354 244.349 623.345 243.938 624.379 243.938H860.893C861.927 243.938 862.918 244.349 863.649 245.08C864.38 245.811 864.791 246.802 864.791 247.836C864.791 248.869 864.38 249.861 863.649 250.592C862.918 251.323 861.927 251.733 860.893 251.733Z" fill="white"/>
<path d="M771.063 267.135H624.379C623.346 267.135 622.354 266.725 621.623 265.994C620.892 265.263 620.481 264.271 620.481 263.237C620.481 262.204 620.892 261.212 621.623 260.481C622.354 259.75 623.346 259.339 624.379 259.339H771.063C772.097 259.339 773.088 259.75 773.819 260.481C774.55 261.212 774.961 262.204 774.961 263.237C774.961 264.271 774.55 265.263 773.819 265.994C773.088 266.725 772.097 267.135 771.063 267.135Z" fill="white"/>
<path d="M151.406 545.537L162.734 545.536L168.123 501.843H151.404L151.406 545.537Z" fill="#FFB6B6"/>
<path d="M148.517 541.838L151.705 541.838L164.153 536.775L170.825 541.837C174.596 541.837 178.213 543.335 180.879 546.001C183.545 548.667 185.043 552.283 185.043 556.054V556.516L148.517 556.517L148.517 541.838Z" fill="#2F2E41"/>
<path d="M49.0508 530.809L59.1898 535.862L83.5038 499.161L68.5408 491.703L49.0508 530.809Z" fill="#FFB6B6"/>
<path d="M48.1151 526.21L50.9688 527.632L64.3682 528.655L68.0815 536.161C71.4559 537.843 74.0247 540.797 75.2215 544.373C76.4183 547.948 76.1459 551.853 74.4642 555.227L74.2581 555.641L41.5674 539.348L48.1151 526.21Z" fill="#2F2E41"/>
<path d="M156.425 347.097L84.3991 348.976L85.6517 384.049C85.6517 384.049 84.3991 393.444 86.9043 395.949C89.4096 398.454 90.6622 398.454 89.4096 402.839C88.1569 407.223 84.9186 449.112 84.9186 449.112C84.9186 449.112 55.357 501.382 56.6097 502.635C57.8623 503.887 59.1149 502.635 57.8623 505.766C56.6097 508.898 55.357 507.645 56.6097 508.898C57.7193 510.094 58.7646 511.349 59.7412 512.656H80.1568C80.1568 512.656 81.2984 506.393 81.2984 505.766C81.2984 505.14 82.5511 501.382 82.5511 500.756C82.5511 500.129 118.22 462.338 118.22 462.338L125.736 399.707L143.899 461.086C143.899 461.086 143.899 514.949 145.151 516.201C146.404 517.454 146.404 516.828 145.778 519.333C145.151 521.838 142.646 521.212 144.525 523.091C146.404 524.97 147.03 521.838 146.404 524.97L145.778 528.101L169.84 528.37C169.84 528.37 172.345 523.091 171.093 521.212C169.84 519.333 169.915 519.846 171.444 516.771C172.972 513.696 173.598 513.07 172.972 512.443C172.345 511.817 172.345 508.486 172.345 508.486C172.345 508.486 163.314 385.302 163.314 383.423C163.267 382.456 163.445 381.491 163.835 380.605V378.055L161.436 369.018L156.425 347.097Z" fill="#2F2E41"/>
<path d="M869.68 238.348C864.214 238.348 858.87 236.727 854.325 233.69C849.78 230.653 846.238 226.337 844.146 221.286C842.054 216.236 841.507 210.679 842.573 205.318C843.639 199.957 846.272 195.032 850.137 191.167C854.002 187.302 858.927 184.669 864.288 183.603C869.649 182.536 875.206 183.084 880.257 185.176C885.307 187.267 889.623 190.81 892.66 195.355C895.697 199.9 897.318 205.244 897.318 210.71C897.318 218.04 894.406 225.07 889.223 230.253C884.04 235.436 877.01 238.348 869.68 238.348Z" fill="#0096C7"/>
<path d="M880.586 207.983H872.407V199.804C872.407 199.081 872.12 198.388 871.609 197.877C871.097 197.365 870.404 197.078 869.681 197.078C868.958 197.078 868.264 197.365 867.753 197.877C867.242 198.388 866.954 199.081 866.954 199.804V207.983H858.775C858.417 207.983 858.062 208.053 857.731 208.189C857.399 208.326 857.098 208.527 856.844 208.78C856.591 209.033 856.389 209.334 856.252 209.665C856.115 209.996 856.044 210.351 856.044 210.71C856.044 211.068 856.115 211.423 856.252 211.754C856.389 212.085 856.591 212.386 856.844 212.639C857.098 212.893 857.399 213.093 857.731 213.23C858.062 213.367 858.417 213.437 858.775 213.436H866.954V221.615C866.954 222.338 867.242 223.032 867.753 223.543C868.264 224.054 868.958 224.341 869.681 224.341C870.404 224.341 871.097 224.054 871.609 223.543C872.12 223.032 872.407 222.338 872.407 221.615V213.436H880.586C881.309 213.436 882.003 213.149 882.514 212.638C883.025 212.126 883.312 211.433 883.312 210.71C883.312 209.987 883.025 209.293 882.514 208.782C882.003 208.271 881.309 207.983 880.586 207.983Z" fill="white"/>
<path d="M447.884 289.211H342.874C340.734 289.214 338.683 290.065 337.17 291.578C335.657 293.091 334.806 295.142 334.804 297.281V337.141H455.944V297.281C455.942 295.143 455.093 293.093 453.582 291.581C452.071 290.068 450.022 289.216 447.884 289.211Z" fill="#0096C7"/>
<path opacity="0.5" d="M447.88 401.211H342.87C340.731 401.209 338.681 400.358 337.169 398.846C335.657 397.334 334.806 395.284 334.804 393.145V297.277C334.806 295.139 335.657 293.089 337.169 291.577C338.681 290.064 340.732 289.214 342.87 289.211H447.88C450.019 289.214 452.069 290.064 453.581 291.577C455.093 293.089 455.944 295.139 455.947 297.277V393.145C455.944 395.284 455.094 397.334 453.581 398.846C452.069 400.358 450.019 401.209 447.88 401.211Z" fill="#0096C7"/>
<path d="M373.808 334.652C381.037 334.652 386.897 328.792 386.897 321.563C386.897 314.334 381.037 308.474 373.808 308.474C366.579 308.474 360.719 314.334 360.719 321.563C360.719 328.792 366.579 334.652 373.808 334.652Z" fill="white"/>
<path d="M426.131 354.547H364.617C363.583 354.547 362.591 354.137 361.86 353.406C361.129 352.675 360.719 351.683 360.719 350.65C360.719 349.616 361.129 348.625 361.86 347.894C362.591 347.163 363.583 346.752 364.617 346.752H426.131C427.164 346.752 428.156 347.163 428.887 347.894C429.618 348.625 430.028 349.616 430.028 350.65C430.028 351.683 429.618 352.675 428.887 353.406C428.156 354.137 427.164 354.547 426.131 354.547Z" fill="white"/>
<path d="M394.3 369.949H364.617C363.583 369.949 362.591 369.539 361.86 368.807C361.129 368.076 360.719 367.085 360.719 366.051C360.719 365.017 361.129 364.026 361.86 363.295C362.591 362.564 363.583 362.153 364.617 362.153H394.3C395.334 362.153 396.326 362.564 397.057 363.295C397.788 364.026 398.198 365.017 398.198 366.051C398.198 367.085 397.788 368.076 397.057 368.807C396.326 369.539 395.334 369.949 394.3 369.949Z" fill="white"/>
<path d="M340.68 429.348C335.214 429.348 329.87 427.727 325.325 424.69C320.78 421.653 317.238 417.337 315.146 412.286C313.054 407.236 312.507 401.679 313.573 396.318C314.639 390.957 317.272 386.032 321.137 382.167C325.002 378.302 329.927 375.669 335.288 374.603C340.649 373.536 346.206 374.084 351.257 376.176C356.307 378.267 360.623 381.81 363.66 386.355C366.697 390.9 368.318 396.244 368.318 401.71C368.318 409.04 365.406 416.07 360.223 421.253C355.04 426.436 348.01 429.348 340.68 429.348Z" fill="#0096C7"/>
<path d="M351.586 398.983H343.407V390.804C343.407 390.081 343.12 389.388 342.609 388.877C342.097 388.365 341.404 388.078 340.681 388.078C339.958 388.078 339.264 388.365 338.753 388.877C338.242 389.388 337.954 390.081 337.954 390.804V398.983H329.775C329.417 398.983 329.062 399.053 328.731 399.19C328.399 399.326 328.098 399.527 327.844 399.78C327.591 400.033 327.389 400.334 327.252 400.665C327.115 400.996 327.044 401.351 327.044 401.71C327.044 402.068 327.115 402.423 327.252 402.754C327.389 403.085 327.591 403.386 327.844 403.639C328.098 403.893 328.399 404.093 328.731 404.23C329.062 404.367 329.417 404.437 329.775 404.436H337.954V412.615C337.954 413.338 338.242 414.032 338.753 414.543C339.264 415.054 339.958 415.341 340.681 415.341C341.404 415.341 342.097 415.054 342.609 414.543C343.12 414.032 343.407 413.338 343.407 412.615V404.436H351.586C352.309 404.436 353.003 404.149 353.514 403.638C354.025 403.126 354.312 402.433 354.312 401.71C354.312 400.987 354.025 400.293 353.514 399.782C353.003 399.271 352.309 398.983 351.586 398.983Z" fill="white"/>
<path d="M327.887 228.267H222.877C220.738 228.264 218.688 227.414 217.176 225.901C215.664 224.389 214.813 222.339 214.811 220.2V124.333C214.813 122.194 215.664 120.144 217.176 118.632C218.688 117.12 220.738 116.269 222.877 116.267H327.887C330.026 116.269 332.076 117.12 333.588 118.632C335.1 120.144 335.951 122.194 335.953 124.333V220.2C335.951 222.339 335.1 224.389 333.588 225.901C332.076 227.414 330.026 228.264 327.887 228.267Z" fill="#0096C7"/>
<path d="M253.816 169.708C261.045 169.708 266.905 163.847 266.905 156.618C266.905 149.389 261.045 143.529 253.816 143.529C246.587 143.529 240.727 149.389 240.727 156.618C240.727 163.847 246.587 169.708 253.816 169.708Z" fill="#0096C7"/>
<path d="M306.139 185.602H244.625C243.592 185.602 242.6 185.191 241.869 184.461C241.138 183.73 240.728 182.738 240.728 181.704C240.728 180.671 241.138 179.679 241.869 178.948C242.6 178.217 243.592 177.807 244.625 177.807H306.139C307.173 177.807 308.165 178.217 308.896 178.948C309.627 179.679 310.037 180.671 310.037 181.704C310.037 182.738 309.627 183.73 308.896 184.461C308.165 185.191 307.173 185.602 306.139 185.602Z" fill="#0096C7"/>
<path d="M274.308 201.004H244.625C243.591 201.004 242.599 200.594 241.868 199.863C241.137 199.132 240.727 198.14 240.727 197.106C240.727 196.073 241.137 195.081 241.868 194.35C242.599 193.619 243.591 193.208 244.625 193.208H274.308C275.342 193.208 276.333 193.619 277.064 194.35C277.795 195.081 278.206 196.073 278.206 197.106C278.206 198.14 277.795 199.132 277.064 199.863C276.333 200.594 275.342 201.004 274.308 201.004Z" fill="#0096C7"/>
<path opacity="0.5" d="M327.887 228.267H222.877C220.738 228.264 218.688 227.414 217.176 225.901C215.664 224.389 214.813 222.339 214.811 220.2V124.333C214.813 122.194 215.664 120.144 217.176 118.632C218.688 117.12 220.738 116.269 222.877 116.267H327.887C330.026 116.269 332.076 117.12 333.588 118.632C335.1 120.144 335.951 122.194 335.953 124.333V220.2C335.951 222.339 335.1 224.389 333.588 225.901C332.076 227.414 330.026 228.264 327.887 228.267Z" fill="#0096C7"/>
<path d="M253.816 169.708C261.045 169.708 266.905 163.847 266.905 156.618C266.905 149.389 261.045 143.529 253.816 143.529C246.587 143.529 240.727 149.389 240.727 156.618C240.727 163.847 246.587 169.708 253.816 169.708Z" fill="white"/>
<path d="M306.139 185.602H244.625C243.592 185.602 242.6 185.191 241.869 184.461C241.138 183.73 240.728 182.738 240.728 181.704C240.728 180.671 241.138 179.679 241.869 178.948C242.6 178.217 243.592 177.807 244.625 177.807H306.139C307.173 177.807 308.165 178.217 308.896 178.948C309.627 179.679 310.037 180.671 310.037 181.704C310.037 182.738 309.627 183.73 308.896 184.461C308.165 185.191 307.173 185.602 306.139 185.602Z" fill="white"/>
<path d="M274.308 201.004H244.625C243.591 201.004 242.599 200.594 241.868 199.863C241.137 199.132 240.727 198.14 240.727 197.106C240.727 196.073 241.137 195.081 241.868 194.35C242.599 193.619 243.591 193.208 244.625 193.208H274.308C275.342 193.208 276.333 193.619 277.064 194.35C277.795 195.081 278.206 196.073 278.206 197.106C278.206 198.14 277.795 199.132 277.064 199.863C276.333 200.594 275.342 201.004 274.308 201.004Z" fill="white"/>
<path d="M225.043 136.952C236.641 136.952 246.043 127.55 246.043 115.952C246.043 104.354 236.641 94.9517 225.043 94.9517C213.445 94.9517 204.043 104.354 204.043 115.952C204.043 127.55 213.445 136.952 225.043 136.952Z" fill="#FF6584"/>
<path d="M282.67 555.785C282.671 555.942 282.64 556.097 282.58 556.241C282.521 556.386 282.433 556.517 282.323 556.628C282.212 556.738 282.081 556.826 281.936 556.886C281.791 556.945 281.636 556.976 281.48 556.975H1.19C0.874395 556.975 0.57171 556.85 0.348541 556.627C0.125373 556.404 0 556.101 0 555.785C0 555.47 0.125373 555.167 0.348541 554.944C0.57171 554.721 0.874395 554.595 1.19 554.595H281.48C281.636 554.595 281.791 554.625 281.936 554.685C282.081 554.745 282.212 554.832 282.323 554.943C282.433 555.053 282.521 555.185 282.58 555.329C282.64 555.474 282.671 555.629 282.67 555.785Z" fill="#CCCCCC"/>
<path d="M220.555 171.576C221.418 173.99 221.298 176.646 220.221 178.973C219.144 181.299 217.196 183.108 214.796 184.011C214.265 184.21 213.718 184.36 213.161 184.462L207.615 218.422L194.604 206.409L201.866 176.002C201.597 173.44 202.347 170.875 203.955 168.862C205.562 166.848 207.897 165.548 210.456 165.243C212.608 164.996 214.78 165.489 216.615 166.64C218.45 167.79 219.84 169.531 220.555 171.576Z" fill="#FFB6B6"/>
<path d="M124.54 248.524C124.54 248.524 134.637 235.183 171.279 235.548L192.077 227.992L196.83 184.422L213.466 188.383L211.089 242.251L175.441 262.848L128.702 272.354L124.54 248.524Z" fill="#3F3D56"/>
<path d="M119.175 220.73C131.186 220.73 140.923 210.994 140.923 198.983C140.923 186.972 131.186 177.235 119.175 177.235C107.164 177.235 97.4277 186.972 97.4277 198.983C97.4277 210.994 107.164 220.73 119.175 220.73Z" fill="#FFB6B6"/>
<path d="M82.3673 363.878C82.3287 363.878 82.2903 363.873 82.2531 363.862C81.8516 363.75 81.5344 363.662 82.9834 351.133L84.5473 341.229L83.0206 332.485L80.4526 329.917L84.5798 325.79L88.0433 315.952L82.0505 307.071L75.1749 270.755C73.9929 264.489 74.9114 258.007 77.7881 252.316C80.6648 246.624 85.3388 242.041 91.0855 239.277L99.0433 236.952L101.939 231.642C102.752 230.151 103.949 228.904 105.406 228.032C106.863 227.159 108.527 226.692 110.225 226.68L124.798 226.571C126.268 226.56 127.721 226.889 129.043 227.534C130.364 228.178 131.518 229.12 132.415 230.286L137.499 236.895L158.581 244.056L155.086 319.378C155.641 319.842 156.094 320.417 156.415 321.066C156.737 321.715 156.921 322.423 156.954 323.146C156.988 323.87 156.871 324.592 156.612 325.268C156.352 325.944 155.954 326.559 155.445 327.073C155.226 327.294 155.052 327.474 154.944 327.593C154.589 328.098 155.256 331.868 156.079 335.069L157.135 339.97C156.796 340.212 156.511 340.522 156.298 340.88C156.085 341.238 155.948 341.636 155.897 342.049C155.846 342.462 155.88 342.882 155.999 343.281C156.118 343.68 156.318 344.05 156.587 344.368L157.934 345.959C158.2 347.953 157.664 349.972 156.445 351.572C155.225 353.172 153.42 354.223 151.426 354.494C132.159 357.116 82.468 363.878 82.3673 363.878Z" fill="#3F3D56"/>
<path d="M113.612 219.665C113.519 219.461 113.426 219.255 113.334 219.049C113.37 219.05 113.405 219.056 113.44 219.057L113.612 219.665Z" fill="#2F2E41"/>
<path d="M96.8235 178.224C97.8561 177.25 99.1982 176.67 100.615 176.585C102.022 176.63 103.448 177.9 103.156 179.277C105.739 174.703 109.851 171.186 114.769 169.342C119.687 167.498 125.098 167.445 130.051 169.192C133.546 170.425 136.974 172.892 137.777 176.511C137.855 177.461 138.138 178.382 138.607 179.212C139.013 179.656 139.541 179.971 140.124 180.119C140.707 180.266 141.321 180.24 141.889 180.044L141.924 180.034C142.118 179.967 142.329 179.961 142.527 180.015C142.725 180.069 142.903 180.182 143.037 180.338C143.17 180.494 143.254 180.687 143.277 180.891C143.3 181.095 143.261 181.302 143.165 181.484L142.176 183.328C143.423 183.606 144.719 183.579 145.952 183.248C146.157 183.194 146.374 183.205 146.572 183.28C146.771 183.354 146.941 183.488 147.061 183.663C147.18 183.838 147.242 184.045 147.239 184.257C147.236 184.469 147.167 184.675 147.042 184.846C145.399 187.094 143.253 188.928 140.776 190.202C138.299 191.475 135.559 192.152 132.774 192.18C128.822 192.156 124.83 190.794 120.985 191.703C119.497 192.054 118.107 192.735 116.916 193.693C115.726 194.652 114.765 195.866 114.104 197.244C113.444 198.623 113.1 200.132 113.099 201.66C113.098 203.189 113.439 204.699 114.097 206.078C112.916 204.786 110.632 205.092 109.423 206.359C108.867 207.037 108.456 207.823 108.215 208.666C107.974 209.51 107.909 210.394 108.024 211.264C108.346 213.928 109.137 216.514 110.36 218.902C105.687 218.759 101.171 217.184 97.4221 214.392C93.6728 211.599 90.8709 207.724 89.3948 203.288C87.9187 198.852 87.8395 194.07 89.168 189.588C90.4965 185.106 93.1687 181.139 96.8235 178.224Z" fill="#2F2E41"/>
<path d="M90.8396 395.068C88.7604 393.568 87.3538 391.312 86.9231 388.785C86.4924 386.258 87.0721 383.662 88.5373 381.559C88.8623 381.095 89.2277 380.66 89.6293 380.261L74.9541 349.138L92.4809 351.662L103.73 380.83C105.403 382.789 106.239 385.328 106.055 387.897C105.872 390.467 104.685 392.862 102.75 394.563C101.116 395.986 99.0477 396.811 96.8833 396.903C94.719 396.995 92.5877 396.348 90.8396 395.068Z" fill="#FFB6B6"/>
<path d="M86.3955 378.074L63.0434 325.591L62.8096 284.139L70.1707 261.749C71.1693 258.711 72.7668 255.904 74.8687 253.494C76.9706 251.085 79.5343 249.121 82.4082 247.718C85.2821 246.316 88.4079 245.505 91.6009 245.331C94.7939 245.158 97.9892 245.626 100.998 246.709L101.16 246.767L101.228 246.925C101.5 247.56 107.674 262.832 89.361 294.248L85.6755 315.744L98.6077 365.018L86.3955 378.074Z" fill="#3F3D56"/>
</g>
<defs>
<clipPath id="clip0_531_339">
<rect width="897.318" height="556.975" fill="white"/>
</clipPath>
</defs>
</svg>
