<svg width="786" height="508" viewBox="0 0 786 508" fill="none" xmlns="http://www.w3.org/2000/svg">
<g clip-path="url(#clip0_127_297)">
<path d="M548.006 342.431C467.232 342.435 396.953 282.179 386.571 199.994L388.555 199.743C398.809 280.914 468.232 340.426 548.007 340.431C554.785 340.431 561.557 340.004 568.281 339.152C656.267 328.037 718.805 247.413 707.69 159.427L709.674 159.176C720.928 248.255 657.611 329.883 568.532 341.136C561.724 341.998 554.868 342.43 548.006 342.431Z" fill="#3F3D56"/>
<path d="M612.417 80.6383C607.154 66.7255 607.633 51.2919 613.75 37.7326C619.866 24.1733 631.119 13.5992 645.031 8.33628C658.944 3.07339 674.378 3.5529 687.937 9.6693C701.496 15.7857 712.07 27.038 717.333 40.9508L715.462 41.6588C710.387 28.2422 700.19 17.3913 687.115 11.493C674.039 5.59472 659.156 5.13226 645.739 10.2074C632.323 15.2825 621.472 25.4795 615.574 38.555C609.675 51.6306 609.213 66.5137 614.288 79.9303L612.417 80.6383Z" fill="#3F3D56"/>
<path d="M774.889 178.53H673.224C670.499 178.526 667.887 177.443 665.961 175.516C664.034 173.59 662.95 170.977 662.947 168.253V33.6367C662.95 30.912 664.034 28.2999 665.961 26.3733C667.887 24.4467 670.499 23.363 673.224 23.3599H774.889C777.614 23.3629 780.226 24.4467 782.152 26.3733C784.079 28.2999 785.163 30.912 785.166 33.6367V168.253C785.163 170.977 784.079 173.59 782.152 175.516C780.226 177.443 777.614 178.526 774.889 178.53Z" fill="#E6E6E6"/>
<path d="M734.496 170.464H680.371C677.819 170.462 675.372 169.447 673.568 167.642C671.764 165.838 670.749 163.392 670.746 160.84V41.0498C670.749 38.498 671.764 36.0517 673.568 34.2473C675.372 32.443 677.819 31.4281 680.371 31.4253H767.743C770.295 31.4281 772.741 32.443 774.546 34.2474C776.35 36.0517 777.365 38.4981 777.368 41.0498V127.593C777.355 138.96 772.834 149.857 764.797 157.894C756.759 165.931 745.862 170.452 734.496 170.464Z" fill="white"/>
<path d="M759.027 91.498H689.087C688.482 91.498 687.902 91.2577 687.474 90.83C687.046 90.4022 686.806 89.822 686.806 89.217C686.806 88.6121 687.046 88.0319 687.474 87.6041C687.902 87.1764 688.482 86.936 689.087 86.936H759.027C759.632 86.936 760.212 87.1764 760.64 87.6041C761.068 88.0319 761.308 88.6121 761.308 89.217C761.308 89.822 761.068 90.4022 760.64 90.83C760.212 91.2577 759.632 91.498 759.027 91.498Z" fill="#E4E4E4"/>
<path d="M759.027 100.511H689.086C688.482 100.51 687.903 100.269 687.477 99.8416C687.05 99.414 686.81 98.8345 686.81 98.2303C686.81 97.6262 687.05 97.0467 687.477 96.619C687.903 96.1914 688.482 95.9505 689.086 95.9492H759.027C759.632 95.9492 760.212 96.1895 760.64 96.6173C761.068 97.0451 761.308 97.6254 761.308 98.2303C761.308 98.8353 761.068 99.4155 760.64 99.8433C760.212 100.271 759.632 100.511 759.027 100.511Z" fill="#E4E4E4"/>
<path d="M719.404 109.525H689.086C688.481 109.525 687.901 109.284 687.473 108.857C687.045 108.429 686.805 107.848 686.805 107.243C686.805 106.639 687.045 106.058 687.473 105.631C687.901 105.203 688.481 104.962 689.086 104.962H719.404C720.009 104.962 720.589 105.203 721.017 105.631C721.445 106.058 721.685 106.639 721.685 107.243C721.685 107.848 721.445 108.429 721.017 108.857C720.589 109.284 720.009 109.525 719.404 109.525Z" fill="#E4E4E4"/>
<path d="M759.027 54.6899H689.087C688.482 54.6899 687.902 54.4496 687.474 54.0218C687.046 53.5941 686.806 53.0139 686.806 52.4089C686.806 51.804 687.046 51.2238 687.474 50.796C687.902 50.3683 688.482 50.1279 689.087 50.1279H759.027C759.632 50.1279 760.212 50.3683 760.64 50.796C761.068 51.2238 761.308 51.804 761.308 52.4089C761.308 53.0139 761.068 53.5941 760.64 54.0218C760.212 54.4496 759.632 54.6899 759.027 54.6899Z" fill="#E4E4E4"/>
<path d="M759.027 63.7033H689.086C688.481 63.7033 687.901 63.463 687.473 63.0352C687.045 62.6074 686.805 62.0272 686.805 61.4222C686.805 60.8172 687.045 60.237 687.473 59.8092C687.901 59.3814 688.481 59.1411 689.086 59.1411H759.027C759.632 59.1411 760.212 59.3814 760.64 59.8092C761.068 60.237 761.308 60.8172 761.308 61.4222C761.308 62.0272 761.068 62.6074 760.64 63.0352C760.212 63.463 759.632 63.7033 759.027 63.7033Z" fill="#E4E4E4"/>
<path d="M719.404 72.717H689.086C688.482 72.7157 687.903 72.4749 687.477 72.0472C687.05 71.6196 686.81 71.0401 686.81 70.4359C686.81 69.8318 687.05 69.2523 687.477 68.8246C687.903 68.397 688.482 68.1561 689.086 68.1548H719.404C720.008 68.1561 720.587 68.397 721.014 68.8246C721.441 69.2523 721.68 69.8318 721.68 70.4359C721.68 71.0401 721.441 71.6196 721.014 72.0472C720.587 72.4749 720.008 72.7157 719.404 72.717Z" fill="#E4E4E4"/>
<path d="M759.027 129.594H689.087C688.482 129.594 687.902 129.354 687.474 128.926C687.046 128.498 686.806 127.918 686.806 127.313C686.806 126.708 687.046 126.128 687.474 125.7C687.902 125.273 688.482 125.032 689.087 125.032H759.027C759.632 125.032 760.212 125.273 760.64 125.7C761.068 126.128 761.308 126.708 761.308 127.313C761.308 127.918 761.068 128.498 760.64 128.926C760.212 129.354 759.632 129.594 759.027 129.594Z" fill="#0096C7"/>
<path d="M700.027 138.608H689.086C688.482 138.606 687.903 138.365 687.477 137.938C687.05 137.51 686.81 136.931 686.81 136.327C686.81 135.722 687.05 135.143 687.477 134.715C687.903 134.288 688.482 134.047 689.086 134.045H700.027C700.632 134.045 701.212 134.286 701.64 134.714C702.068 135.141 702.308 135.722 702.308 136.327C702.308 136.931 702.068 137.512 701.64 137.939C701.212 138.367 700.632 138.608 700.027 138.608Z" fill="#0096C7"/>
<path d="M719.404 147.621H689.086C688.481 147.621 687.901 147.38 687.473 146.953C687.045 146.525 686.805 145.945 686.805 145.34C686.805 144.735 687.045 144.155 687.473 143.727C687.901 143.299 688.481 143.059 689.086 143.059H719.404C720.009 143.059 720.589 143.299 721.017 143.727C721.445 144.155 721.685 144.735 721.685 145.34C721.685 145.945 721.445 146.525 721.017 146.953C720.589 147.38 720.009 147.621 719.404 147.621Z" fill="#0096C7"/>
<path d="M388.087 174.017C379.277 150.695 380.09 124.828 390.347 102.105C400.603 79.3813 419.464 61.6612 442.783 52.8404C466.101 44.0197 491.968 44.8203 514.696 55.0663C537.424 65.3122 555.153 84.1648 563.985 107.479L562.114 108.187C557.841 96.8789 551.382 86.5234 543.106 77.7119C534.831 68.9005 524.9 61.8058 513.882 56.8331C502.863 51.8605 490.973 49.1072 478.891 48.7307C466.808 48.3542 454.77 50.3617 443.463 54.6387C432.157 58.9157 421.803 65.3783 412.995 73.6573C404.187 81.9363 397.095 91.8696 392.127 102.89C387.158 113.91 384.409 125.801 384.037 137.884C383.665 149.966 385.677 162.004 389.958 173.309L388.087 174.017Z" fill="#3F3D56"/>
<path d="M562.907 20.6868C568.179 20.6868 572.453 16.4129 572.453 11.1407C572.453 5.86863 568.179 1.59473 562.907 1.59473C557.635 1.59473 553.361 5.86863 553.361 11.1407C553.361 16.4129 557.635 20.6868 562.907 20.6868Z" fill="#E6E6E6"/>
<path d="M575.907 295.687C581.179 295.687 585.453 291.413 585.453 286.141C585.453 280.869 581.179 276.595 575.907 276.595C570.635 276.595 566.361 280.869 566.361 286.141C566.361 291.413 570.635 295.687 575.907 295.687Z" fill="#E6E6E6"/>
<path d="M330.907 68.6868C336.179 68.6868 340.453 64.4129 340.453 59.1407C340.453 53.8686 336.179 49.5947 330.907 49.5947C325.635 49.5947 321.361 53.8686 321.361 59.1407C321.361 64.4129 325.635 68.6868 330.907 68.6868Z" fill="#E6E6E6"/>
<path d="M462.7 451.388H244.167C238.311 451.381 232.696 449.052 228.555 444.91C224.413 440.769 222.084 435.154 222.077 429.298V139.935C222.084 134.078 224.413 128.463 228.555 124.322C232.696 120.181 238.311 117.851 244.167 117.845H462.7C468.557 117.851 474.172 120.181 478.313 124.322C482.455 128.463 484.784 134.078 484.791 139.935V429.298C484.784 435.154 482.455 440.769 478.313 444.911C474.172 449.052 468.557 451.381 462.7 451.388Z" fill="#E6E6E6"/>
<path d="M379.292 433.477H259.528C254.196 433.471 249.083 431.35 245.312 427.579C241.542 423.808 239.421 418.696 239.415 413.363V155.87C239.421 150.537 241.542 145.424 245.312 141.654C249.083 137.883 254.196 135.762 259.528 135.756H447.339C452.672 135.762 457.784 137.883 461.555 141.654C465.326 145.424 467.447 150.537 467.453 155.87V345.317C467.426 368.69 458.129 391.099 441.602 407.626C425.074 424.154 402.666 433.451 379.292 433.477Z" fill="white"/>
<path d="M428.603 185.19H278.264C277.619 185.191 276.981 185.065 276.385 184.819C275.789 184.573 275.248 184.212 274.792 183.756C274.336 183.301 273.974 182.76 273.727 182.165C273.481 181.569 273.354 180.931 273.354 180.287C273.354 179.642 273.481 179.004 273.727 178.409C273.974 177.814 274.336 177.273 274.792 176.817C275.248 176.362 275.789 176.001 276.385 175.755C276.981 175.509 277.619 175.383 278.264 175.384H428.603C429.248 175.383 429.886 175.509 430.482 175.755C431.078 176.001 431.619 176.362 432.075 176.817C432.531 177.273 432.893 177.814 433.14 178.409C433.386 179.004 433.514 179.642 433.514 180.287C433.514 180.931 433.386 181.569 433.14 182.165C432.893 182.76 432.531 183.301 432.075 183.756C431.619 184.212 431.078 184.573 430.482 184.819C429.886 185.065 429.248 185.191 428.603 185.19Z" fill="#0096C7"/>
<path d="M428.603 204.564H278.264C276.963 204.564 275.716 204.048 274.797 203.128C273.877 202.209 273.36 200.962 273.36 199.661C273.36 198.361 273.877 197.114 274.797 196.194C275.716 195.274 276.963 194.758 278.264 194.758H428.603C429.904 194.758 431.151 195.274 432.071 196.194C432.99 197.114 433.507 198.361 433.507 199.661C433.507 200.962 432.99 202.209 432.071 203.128C431.151 204.048 429.904 204.564 428.603 204.564Z" fill="#0096C7"/>
<path d="M343.432 223.939H278.264C276.963 223.939 275.716 223.422 274.797 222.503C273.877 221.583 273.36 220.336 273.36 219.036C273.36 217.735 273.877 216.488 274.797 215.568C275.716 214.649 276.963 214.132 278.264 214.132H343.432C344.733 214.132 345.98 214.649 346.9 215.568C347.819 216.488 348.336 217.735 348.336 219.036C348.336 220.336 347.819 221.583 346.9 222.503C345.98 223.422 344.733 223.939 343.432 223.939Z" fill="#0096C7"/>
<path d="M428.603 264.517H278.264C277.619 264.518 276.981 264.391 276.385 264.145C275.789 263.899 275.248 263.538 274.792 263.083C274.336 262.628 273.974 262.087 273.727 261.491C273.481 260.896 273.354 260.258 273.354 259.614C273.354 258.969 273.481 258.331 273.727 257.736C273.974 257.14 274.336 256.599 274.792 256.144C275.248 255.689 275.789 255.328 276.385 255.082C276.981 254.836 277.619 254.71 278.264 254.71H428.603C429.248 254.71 429.886 254.836 430.482 255.082C431.078 255.328 431.619 255.689 432.075 256.144C432.531 256.599 432.893 257.14 433.14 257.736C433.386 258.331 433.514 258.969 433.514 259.614C433.514 260.258 433.386 260.896 433.14 261.491C432.893 262.087 432.531 262.628 432.075 263.083C431.619 263.538 431.078 263.899 430.482 264.145C429.886 264.391 429.248 264.518 428.603 264.517Z" fill="#E4E4E4"/>
<path d="M428.603 283.891H278.264C276.963 283.891 275.716 283.374 274.797 282.454C273.877 281.535 273.36 280.288 273.36 278.987C273.36 277.687 273.877 276.44 274.797 275.52C275.716 274.601 276.963 274.084 278.264 274.084H428.603C429.904 274.084 431.151 274.601 432.071 275.52C432.99 276.44 433.507 277.687 433.507 278.987C433.507 280.288 432.99 281.535 432.071 282.454C431.151 283.374 429.904 283.891 428.603 283.891Z" fill="#E4E4E4"/>
<path d="M343.432 303.266H278.264C276.963 303.266 275.716 302.749 274.797 301.829C273.877 300.91 273.36 299.663 273.36 298.362C273.36 297.062 273.877 295.815 274.797 294.895C275.716 293.976 276.963 293.459 278.264 293.459H343.432C344.733 293.459 345.98 293.976 346.9 294.895C347.819 295.815 348.336 297.062 348.336 298.362C348.336 299.663 347.819 300.91 346.9 301.829C345.98 302.749 344.733 303.266 343.432 303.266Z" fill="#E4E4E4"/>
<path d="M428.603 343.843H278.264C277.619 343.844 276.981 343.718 276.385 343.472C275.789 343.226 275.248 342.865 274.792 342.409C274.336 341.954 273.974 341.413 273.727 340.818C273.481 340.222 273.354 339.584 273.354 338.94C273.354 338.295 273.481 337.657 273.727 337.062C273.974 336.466 274.336 335.926 274.792 335.47C275.248 335.015 275.789 334.654 276.385 334.408C276.981 334.162 277.619 334.036 278.264 334.037H428.603C429.248 334.036 429.886 334.162 430.482 334.408C431.078 334.654 431.619 335.015 432.075 335.47C432.531 335.926 432.893 336.466 433.14 337.062C433.386 337.657 433.514 338.295 433.514 338.94C433.514 339.584 433.386 340.222 433.14 340.818C432.893 341.413 432.531 341.954 432.075 342.409C431.619 342.865 431.078 343.226 430.482 343.472C429.886 343.718 429.248 343.844 428.603 343.843Z" fill="#E4E4E4"/>
<path d="M428.603 363.217H278.264C276.963 363.217 275.716 362.701 274.797 361.781C273.877 360.862 273.36 359.614 273.36 358.314C273.36 357.014 273.877 355.766 274.797 354.847C275.716 353.927 276.963 353.411 278.264 353.411H428.603C429.904 353.411 431.151 353.927 432.071 354.847C432.99 355.766 433.507 357.014 433.507 358.314C433.507 359.614 432.99 360.862 432.071 361.781C431.151 362.701 429.904 363.217 428.603 363.217Z" fill="#E4E4E4"/>
<path d="M343.432 382.592H278.264C276.964 382.59 275.719 382.073 274.801 381.153C273.883 380.234 273.367 378.988 273.367 377.688C273.367 376.389 273.883 375.143 274.801 374.224C275.719 373.304 276.964 372.787 278.264 372.785H343.432C344.731 372.787 345.977 373.304 346.895 374.224C347.813 375.143 348.329 376.389 348.329 377.688C348.329 378.988 347.813 380.234 346.895 381.153C345.977 382.073 344.731 382.59 343.432 382.592Z" fill="#E4E4E4"/>
<path d="M631.076 236.53H520.406C517.44 236.526 514.596 235.347 512.499 233.249C510.402 231.152 509.222 228.309 509.219 225.343V78.8032C509.222 75.8373 510.402 72.9938 512.499 70.8965C514.596 68.7993 517.44 67.6196 520.406 67.6162H631.076C634.041 67.6196 636.885 68.7993 638.982 70.8965C641.079 72.9938 642.259 75.8373 642.263 78.8032V225.343C642.259 228.309 641.079 231.152 638.982 233.249C636.885 235.347 634.041 236.526 631.076 236.53Z" fill="#E6E6E6"/>
<path d="M590.05 227.706H528.185C525.419 227.702 522.767 226.602 520.812 224.646C518.856 222.691 517.756 220.039 517.752 217.273V86.873C517.756 84.107 518.856 81.4552 520.811 79.4993C522.767 77.5434 525.419 76.4431 528.185 76.4399H623.296C626.062 76.443 628.714 77.5432 630.67 79.4991C632.626 81.4551 633.726 84.107 633.729 86.873V184.026C633.716 195.607 629.11 206.709 620.921 214.898C612.733 223.086 601.63 227.693 590.05 227.706Z" fill="white"/>
<path d="M613.808 101.721H537.673C537.014 101.721 536.383 101.46 535.917 100.994C535.452 100.528 535.19 99.8969 535.19 99.2384C535.19 98.5798 535.452 97.9483 535.917 97.4826C536.383 97.017 537.014 96.7554 537.673 96.7554H613.808C614.467 96.7554 615.098 97.017 615.564 97.4826C616.03 97.9483 616.291 98.5798 616.291 99.2384C616.291 99.8969 616.03 100.528 615.564 100.994C615.098 101.46 614.467 101.721 613.808 101.721Z" fill="#E4E4E4"/>
<path d="M613.808 111.533H537.673C537.015 111.532 536.385 111.27 535.92 110.804C535.456 110.339 535.195 109.708 535.195 109.05C535.195 108.392 535.456 107.761 535.92 107.296C536.385 106.83 537.015 106.568 537.673 106.567H613.808C614.466 106.568 615.096 106.83 615.561 107.296C616.026 107.761 616.286 108.392 616.286 109.05C616.286 109.708 616.026 110.339 615.561 110.804C615.096 111.27 614.466 111.532 613.808 111.533Z" fill="#E4E4E4"/>
<path d="M570.676 121.345H537.673C537.015 121.343 536.385 121.081 535.92 120.616C535.456 120.15 535.195 119.519 535.195 118.862C535.195 118.204 535.456 117.573 535.92 117.107C536.385 116.642 537.015 116.38 537.673 116.378H570.676C571.334 116.38 571.964 116.642 572.428 117.107C572.893 117.573 573.154 118.204 573.154 118.862C573.154 119.519 572.893 120.15 572.428 120.616C571.964 121.081 571.334 121.343 570.676 121.345Z" fill="#E4E4E4"/>
<path d="M613.808 141.894H537.673C537.014 141.894 536.383 141.633 535.917 141.167C535.452 140.701 535.19 140.07 535.19 139.411C535.19 138.753 535.452 138.121 535.917 137.655C536.383 137.19 537.014 136.928 537.673 136.928H613.808C614.467 136.928 615.098 137.19 615.564 137.655C616.03 138.121 616.291 138.753 616.291 139.411C616.291 140.07 616.03 140.701 615.564 141.167C615.098 141.633 614.467 141.894 613.808 141.894Z" fill="#0096C7"/>
<path d="M593.808 151.706H537.673C537.015 151.706 536.383 151.444 535.917 150.978C535.452 150.513 535.19 149.881 535.19 149.222C535.19 148.564 535.452 147.932 535.917 147.467C536.383 147.001 537.015 146.739 537.673 146.739H593.808C594.467 146.739 595.099 147.001 595.564 147.467C596.03 147.932 596.292 148.564 596.292 149.222C596.292 149.881 596.03 150.513 595.564 150.978C595.099 151.444 594.467 151.706 593.808 151.706Z" fill="#0096C7"/>
<path d="M570.676 161.518H537.673C537.015 161.516 536.385 161.254 535.92 160.789C535.456 160.323 535.195 159.692 535.195 159.034C535.195 158.377 535.456 157.746 535.92 157.28C536.385 156.815 537.015 156.553 537.673 156.551H570.676C571.334 156.553 571.964 156.815 572.428 157.28C572.893 157.746 573.154 158.377 573.154 159.034C573.154 159.692 572.893 160.323 572.428 160.789C571.964 161.254 571.334 161.516 570.676 161.518Z" fill="#0096C7"/>
<path d="M613.808 182.067H537.673C537.014 182.067 536.383 181.805 535.917 181.339C535.452 180.874 535.19 180.242 535.19 179.584C535.19 178.925 535.452 178.294 535.917 177.828C536.383 177.362 537.014 177.101 537.673 177.101H613.808C614.467 177.101 615.098 177.362 615.564 177.828C616.03 178.294 616.291 178.925 616.291 179.584C616.291 180.242 616.03 180.874 615.564 181.339C615.098 181.805 614.467 182.067 613.808 182.067Z" fill="#E4E4E4"/>
<path d="M613.808 191.878H537.673C537.015 191.878 536.383 191.617 535.917 191.151C535.452 190.685 535.19 190.054 535.19 189.395C535.19 188.737 535.452 188.105 535.917 187.639C536.383 187.174 537.015 186.912 537.673 186.912H613.808C614.467 186.912 615.099 187.174 615.564 187.639C616.03 188.105 616.292 188.737 616.292 189.395C616.292 190.054 616.03 190.685 615.564 191.151C615.099 191.617 614.467 191.878 613.808 191.878Z" fill="#E4E4E4"/>
<path d="M570.676 201.69H537.673C537.015 201.689 536.385 201.426 535.92 200.961C535.456 200.495 535.195 199.864 535.195 199.207C535.195 198.549 535.456 197.918 535.92 197.453C536.385 196.987 537.015 196.725 537.673 196.724H570.676C571.334 196.725 571.964 196.987 572.428 197.453C572.893 197.918 573.154 198.549 573.154 199.207C573.154 199.864 572.893 200.495 572.428 200.961C571.964 201.426 571.334 201.689 570.676 201.69Z" fill="#E4E4E4"/>
<path d="M129.395 286.875C130.243 285.953 130.878 284.857 131.256 283.663C131.633 282.469 131.745 281.206 131.582 279.965C131.419 278.723 130.986 277.532 130.313 276.476C129.64 275.42 128.744 274.524 127.687 273.851L134.707 244.23L119.849 249.659L115.46 276.955C114.449 278.805 114.15 280.962 114.622 283.017C115.095 285.072 116.304 286.882 118.022 288.105C119.739 289.327 121.846 289.878 123.942 289.651C126.038 289.424 127.979 288.437 129.395 286.875Z" fill="#FFB8B8"/>
<path d="M165.127 162.748L159.164 178.082C159.164 178.082 161.719 193.416 157.46 196.823C153.2 200.231 154.904 200.231 154.904 202.786C154.757 204.619 154.227 206.401 153.346 208.015C152.465 209.63 151.255 211.041 149.793 212.157C146.385 214.712 131.052 266.677 131.052 266.677H115.718C116.213 262.717 116.213 258.71 115.718 254.75C114.866 248.787 118.274 233.454 119.977 230.898C121.681 228.342 119.977 224.935 119.977 219.824C119.977 214.712 123.385 212.157 123.385 203.638C123.385 195.119 133.607 128.673 132.755 121.006C131.904 113.339 141.274 106.524 141.274 106.524H149.793L165.127 162.748Z" fill="#0096C7"/>
<path d="M201.206 195.271L215.379 258.521L124.556 252.871L149.253 190.754L201.206 195.271Z" fill="#FFB8B8"/>
<path d="M3.23471 432.994C5.93835 442.769 10.1597 452.059 15.7447 460.524C28.2247 479.394 46.0847 493.824 65.7147 505.374C67.0747 506.184 68.4547 506.974 69.8347 507.754H83.6047L84.0847 506.654V506.644L84.6446 505.374L84.7147 505.224L84.7447 505.374L85.2947 507.754H92.0546C92.6145 506.964 93.1646 506.174 93.7046 505.374C94.4946 504.204 95.2546 503.024 95.9746 501.824C97.2455 499.725 98.3811 497.548 99.3745 495.304C99.4946 495.054 99.5946 494.804 99.6946 494.554L99.2446 494.064L101.114 485.884L97.3545 485.264L101.475 472.554C101.325 472.084 101.154 471.614 100.975 471.144C98.6645 465.294 94.3245 460.924 89.1745 457.254C83.8745 453.464 77.7045 450.424 72.0347 447.264C69.3745 445.774 66.7547 444.204 64.2046 442.544V442.534C60.9446 440.424 57.7812 438.167 54.7146 435.764C54.6622 435.731 54.6121 435.694 54.5646 435.654C54.5222 435.624 54.4821 435.59 54.4446 435.554C40.6964 424.813 29.0625 411.613 20.1345 396.624L20.1307 396.623L20.1274 396.621L20.1252 396.618L20.1245 396.614C19.8246 396.134 19.5447 395.654 19.2647 395.164V395.154C15.6085 388.866 12.4618 382.295 9.85466 375.504V375.494C9.65458 374.994 9.47466 374.494 9.28467 373.994C9.02466 374.434 8.77466 374.874 8.53467 375.314L8.5308 375.315L8.52752 375.317L8.52537 375.32L8.52466 375.324C-1.17533 392.674 -2.09537 413.574 3.23471 432.994Z" fill="#F0F0F0"/>
<path d="M8.52474 375.324C8.42761 384.583 9.39048 393.824 11.3946 402.864C12.2952 407.001 13.4169 411.087 14.7547 415.104C17.3517 422.963 20.746 430.536 24.8846 437.704C25.1146 438.094 25.3347 438.474 25.5747 438.854V438.864C27.3434 441.846 29.2626 444.737 31.3247 447.524C34.4454 451.964 38.3006 455.84 42.7247 458.984C46.3382 461.372 50.4246 462.951 54.7047 463.614C55.5047 463.764 56.3247 463.874 57.1547 463.974C60.4647 464.364 63.8847 464.514 67.1647 465.214C68.826 465.542 70.4436 466.062 71.9848 466.764C77.2648 469.214 80.2347 474.344 81.5347 479.824C81.7647 480.784 81.9446 481.754 82.0847 482.724C83.1747 490.174 81.9747 497.914 82.5947 505.374C82.6646 506.164 82.7547 506.964 82.8646 507.754H83.6047L84.0847 506.654V506.644C84.0347 506.224 83.9947 505.804 83.9547 505.374C83.7147 501.709 83.6846 498.033 83.8646 494.364C83.9046 492.714 83.9346 491.054 83.9146 489.394C83.8946 488.064 83.8447 486.734 83.7447 485.414V485.404C83.6746 484.584 83.5947 483.774 83.4847 482.964C83.1671 480.484 82.5561 478.05 81.6646 475.714C80.7947 473.307 79.4255 471.111 77.6469 469.27C75.8683 467.43 73.7206 465.986 71.3447 465.034C69.8933 464.49 68.3977 464.071 66.8746 463.784C63.5247 463.144 60.0647 462.984 56.6947 462.564C56.3347 462.524 55.9746 462.474 55.6246 462.414C55.1746 462.344 54.7347 462.264 54.2948 462.184C49.8854 461.401 45.7207 459.596 42.1346 456.914C37.873 453.54 34.1679 449.518 31.1546 444.994C29.5147 442.644 27.9546 440.244 26.5047 437.774C26.5047 437.773 26.5045 437.771 26.504 437.77C26.5035 437.769 26.5028 437.768 26.5018 437.767C26.5009 437.766 26.4998 437.765 26.4985 437.765C26.4973 437.764 26.496 437.764 26.4947 437.764C26.4246 437.644 26.3547 437.534 26.2847 437.414L26.2747 437.394C20.0551 426.765 15.5149 415.239 12.8146 403.224C12.7246 402.784 12.6245 402.344 12.5247 401.904C10.6687 393.229 9.77327 384.375 9.85469 375.504V375.494C9.85469 375.074 9.86457 374.664 9.87458 374.244C9.89458 373.384 8.56465 373.194 8.54475 374.054C8.53475 374.474 8.52475 374.894 8.53475 375.314C8.53343 375.314 8.53211 375.314 8.53088 375.315C8.52965 375.315 8.52853 375.316 8.5276 375.317C8.52666 375.318 8.52592 375.319 8.52543 375.32C8.52494 375.321 8.52471 375.323 8.52474 375.324Z" fill="white"/>
<path d="M26.1456 438.583C22.3351 440.519 17.9607 441.037 13.8035 440.045C9.64635 439.053 5.9772 436.615 3.45131 433.167C2.94262 432.468 4.00548 431.645 4.51485 432.345C6.86103 435.56 10.2791 437.83 14.1521 438.746C18.0251 439.662 22.098 439.163 25.6356 437.34C26.4048 436.944 26.9104 438.19 26.1456 438.583Z" fill="white"/>
<path d="M54.1665 462.582C56.9511 454.301 56.512 445.275 52.937 437.303C52.5822 436.514 53.8261 436.005 54.1806 436.793C57.8853 445.096 58.3231 454.49 55.4065 463.101C55.128 463.922 53.8895 463.399 54.1665 462.582Z" fill="white"/>
<path d="M12.1381 402.027C13.7686 401.585 15.2638 400.745 16.4895 399.583C17.7152 398.421 18.633 396.972 19.1605 395.367C19.4285 394.544 20.6668 395.068 20.4005 395.886C19.8094 397.656 18.7938 399.255 17.4425 400.542C16.0911 401.829 14.4451 402.766 12.6482 403.27C12.4828 403.332 12.3001 403.328 12.1373 403.26C11.9744 403.192 11.8436 403.065 11.7714 402.903C11.7047 402.738 11.7058 402.554 11.7745 402.39C11.8432 402.225 11.9738 402.095 12.1381 402.027Z" fill="white"/>
<path d="M64.2047 442.534V442.544C64.5148 449.685 65.4077 456.789 66.8746 463.784V463.794C66.9547 464.274 67.0647 464.744 67.1646 465.214C69.5782 476.033 72.9619 486.613 77.2747 496.824C78.4646 499.704 79.7113 502.554 81.0147 505.374C81.3746 506.174 81.7447 506.964 82.1246 507.754H83.6047L84.0847 506.654V506.644L84.6446 505.374L84.7147 505.224L84.7447 505.374L85.2947 507.754H99.5946L102.375 505.374L106.425 501.904L100.765 495.724L99.8346 494.704L99.6946 494.554L99.2446 494.064L101.114 485.884L97.3546 485.264L101.475 472.554L103.425 466.544L103.915 465.034L106.765 456.244L115.365 457.854L116.765 452.954C114.187 446.979 112.041 440.827 110.345 434.544C110.335 434.494 110.315 434.454 110.305 434.404C105.761 417.482 104.398 399.864 106.285 382.444V382.434C106.345 381.874 106.415 381.304 106.495 380.754V380.734C107.352 373.515 108.797 366.378 110.815 359.394C110.955 358.864 111.115 358.344 111.265 357.824C110.805 358.024 110.355 358.214 109.895 358.414L109.885 358.424H109.865C109.135 358.744 108.405 359.084 107.695 359.444C90.6348 367.734 78.0848 383.294 70.9548 401.234C70.9348 401.284 70.9148 401.324 70.8948 401.374C67.1744 410.779 64.9573 420.71 64.3248 430.804C64.085 434.71 64.0449 438.625 64.2047 442.534Z" fill="#F0F0F0"/>
<path d="M90.1548 507.754H91.7349C92.2349 506.944 92.7749 506.154 93.3149 505.374C94.1749 504.164 95.0616 502.981 95.9749 501.824C96.7649 500.824 97.5549 499.834 98.3449 498.844C99.1648 497.814 99.9749 496.784 100.765 495.724L99.8349 494.704C99.6849 494.904 99.5349 495.104 99.3748 495.304C96.8148 498.674 94.045 501.914 91.6748 505.374C91.1448 506.154 90.6348 506.944 90.1548 507.754Z" fill="white"/>
<path d="M111.596 358.383C111.336 358.713 111.066 359.053 110.816 359.393C108.866 361.923 107.023 364.533 105.286 367.223C102.194 371.969 99.4464 376.932 97.0665 382.073C96.8765 382.473 96.6865 382.883 96.5065 383.293C91.4136 394.526 88.0942 406.482 86.6665 418.733C86.6465 418.853 86.6365 418.963 86.6265 419.083C86.2965 421.943 86.0832 424.813 85.9865 427.693C85.6676 433.116 86.2041 438.556 87.5765 443.813C87.7765 444.503 87.9965 445.183 88.2365 445.843C88.8381 447.46 89.5914 449.017 90.4865 450.493C91.1296 451.57 91.8445 452.602 92.6265 453.583C93.0965 454.183 93.5865 454.773 94.1065 455.343C94.4065 455.673 94.7165 456.003 95.0265 456.333C95.2865 456.583 95.5365 456.843 95.7965 457.093C98.4965 459.713 101.476 462.143 103.916 465.033L103.426 466.543C101.076 463.563 98.0465 461.093 95.3165 458.493C93.6026 456.881 92.0426 455.114 90.6565 453.213C90.4765 452.953 90.2865 452.693 90.1165 452.423C89.1899 451.069 88.3899 449.633 87.7265 448.133C87.3865 447.383 87.0765 446.613 86.7965 445.813C85.1627 440.643 84.4188 435.232 84.5965 429.813C84.6287 426.341 84.8356 422.874 85.2165 419.423C85.2565 418.973 85.3065 418.533 85.3665 418.083C86.3805 409.869 88.2301 401.781 90.8865 393.943C94.2485 384 98.873 374.529 104.647 365.763C106.297 363.253 108.047 360.803 109.897 358.413C110.137 358.083 110.387 357.763 110.647 357.433C111.176 356.753 112.126 357.703 111.596 358.383Z" fill="white"/>
<path d="M85.8426 419.549C81.6348 418.8 77.8302 416.58 75.1083 413.285C72.3863 409.99 70.9242 405.835 70.9832 401.561C70.9872 401.387 71.0587 401.221 71.1826 401.099C71.3065 400.976 71.4732 400.906 71.6474 400.904C71.8217 400.902 71.99 400.968 72.1169 401.087C72.2437 401.207 72.3192 401.371 72.3275 401.545C72.2653 405.524 73.6276 409.395 76.1685 412.458C78.7095 415.521 82.2617 417.575 86.184 418.249C87.0362 418.397 86.6899 419.696 85.8426 419.549Z" fill="white"/>
<path d="M93.7662 455.582C100.975 450.646 106.059 443.175 108.004 434.658C108.196 433.814 109.496 434.156 109.304 434.999C107.264 443.859 101.957 451.623 94.4439 456.743C93.7275 457.23 93.0536 456.067 93.7662 455.582Z" fill="white"/>
<path d="M96.6678 381.928C98.2355 382.557 99.9349 382.787 101.613 382.597C103.292 382.407 104.897 381.803 106.284 380.839C106.994 380.343 107.667 381.506 106.962 382C105.424 383.057 103.651 383.722 101.797 383.936C99.9429 384.15 98.0647 383.907 96.3264 383.228C96.1571 383.178 96.0134 383.065 95.9244 382.912C95.8354 382.76 95.8077 382.579 95.8471 382.407C95.8931 382.235 96.0052 382.089 96.1589 381.999C96.3126 381.909 96.4954 381.884 96.6678 381.928Z" fill="white"/>
<path d="M186.082 487.193L196.284 487.192L201.138 447.841H186.08L186.082 487.193Z" fill="#FFB8B8"/>
<path d="M182.627 482.16L198.755 481.197V488.107L214.088 498.697C214.845 499.219 215.416 499.971 215.716 500.841C216.016 501.711 216.03 502.654 215.756 503.533C215.482 504.411 214.935 505.179 214.193 505.725C213.452 506.27 212.556 506.564 211.635 506.564H192.435L189.125 499.73L187.833 506.564H180.594L182.627 482.16Z" fill="#2F2E41"/>
<path d="M89.6572 482.117L99.6282 484.279L112.713 446.851L97.9982 443.66L89.6572 482.117Z" fill="#FFB8B8"/>
<path d="M87.3477 476.466L103.313 478.944L101.848 485.697L114.587 499.296C115.216 499.968 115.615 500.823 115.723 501.737C115.832 502.651 115.646 503.576 115.192 504.376C114.738 505.177 114.04 505.811 113.2 506.187C112.36 506.563 111.422 506.66 110.522 506.465L91.7584 502.395L89.9731 495.014L87.2613 501.419L80.1865 499.884L87.3477 476.466Z" fill="#2F2E41"/>
<path d="M17.8047 506.564C17.8042 506.72 17.8347 506.875 17.8943 507.02C17.954 507.165 18.0416 507.296 18.1522 507.407C18.2628 507.517 18.3942 507.605 18.5388 507.664C18.6834 507.724 18.8383 507.755 18.9948 507.754H299.285C299.6 507.754 299.903 507.629 300.126 507.406C300.349 507.182 300.475 506.88 300.475 506.564C300.475 506.248 300.349 505.946 300.126 505.723C299.903 505.499 299.6 505.374 299.285 505.374H18.9948C18.8383 505.374 18.6834 505.404 18.5388 505.464C18.3942 505.523 18.2628 505.611 18.1522 505.722C18.0416 505.832 17.954 505.964 17.8943 506.108C17.8347 506.253 17.8042 506.408 17.8047 506.564Z" fill="#CCCCCC"/>
<path d="M217.698 311.411C210.538 350.761 208.748 367.751 208.748 367.751C208.748 367.751 214.118 374.011 210.538 377.591C206.958 381.171 210.538 388.321 210.538 388.321L201.166 463.16L199.166 474.16L180.398 471.511L183.166 461.16L178.348 389.221C178.348 389.221 174.768 382.061 176.558 380.271C178.348 378.481 174.768 367.751 174.768 367.751L170.298 282.791L142.568 375.801C142.568 375.801 145.258 379.381 142.568 382.061C139.888 384.741 134.528 398.161 134.528 398.161L114.166 452.16L110.166 460.16L108.038 459.151L98.6776 457.391L96.9576 457.071L93.8976 456.491L91.9276 456.121L91.2576 456.001L88.0176 455.391L88.9976 451.041L96.1658 440.16L103.458 386.791L103.778 385.361L104.118 383.851C104.118 383.851 102.328 379.381 105.007 376.691C105.792 375.872 106.364 374.873 106.676 373.783C106.988 372.692 107.03 371.542 106.797 370.431C106.71 370.338 106.629 370.237 106.557 370.131C106.241 369.697 106.023 369.199 105.917 368.671C105.677 367.551 105.887 365.981 107.697 364.171C108.207 363.63 108.635 363.017 108.967 362.351C111.687 357.201 113.057 346.291 113.057 346.291C113.057 346.291 115.477 259.881 123.397 246.681C123.817 245.991 132.225 232.745 132.665 232.475C141.605 227.115 211.379 233.518 211.379 233.518C211.379 233.518 215.598 244.851 215.788 246.031C216.818 252.661 223.768 278.031 217.698 311.411Z" fill="#2F2E41"/>
<path d="M290.102 119.299C289.945 120.542 289.518 121.734 288.85 122.794C288.182 123.853 287.29 124.753 286.237 125.43C285.183 126.108 283.994 126.546 282.753 126.714C281.512 126.882 280.249 126.776 279.054 126.403L260.966 150.888L255.519 136.037L273.53 115.062C274.289 113.095 275.744 111.475 277.618 110.509C279.492 109.543 281.655 109.297 283.698 109.82C285.741 110.342 287.521 111.595 288.701 113.343C289.882 115.09 290.38 117.209 290.102 119.299Z" fill="#FFB8B8"/>
<path d="M125.06 223.014C123.402 223.014 122.46 222.689 122.095 221.992C121.56 220.968 122.489 219.631 123.564 218.082C124.362 217.071 124.991 215.938 125.427 214.726C126.071 212.154 130.411 147.179 127.815 134.197C127.214 131.193 127.731 127.342 129.351 122.752C133.775 110.217 139.814 106.365 151.845 98.6909C152.821 98.0678 153.838 97.4171 154.896 96.7387C156.263 95.8598 156.187 92.9457 156.107 89.8598C156.017 86.4302 155.925 82.8833 157.605 80.6665L157.714 80.5219L157.89 80.4809C161.954 79.5415 175.623 77.7973 183.717 80.4936L183.829 80.5317L183.913 80.6147C185.836 82.5376 186.011 86.2622 186.18 89.8637C186.319 92.8207 186.45 95.6127 187.538 96.8256C195.855 106.096 205.288 105.915 205.383 105.914L205.851 105.9L205.897 106.365C209.515 143.163 215.347 198.703 216.586 200.888C216.651 200.988 216.687 201.104 216.691 201.223C216.694 201.342 216.665 201.46 216.607 201.564C214.787 204.963 131.31 223.014 125.06 223.014Z" fill="#0096C7"/>
<path d="M179.384 70.0647C193.007 70.0647 204.051 59.0208 204.051 45.3974C204.051 31.7739 193.007 20.73 179.384 20.73C165.76 20.73 154.716 31.7739 154.716 45.3974C154.716 59.0208 165.76 70.0647 179.384 70.0647Z" fill="#FFB8B8"/>
<path d="M195.865 90.4882C194.695 88.8185 188.765 68.4208 186.166 62.1598C185.9 63.5053 182.92 68.7222 182.85 70.1105L182.825 70.6248L182.314 70.691C181.546 70.789 163.403 72.9911 153.962 62.285C148.368 55.9433 147.099 46.4312 150.186 34.0071C149.624 33.8969 149.086 33.6897 148.596 33.3948C147.78 32.8297 147.096 32.0933 146.594 31.237C146.091 30.3807 145.781 29.425 145.686 28.4366L145.163 28.5768C142.501 29.295 139.498 30.2453 137.559 32.439C135.399 34.8787 135.015 38.1936 134.607 41.7028C134.448 43.3781 134.184 45.0417 133.816 46.6838C132.5 51.9908 128.797 56.9616 122.809 61.4585C116.78 65.986 110.633 68.576 104.538 69.1553C97.3403 69.8422 90.3984 67.4771 85.9749 62.8341C81.042 57.6576 79.7518 49.6931 82.9061 43.897L83.4137 42.9635L83.9713 43.8681C86.7791 48.4251 92.9145 50.8865 98.8928 49.8519C104.019 48.9653 109.1 45.7105 113.201 40.6874C116.945 36.1021 119.527 30.6868 122.025 25.4495C124.565 20.1244 127.191 14.6177 130.974 9.9452C135.241 4.67484 140.566 1.23303 145.969 0.25259C149.903 -0.45841 153.414 0.347602 155.602 2.46853C157.149 4.06226 158.064 6.16261 158.18 8.38009C159.526 8.07938 160.929 8.16 162.231 8.61288C163.487 9.12393 164.582 9.96532 165.398 11.0479C166.215 12.1305 166.724 13.4139 166.87 14.762C174.798 10.5924 185.289 11.2709 190.715 14.3993C192.987 15.7094 194.292 17.3593 194.523 19.1999C200.932 19.5578 207.825 25.8008 207.825 34.6459V35.2619H207.21C202.137 35.2619 197.506 38.1791 194.822 43.0652C193.246 45.9126 192.465 49.1321 192.563 52.3852C192.661 55.6383 193.634 58.8049 195.379 61.5523C197.278 64.4665 198.574 67.7311 199.192 71.1541C199.81 74.577 199.736 78.089 198.976 81.4831L196.661 91.625L195.865 90.4882Z" fill="#2F2E41"/>
<path d="M224.181 182.742L207.921 173.595C179.566 153.942 172.582 138.334 171.709 128.698C170.777 118.415 176.255 112.791 176.489 112.558L176.616 112.465L191.274 104.976C193.135 104.025 195.178 103.48 197.266 103.378C199.355 103.277 201.441 103.62 203.386 104.385C205.332 105.151 207.093 106.321 208.552 107.819C210.011 109.316 211.135 111.107 211.849 113.072L225.407 150.36L240.439 139.273L246.85 136.747L252.023 129.83L266.23 121.543L276.784 131.042L263.511 157.587L256.137 159.465L254.573 163.494L254.434 163.582L224.181 182.742Z" fill="#0096C7"/>
</g>
<defs>
<clipPath id="clip0_127_297">
<rect width="785.166" height="507.754" fill="white"/>
</clipPath>
</defs>
</svg>
