<svg width="907" height="587" viewBox="0 0 907 587" fill="none" xmlns="http://www.w3.org/2000/svg">
<g clip-path="url(#clip0_127_458)">
<path d="M818.141 242.155H285.999C283.739 242.155 281.573 243.494 279.975 245.878C278.377 248.261 277.479 251.494 277.479 254.865C277.479 258.236 278.377 261.469 279.975 263.852C281.573 266.236 283.739 267.575 285.999 267.575H301.072V571.641C301.072 575.012 301.97 578.245 303.567 580.629C305.165 583.012 307.332 584.351 309.592 584.351C311.851 584.351 314.018 583.012 315.616 580.629C317.213 578.245 318.111 575.012 318.111 571.641L318.241 267.575H745.338L784.718 571.641C784.718 575.012 785.616 578.245 787.213 580.629C788.811 583.012 790.978 584.351 793.238 584.351C795.497 584.351 797.664 583.012 799.262 580.629C800.859 578.245 801.757 575.012 801.757 571.641L804.236 267.575H818.141C820.4 267.575 822.567 266.236 824.165 263.852C825.763 261.469 826.66 258.236 826.66 254.865C826.66 251.494 825.763 248.261 824.165 245.878C822.567 243.494 820.4 242.155 818.141 242.155Z" fill="#CCCCCC"/>
<path d="M378.239 185.52V239.344H287.85C285.481 239.467 283.119 238.893 280.899 237.654C278.679 236.415 276.644 234.536 274.911 232.124C273.178 229.712 271.78 226.814 270.797 223.596C269.814 220.378 269.266 216.903 269.184 213.368C269.101 209.834 269.486 206.311 270.317 202.998C271.147 199.686 272.407 196.651 274.023 194.065C275.64 191.479 277.583 189.393 279.74 187.927C281.897 186.461 284.226 185.643 286.595 185.52C287.013 185.498 287.432 185.498 287.85 185.52L378.239 185.52Z" fill="#F2F2F2"/>
<path d="M380.459 238.93C380.459 239.479 380.313 240.005 380.053 240.394C379.792 240.782 379.44 241 379.072 241H286.241C281.201 240.995 276.369 238.004 272.807 232.686C269.245 227.368 267.244 220.157 267.244 212.639C267.244 205.121 269.245 197.91 272.807 192.592C276.369 187.273 281.201 184.283 286.241 184.278H379.072C379.254 184.277 379.435 184.33 379.604 184.434C379.772 184.538 379.926 184.69 380.055 184.882C380.184 185.075 380.287 185.303 380.357 185.555C380.427 185.806 380.463 186.076 380.463 186.348C380.463 186.62 380.427 186.89 380.357 187.141C380.287 187.393 380.184 187.621 380.055 187.814C379.926 188.006 379.772 188.158 379.604 188.262C379.435 188.366 379.254 188.419 379.072 188.418H286.241C281.939 188.428 277.816 190.984 274.777 195.525C271.737 200.066 270.03 206.222 270.03 212.639C270.03 219.056 271.737 225.212 274.777 229.753C277.816 234.294 281.939 236.85 286.241 236.86H379.072C379.44 236.86 379.792 237.078 380.053 237.466C380.313 237.855 380.459 238.381 380.459 238.93Z" fill="#0096C7"/>
<path d="M378.239 197.941H281.106C281.033 197.942 280.962 197.899 280.91 197.822C280.858 197.745 280.828 197.641 280.827 197.531C280.826 197.422 280.855 197.316 280.906 197.238C280.958 197.159 281.028 197.115 281.101 197.113H378.239C378.312 197.114 378.382 197.158 378.433 197.236C378.485 197.314 378.513 197.418 378.513 197.527C378.513 197.636 378.485 197.741 378.433 197.819C378.382 197.896 378.312 197.94 378.239 197.941Z" fill="#CCCCCC"/>
<path d="M378.239 207.878H281.106C281.033 207.878 280.962 207.836 280.91 207.759C280.858 207.682 280.828 207.577 280.827 207.468C280.826 207.358 280.855 207.253 280.906 207.174C280.958 207.096 281.028 207.051 281.101 207.05H378.239C378.312 207.051 378.382 207.095 378.433 207.173C378.485 207.25 378.513 207.355 378.513 207.464C378.513 207.573 378.485 207.678 378.433 207.755C378.382 207.833 378.312 207.877 378.239 207.878Z" fill="#CCCCCC"/>
<path d="M378.239 217.815H281.106C281.033 217.815 280.962 217.773 280.91 217.696C280.858 217.619 280.828 217.514 280.827 217.405C280.826 217.295 280.855 217.19 280.906 217.111C280.958 217.033 281.028 216.988 281.101 216.987H378.239C378.312 216.988 378.382 217.032 378.433 217.11C378.485 217.187 378.513 217.292 378.513 217.401C378.513 217.51 378.485 217.615 378.433 217.692C378.382 217.77 378.312 217.814 378.239 217.815Z" fill="#CCCCCC"/>
<path d="M378.239 227.751H281.106C281.033 227.752 280.962 227.709 280.91 227.632C280.858 227.555 280.828 227.451 280.827 227.341C280.826 227.232 280.855 227.126 280.906 227.048C280.958 226.97 281.028 226.925 281.101 226.923H378.239C378.312 226.924 378.382 226.969 378.433 227.046C378.485 227.124 378.513 227.228 378.513 227.337C378.513 227.446 378.485 227.551 378.433 227.629C378.382 227.706 378.312 227.75 378.239 227.751Z" fill="#CCCCCC"/>
<path d="M361.2 128.813V182.637H270.811C266.027 182.886 261.373 180.288 257.872 175.417C254.371 170.546 252.311 163.799 252.145 156.661C251.978 149.524 253.719 142.58 256.984 137.358C260.25 132.135 264.772 129.061 269.556 128.813C269.974 128.791 270.393 128.791 270.811 128.813H361.2Z" fill="#F2F2F2"/>
<path d="M363.42 182.223C363.42 182.772 363.274 183.299 363.014 183.687C362.753 184.075 362.4 184.293 362.033 184.294H269.202C264.16 184.294 259.324 181.306 255.759 175.987C252.194 170.668 250.191 163.454 250.191 155.932C250.191 148.411 252.194 141.197 255.759 135.878C259.324 130.559 264.16 127.571 269.202 127.571H362.033C362.215 127.571 362.395 127.625 362.564 127.729C362.732 127.833 362.885 127.985 363.014 128.178C363.143 128.37 363.245 128.598 363.315 128.849C363.384 129.1 363.42 129.37 363.42 129.641C363.42 129.913 363.384 130.182 363.315 130.434C363.245 130.685 363.143 130.913 363.014 131.105C362.885 131.297 362.732 131.45 362.564 131.554C362.395 131.658 362.215 131.712 362.033 131.712H269.202C264.896 131.712 260.766 134.263 257.722 138.806C254.677 143.348 252.967 149.509 252.967 155.932C252.967 162.356 254.677 168.517 257.722 173.059C260.766 177.601 264.896 180.153 269.202 180.153H362.033C362.4 180.153 362.753 180.372 363.014 180.76C363.274 181.148 363.42 181.674 363.42 182.223Z" fill="#3F3D56"/>
<path d="M361.2 141.234H264.067C263.994 141.235 263.923 141.192 263.871 141.115C263.819 141.038 263.789 140.934 263.788 140.824C263.787 140.715 263.816 140.609 263.867 140.531C263.919 140.452 263.989 140.408 264.062 140.406H361.2C361.273 140.407 361.343 140.451 361.394 140.529C361.445 140.606 361.474 140.711 361.474 140.82C361.474 140.929 361.445 141.034 361.394 141.112C361.343 141.189 361.273 141.233 361.2 141.234Z" fill="#CCCCCC"/>
<path d="M361.2 151.171H264.067C263.994 151.171 263.923 151.129 263.871 151.052C263.819 150.975 263.789 150.87 263.788 150.761C263.787 150.651 263.816 150.546 263.867 150.467C263.919 150.389 263.989 150.344 264.062 150.343H361.2C361.273 150.344 361.343 150.388 361.394 150.466C361.445 150.543 361.474 150.648 361.474 150.757C361.474 150.866 361.445 150.971 361.394 151.048C361.343 151.126 361.273 151.17 361.2 151.171Z" fill="#CCCCCC"/>
<path d="M361.2 161.108H264.067C263.994 161.108 263.923 161.066 263.871 160.989C263.819 160.912 263.789 160.807 263.788 160.698C263.787 160.588 263.816 160.483 263.867 160.404C263.919 160.326 263.989 160.281 264.062 160.28H361.2C361.273 160.281 361.343 160.325 361.394 160.402C361.445 160.48 361.474 160.585 361.474 160.694C361.474 160.803 361.445 160.908 361.394 160.985C361.343 161.063 361.273 161.107 361.2 161.108Z" fill="#CCCCCC"/>
<path d="M361.2 171.044H264.067C263.994 171.045 263.923 171.002 263.871 170.925C263.819 170.848 263.789 170.744 263.788 170.634C263.787 170.525 263.816 170.419 263.867 170.341C263.919 170.263 263.989 170.218 264.062 170.216H361.2C361.273 170.217 361.343 170.261 361.394 170.339C361.445 170.417 361.474 170.521 361.474 170.63C361.474 170.739 361.445 170.844 361.394 170.922C361.343 170.999 361.273 171.043 361.2 171.044Z" fill="#CCCCCC"/>
<path d="M466.349 432.615V385.685C466.349 383.611 465.797 381.622 464.813 380.155C463.83 378.688 462.497 377.864 461.106 377.864H341.833C340.443 377.864 339.109 378.688 338.126 380.155C337.143 381.622 336.59 383.611 336.59 385.685V432.615H466.349Z" fill="#CCCCCC"/>
<path d="M466.349 450.214H336.59V510.832H466.349V450.214Z" fill="#CCCCCC"/>
<path d="M336.59 528.43V575.36C336.59 577.434 337.143 579.424 338.126 580.891C339.109 582.358 340.443 583.182 341.833 583.182H461.106C462.497 583.182 463.83 582.358 464.813 580.891C465.797 579.424 466.349 577.434 466.349 575.36V528.43H336.59Z" fill="#CCCCCC"/>
<path d="M400.814 413.061C402.986 413.061 404.746 410.435 404.746 407.195C404.746 403.955 402.986 401.329 400.814 401.329C398.643 401.329 396.882 403.955 396.882 407.195C396.882 410.435 398.643 413.061 400.814 413.061Z" fill="white"/>
<path d="M400.814 491.277C402.986 491.277 404.746 488.651 404.746 485.411C404.746 482.171 402.986 479.545 400.814 479.545C398.643 479.545 396.882 482.171 396.882 485.411C396.882 488.651 398.643 491.277 400.814 491.277Z" fill="white"/>
<path d="M401.025 567.837C403.196 567.837 404.957 565.211 404.957 561.971C404.957 558.731 403.196 556.105 401.025 556.105C398.853 556.105 397.093 558.731 397.093 561.971C397.093 565.211 398.853 567.837 401.025 567.837Z" fill="white"/>
<path d="M451.637 324.354V378.178H361.249C356.467 378.422 351.816 375.822 348.318 370.951C344.82 366.08 342.761 359.337 342.595 352.203C342.428 345.068 344.167 338.128 347.43 332.905C350.692 327.683 355.211 324.608 359.993 324.354C360.411 324.332 360.83 324.332 361.249 324.354H451.637Z" fill="#F2F2F2"/>
<path d="M453.858 377.764C453.858 378.313 453.712 378.84 453.451 379.228C453.191 379.616 452.838 379.834 452.47 379.835H359.639C354.599 379.836 349.764 376.852 346.198 371.536C342.632 366.221 340.628 359.011 340.625 351.49C340.621 343.97 342.621 336.756 346.182 331.435C349.744 326.113 354.576 323.119 359.617 323.112H452.47C452.653 323.112 452.834 323.165 453.002 323.268C453.171 323.372 453.325 323.524 453.454 323.717C453.583 323.909 453.686 324.138 453.756 324.389C453.826 324.641 453.862 324.91 453.862 325.182C453.862 325.455 453.826 325.724 453.756 325.976C453.686 326.227 453.583 326.456 453.454 326.648C453.325 326.84 453.171 326.993 453.002 327.097C452.834 327.2 452.653 327.253 452.47 327.253H359.639C355.337 327.261 351.213 329.817 348.173 334.358C345.133 338.899 343.426 345.055 343.426 351.473C343.426 357.892 345.133 364.048 348.173 368.589C351.213 373.13 355.337 375.686 359.639 375.694H452.47C452.838 375.694 453.191 375.913 453.451 376.301C453.712 376.689 453.858 377.215 453.858 377.764Z" fill="#3F3D56"/>
<path d="M451.637 336.775H354.505C354.432 336.776 354.361 336.733 354.309 336.656C354.256 336.579 354.227 336.475 354.226 336.365C354.225 336.256 354.254 336.15 354.305 336.072C354.357 335.993 354.427 335.949 354.5 335.947H451.638C451.711 335.948 451.781 335.992 451.832 336.07C451.883 336.148 451.912 336.252 451.912 336.361C451.912 336.47 451.883 336.575 451.832 336.653C451.781 336.73 451.711 336.774 451.637 336.775Z" fill="#CCCCCC"/>
<path d="M451.637 346.712H354.505C354.432 346.712 354.361 346.67 354.309 346.593C354.256 346.516 354.227 346.411 354.226 346.302C354.225 346.192 354.254 346.087 354.305 346.008C354.357 345.93 354.427 345.885 354.5 345.884H451.638C451.711 345.885 451.781 345.929 451.832 346.007C451.883 346.084 451.912 346.189 451.912 346.298C451.912 346.407 451.883 346.512 451.832 346.589C451.781 346.667 451.711 346.711 451.637 346.712Z" fill="#CCCCCC"/>
<path d="M451.637 356.649H354.505C354.432 356.649 354.361 356.607 354.309 356.53C354.256 356.453 354.227 356.348 354.226 356.239C354.225 356.129 354.254 356.024 354.305 355.945C354.357 355.867 354.427 355.822 354.5 355.821H451.638C451.711 355.822 451.781 355.866 451.832 355.944C451.883 356.021 451.912 356.126 451.912 356.235C451.912 356.344 451.883 356.449 451.832 356.526C451.781 356.604 451.711 356.648 451.637 356.649Z" fill="#CCCCCC"/>
<path d="M451.637 366.585H354.505C354.432 366.586 354.361 366.543 354.309 366.466C354.256 366.389 354.227 366.285 354.226 366.175C354.225 366.066 354.254 365.96 354.305 365.882C354.357 365.804 354.427 365.759 354.5 365.757H451.638C451.711 365.758 451.781 365.803 451.832 365.88C451.883 365.958 451.912 366.062 451.912 366.171C451.912 366.28 451.883 366.385 451.832 366.463C451.781 366.54 451.711 366.584 451.637 366.585Z" fill="#CCCCCC"/>
<path d="M345.481 110.858H304.299C303.908 110.857 303.523 110.991 303.172 111.249L292.778 119.012C292.436 119.229 292.144 119.591 291.939 120.054C291.734 120.516 291.625 121.058 291.625 121.613C291.625 122.167 291.734 122.709 291.939 123.172C292.144 123.634 292.436 123.996 292.778 124.213L303.172 131.976C303.523 132.234 303.908 132.368 304.299 132.367H345.481C346.049 132.416 346.606 132.13 347.033 131.57C347.46 131.01 347.722 130.221 347.762 129.376V113.85C347.722 113.004 347.46 112.215 347.033 111.655C346.606 111.095 346.049 110.809 345.481 110.858Z" fill="#3F3D56"/>
<path d="M347.762 113.85V129.376C347.722 130.222 347.46 131.01 347.033 131.57C346.606 132.13 346.049 132.416 345.481 132.367H337.276V110.858H345.481C346.049 110.809 346.606 111.095 347.033 111.655C347.46 112.215 347.722 113.004 347.762 113.85Z" fill="#0096C7"/>
<path d="M98.5829 415.081C103.886 417.862 109.579 418.558 115.115 417.104C120.65 415.649 125.842 412.092 130.188 406.775C141.258 392.914 144.729 370.077 147.553 348.931C150.337 328.083 153.121 307.235 155.906 286.387L138.418 304.351C125.842 317.27 112.983 330.603 104.275 349.315C95.5674 368.027 91.7665 393.571 98.7628 413.819" fill="#E6E6E6"/>
<path d="M100.078 490.805C98.3079 471.57 96.4879 452.089 97.7295 432.648C98.8321 415.383 102.363 398.52 109.551 384.693C113.366 377.368 118.009 371.091 123.27 366.146C124.642 364.854 125.904 368.098 124.539 369.384C115.435 377.967 108.394 390.642 104.431 405.58C100.053 422.192 99.35 440.3 100.104 457.946C100.561 468.618 101.527 479.22 102.502 489.808C102.579 490.286 102.531 490.791 102.368 491.219C102.205 491.647 101.939 491.967 101.624 492.114C101.303 492.243 100.96 492.178 100.671 491.933C100.381 491.688 100.168 491.282 100.078 490.805Z" fill="#F2F2F2"/>
<path d="M117.126 456.769C119.4 461.925 122.526 466.122 126.203 468.953C129.88 471.784 133.984 473.155 138.118 472.933C148.745 472.18 157.605 461.115 165.58 450.61L189.168 419.539L173.557 418.424C162.329 417.622 150.813 416.875 140.119 422.04C129.426 427.205 119.564 439.636 117.609 456.149" fill="#E6E6E6"/>
<path d="M95.0756 501.861C103.595 479.372 113.476 454.378 131.133 446.39C136.042 444.176 141.19 443.383 146.299 444.054C147.909 444.261 147.507 447.964 145.9 447.757C137.336 446.696 128.789 450.07 121.697 457.31C114.873 464.24 109.559 473.875 105.062 484.092C102.307 490.35 99.8397 496.874 97.3717 503.389C96.583 505.471 94.2777 503.968 95.0756 501.861Z" fill="#F2F2F2"/>
<path d="M81.4258 525.533C81.7128 520.571 82.9069 515.821 84.8782 511.802C86.8494 507.782 89.5221 504.647 92.6052 502.737V489.735H107.222V503.146C110.153 505.15 112.676 508.278 114.533 512.211C116.39 516.143 117.514 520.74 117.792 525.533L121.229 585.137H77.9888L81.4258 525.533Z" fill="#F2F2F2"/>
<path d="M578.505 240.933L574.157 238.201L571.174 205.682H531.452L528.219 238.068L524.329 240.97C524.143 241.109 523.994 241.338 523.905 241.619C523.817 241.9 523.795 242.217 523.843 242.52C523.891 242.822 524.006 243.091 524.169 243.284C524.332 243.476 524.534 243.581 524.742 243.581H578.146C578.36 243.581 578.566 243.471 578.731 243.269C578.896 243.068 579.01 242.788 579.052 242.476C579.094 242.164 579.063 241.84 578.963 241.559C578.863 241.277 578.701 241.056 578.505 240.933Z" fill="#E6E6E6"/>
<path d="M649.093 210.009H453.969C452.946 210.005 451.965 209.396 451.241 208.315C450.518 207.234 450.112 205.769 450.112 204.242V163.192H652.95V204.242C652.95 205.769 652.544 207.234 651.82 208.315C651.097 209.396 650.116 210.005 649.093 210.009Z" fill="#CCCCCC"/>
<path d="M653.154 182.593H449.935V6.95231C449.936 5.10905 450.427 3.34191 451.301 2.03855C452.175 0.7352 453.359 0.00206248 454.595 0H648.494C649.729 0.00206245 650.914 0.735202 651.787 2.03855C652.661 3.34191 653.153 5.10905 653.154 6.95231L653.154 182.593Z" fill="#3F3D56"/>
<path d="M641.017 169.845H462.072C461.12 169.844 460.206 169.278 459.533 168.274C458.859 167.269 458.481 165.906 458.479 164.485V18.1076C458.481 16.6866 458.859 15.3242 459.533 14.3193C460.206 13.3144 461.12 12.7492 462.072 12.7476H641.017C641.969 12.7492 642.882 13.3144 643.556 14.3193C644.229 15.3242 644.608 16.6866 644.609 18.1076V164.485C644.608 165.906 644.229 167.269 643.556 168.274C642.882 169.278 641.969 169.844 641.017 169.845Z" fill="white"/>
<path d="M593.885 221.495C595.041 219.903 596.416 218.708 597.914 217.995C599.413 217.281 600.997 217.067 602.557 217.366C604.117 217.665 605.614 218.471 606.943 219.727C608.271 220.983 609.399 222.658 610.247 224.634L634.451 218.214L640.654 239.207L606.387 247.557C604.067 249.461 601.359 250.03 598.777 249.155C596.195 248.28 593.918 246.023 592.377 242.81C590.836 239.598 590.138 235.653 590.416 231.725C590.694 227.796 591.929 224.156 593.885 221.495Z" fill="#FFB6B6"/>
<path d="M616.295 248.299L641.528 247.83L644.723 247.765L696.061 246.8C696.061 246.8 710.003 226.958 722.142 206.528L720.441 188.168C718.781 170.149 712.789 153.643 703.581 141.722C686.195 159.054 676.112 193.362 676.112 193.362L644.28 204.72L641.095 205.856L621.317 212.908L616.295 248.299Z" fill="#0096C7"/>
<path d="M745.468 361.151H698.366C698.366 364.162 646.878 366.605 646.878 366.605C645.742 367.881 644.707 369.345 643.793 370.969C641.044 375.86 639.542 382.042 639.551 388.424V392.788C639.553 400.02 641.479 406.955 644.907 412.07C648.335 417.184 652.984 420.058 657.832 420.061H745.468C750.315 420.054 754.963 417.179 758.39 412.066C761.817 406.952 763.745 400.019 763.749 392.788V388.424C763.742 381.194 761.814 374.263 758.387 369.15C754.96 364.038 750.314 361.161 745.468 361.151Z" fill="#E4E4E4"/>
<path d="M711.215 418.977H692.203V582.695H711.215V418.977Z" fill="#E4E4E4"/>
<path d="M638.092 581.699C638.092 584.763 666.902 582.884 702.44 582.884C737.979 582.884 766.789 584.763 766.789 581.699C766.789 578.634 737.979 554.331 702.44 554.331C666.902 554.331 638.092 578.634 638.092 581.699Z" fill="#E4E4E4"/>
<path d="M625.321 562.992L611.172 562.991L604.44 481.568L625.323 481.569L625.321 562.992Z" fill="#FFB6B6"/>
<path d="M628.93 583.454L583.306 583.451V582.59C583.306 575.564 585.177 568.826 588.507 563.858C591.838 558.889 596.354 556.098 601.064 556.098H601.065L628.931 556.099L628.93 583.454Z" fill="#2F2E41"/>
<path d="M583.501 562.992L569.351 562.991L562.62 481.568L583.503 481.569L583.501 562.992Z" fill="#FFB6B6"/>
<path d="M587.109 583.454L541.485 583.451V582.59C541.486 575.564 543.357 568.826 546.687 563.858C550.017 558.889 554.534 556.098 559.244 556.098H559.245L587.11 556.099L587.109 583.454Z" fill="#2F2E41"/>
<path d="M710.25 94.2326C723.837 94.2326 734.852 77.7998 734.852 57.5289C734.852 37.258 723.837 20.8252 710.25 20.8252C696.662 20.8252 685.647 37.258 685.647 57.5289C685.647 77.7998 696.662 94.2326 710.25 94.2326Z" fill="#FFB6B6"/>
<path d="M750.068 309.009C750.068 309.009 758.323 374.129 726.915 382.422C695.507 390.715 650.168 396.543 650.168 396.543L629.808 538.26L602.455 534.617C602.455 534.617 606.093 364.021 615.039 350.674C623.985 337.328 680.529 297.364 680.529 297.364L750.068 309.009Z" fill="#2F2E41"/>
<path d="M688.726 281.716L674.989 302.275C674.989 302.275 575.804 326.109 571.978 360.286C566.201 411.885 559.378 524.09 559.378 524.09L589.199 520.753L600.893 393.206L648.606 377.014L702.891 332.879L688.726 281.716Z" fill="#2F2E41"/>
<path d="M733.923 35.6199C731.494 28.7839 728.409 15.1598 723.507 12.633C720.785 11.2864 717.971 10.3922 715.117 9.9667L706.786 14.7475L711.32 9.48598C710.437 9.40751 709.555 9.34335 708.673 9.29353L703.052 12.5192L705.928 9.18192C700.687 9.10167 695.277 9.91466 691.216 14.6745C687.754 18.7322 684.324 34.1038 683.769 40.6195C683.177 46.8528 683.384 53.1973 684.381 59.3148L685.805 61.3344C686.303 59.6308 686.677 57.8527 686.921 56.0303C687.432 52.6251 688.412 49.416 689.8 46.6073C691.188 43.7987 692.952 41.4521 694.981 39.7172L695.059 39.652C697.447 37.6472 700.344 37.7396 703.082 37.8866L716.087 38.5848C719.215 38.7527 722.585 39.0481 725.024 41.9761C726.574 44.136 727.793 46.7704 728.597 49.6988C729.809 53.3485 732.178 67.1141 732.178 67.1141C732.178 67.1141 733.518 64.5157 734.16 66.4497C735.19 61.4037 735.816 56.1937 736.026 50.9282C736.231 45.6393 735.506 40.3623 733.923 35.6199Z" fill="#2F2E41"/>
<path d="M819.971 73.6476C818.401 73.8017 816.874 74.4674 815.496 75.5976C814.117 76.7279 812.922 78.2952 811.994 80.1893C811.065 82.0833 810.427 84.258 810.123 86.5601C809.819 88.8622 809.857 91.2358 810.234 93.5136L790.45 115.285L796.386 136.449L824.035 105.117C826.558 103.918 828.699 101.379 830.051 97.9829C831.403 94.5865 831.873 90.568 831.372 86.689C830.871 82.8099 829.434 79.3398 827.333 76.9362C825.231 74.5326 822.612 73.3625 819.971 73.6476Z" fill="#FFB6B6"/>
<path d="M816.786 118.095L767.19 200.271C767.19 200.271 743.473 188.944 725.13 176.663L716.889 138.904C714.976 130.144 714.159 120.934 714.48 111.733C739.909 101.639 769.485 139.2 769.485 139.2L806.61 95.8159L816.786 118.095Z" fill="#0096C7"/>
<path d="M701.06 315.078C692.212 310.518 683.062 305.803 673.193 304.033L672.77 303.956L672.887 303.344C683.103 249.83 680.553 215.597 675.546 164.174C674.482 153.083 675.85 141.775 679.447 131.938C683.043 122.102 688.676 114.264 695.503 109.595L695.564 109.554L723.75 106.882L723.815 106.876L744.314 115.871C747.263 117.175 749.844 119.885 751.662 123.586C753.48 127.287 754.434 131.776 754.379 136.363C754.157 153.275 754.628 172.156 755.127 192.145C756.245 236.989 757.402 283.36 750.838 313.447L750.804 313.605L750.716 313.707C744.682 321.039 737.122 325.001 729.34 324.909C720.139 324.909 710.749 320.071 701.06 315.078Z" fill="#0096C7"/>
<path d="M905.689 587H1.3107C0.963079 587 0.629702 586.794 0.383899 586.427C0.138097 586.061 0 585.563 0 585.045C0 584.526 0.138097 584.029 0.383899 583.662C0.629702 583.295 0.963079 583.089 1.3107 583.089H905.689C906.037 583.089 906.37 583.295 906.616 583.662C906.862 584.029 907 584.526 907 585.045C907 585.563 906.862 586.061 906.616 586.427C906.37 586.794 906.037 587 905.689 587Z" fill="#CCCCCC"/>
</g>
<defs>
<clipPath id="clip0_127_458">
<rect width="907" height="587" fill="white"/>
</clipPath>
</defs>
</svg>
