<svg width="776" height="544" viewBox="0 0 776 544" fill="none" xmlns="http://www.w3.org/2000/svg">
<g clip-path="url(#clip0_127_132)">
<path d="M662.103 345.377C662.804 345.163 663.459 344.761 664.021 344.198C664.583 343.636 665.039 342.928 665.357 342.123C665.675 341.318 665.846 340.437 665.86 339.541C665.874 338.645 665.729 337.756 665.436 336.937L678.252 322.056L669.386 319.411L658.574 333.947C657.499 334.65 656.668 335.817 656.239 337.229C655.811 338.641 655.814 340.199 656.249 341.608C656.684 343.017 657.52 344.179 658.599 344.874C659.678 345.568 660.925 345.748 662.103 345.377Z" fill="#FFB6B6"/>
<path d="M668.724 333.391L662.747 322.929L685.198 294.102L690.411 248.664C690.668 246.418 691.321 244.27 692.323 242.373C693.324 240.475 694.65 238.875 696.206 237.685C697.762 236.495 699.51 235.745 701.326 235.488C703.141 235.231 704.98 235.473 706.712 236.198C709.839 237.511 712.418 240.31 713.885 243.981C715.351 247.652 715.584 251.895 714.533 255.78L701.233 304.768L668.724 333.391Z" fill="#E4E4E4"/>
<path d="M710.878 526.999H704.243L701.086 495.227L710.879 495.228L710.878 526.999Z" fill="#FFB6B6"/>
<path d="M714.448 542.639H709.739L708.899 537.121L706.747 542.639H694.259C693.661 542.639 693.078 542.402 692.596 541.961C692.114 541.521 691.757 540.901 691.579 540.191C691.401 539.482 691.41 538.72 691.606 538.018C691.801 537.315 692.172 536.709 692.664 536.287L702.636 527.737V522.158L713.125 522.935L714.448 542.639Z" fill="#2F2E41"/>
<path d="M751.813 518.617L745.985 522.554L730.98 496.52L739.582 490.709L751.813 518.617Z" fill="#FFB6B6"/>
<path d="M760.971 530.237L756.835 533.03L753.972 528.682L754.206 534.806L743.238 542.216C742.712 542.571 742.109 542.708 741.516 542.608C740.922 542.507 740.371 542.173 739.941 541.656C739.512 541.139 739.227 540.464 739.128 539.731C739.029 538.999 739.121 538.246 739.391 537.583L744.858 524.156L742.71 519.255L752.223 513.714L760.971 530.237Z" fill="#2F2E41"/>
<path d="M713.674 515.685H699.961V455.068L691.472 415.549C685.38 387.287 683.76 357.826 686.704 328.799L686.716 328.681L686.79 328.604C687.008 328.376 708.735 306.074 722.478 323.135C731.742 334.635 723.037 375.986 722.55 378.256V449.542L713.674 515.685Z" fill="#2F2E41"/>
<path d="M713.64 229.866L713.567 229.776L696.083 230.107L686.749 257.306C678.108 273.967 686.37 283.444 686.95 284.945L685.298 305.389L684.234 318.578L682.525 339.813L722.596 323.562L718.138 301.396L723.289 269.424C724.432 262.354 724.15 255.042 722.467 248.141C720.783 241.239 717.751 234.961 713.64 229.866Z" fill="#E4E4E4"/>
<path d="M705.493 455.381L733.662 504.57L744.468 495.032L720.942 435.014L705.493 455.381Z" fill="#2F2E41"/>
<path d="M703.192 224.58C712.106 224.58 719.333 215.609 719.333 204.542C719.333 193.475 712.106 184.504 703.192 184.504C694.277 184.504 687.05 193.475 687.05 204.542C687.05 215.609 694.277 224.58 703.192 224.58Z" fill="#FFB6B6"/>
<path opacity="0.1" d="M718.759 282.062L701.154 307.28L684.234 318.578L685.298 305.389L695.261 298.444L718.759 282.062Z" fill="black"/>
<path d="M691.886 242.094L690.372 233.856C689.874 231.099 689.826 228.246 690.23 225.465C690.634 222.684 691.483 220.032 692.725 217.665C693.867 215.433 694.503 212.861 694.567 210.218C694.631 207.576 694.121 204.961 693.09 202.647C692.329 200.778 691.172 199.2 689.744 198.083C688.316 196.967 686.671 196.353 684.984 196.309H684.581V195.808C684.581 188.623 689.091 183.552 693.285 183.261C693.437 181.766 694.29 180.425 695.777 179.361C699.327 176.82 706.193 176.269 711.38 179.656C711.476 178.561 711.809 177.518 712.343 176.639C712.877 175.759 713.594 175.076 714.416 174.661C715.268 174.293 716.186 174.227 717.067 174.471C717.142 172.67 717.741 170.964 718.753 169.669C720.185 167.946 722.482 167.292 725.057 167.869C728.592 168.666 732.077 171.462 734.869 175.743C737.344 179.539 739.063 184.012 740.725 188.338C742.359 192.592 744.049 196.991 746.499 200.716C749.182 204.796 752.507 207.44 755.861 208.16C759.773 209.001 763.788 207.001 765.625 203.3L765.99 202.565L766.322 203.323C768.386 208.031 767.542 214.501 764.314 218.706C761.42 222.478 756.877 224.399 752.167 223.841C748.179 223.371 744.157 221.267 740.212 217.589C736.293 213.936 733.87 209.898 733.009 205.587C732.768 204.253 732.595 202.902 732.492 201.541C732.225 198.69 731.973 195.997 730.56 194.015C729.291 192.233 727.326 191.461 725.584 190.878L725.242 190.764C725.18 191.567 724.977 192.343 724.648 193.039C724.319 193.735 723.872 194.333 723.338 194.792C723.017 195.031 722.665 195.2 722.297 195.289C724.317 205.382 723.487 213.109 719.827 218.26C713.649 226.957 701.777 225.168 701.274 225.089L700.94 225.035L700.923 224.617C700.878 223.496 700.768 222.38 700.593 221.279C698.893 226.365 693.172 239.814 692.407 241.171L691.886 242.094Z" fill="#2F2E41"/>
<path d="M121.866 274.449C121.394 275.22 120.791 275.853 120.101 276.303C119.411 276.754 118.649 277.011 117.87 277.056C117.091 277.102 116.314 276.935 115.592 276.567C114.871 276.199 114.223 275.64 113.695 274.928L96.3115 284.313L98.0048 272.266L114.253 265.2C115.276 264.178 116.565 263.657 117.876 263.735C119.188 263.814 120.43 264.487 121.369 265.627C122.307 266.767 122.876 268.295 122.967 269.921C123.059 271.547 122.667 273.158 121.866 274.449Z" fill="#A0616A"/>
<path d="M110.265 278.211L69.8889 300.538L69.8022 300.5L23.7833 280.142C20.3555 277.918 17.7422 274.151 16.4785 269.613C15.2147 265.075 15.3961 260.109 16.9855 255.732C17.8665 253.314 19.1502 251.154 20.7519 249.396C22.3536 247.638 24.2372 246.321 26.2785 245.531C28.3199 244.742 30.4727 244.498 32.5954 244.816C34.7181 245.134 36.7625 246.006 38.594 247.376L72.8406 272.986L106.049 267.643L110.265 278.211Z" fill="#3F3D56"/>
<path d="M127.181 131.206C111.917 89.2924 112.48 36.1649 136.169 0.796387C144.094 49.8406 165.738 93.824 197.271 124.965C209.467 136.92 224.035 148.64 227.366 167.483C229.44 179.207 226.501 191.608 221.421 201.821C216.34 212.034 209.259 220.436 202.258 228.715L201.472 231.549C171.009 205.365 142.445 173.12 127.181 131.206Z" fill="#F0F0F0"/>
<path d="M136.829 1.30765C131.377 38.3674 135.427 77.8292 148.678 111.783C151.543 119.124 154.964 126.261 159.543 132.165C164.043 137.877 169.693 141.989 175.906 144.074C181.668 146.162 187.756 147.47 193.008 151.26C198.544 155.256 201.98 161.96 203.318 169.648C204.956 179.055 203.773 188.631 202.354 197.946C200.779 208.288 199.011 218.999 201.294 229.396C201.57 230.656 199.979 231.115 199.703 229.857C195.732 211.768 203.453 193.928 202.374 175.742C201.87 167.257 199.304 158.908 193.443 153.991C188.318 149.692 182.04 148.336 176.192 146.284C170.051 144.13 164.536 140.839 159.843 135.38C155.043 129.796 151.39 122.81 148.387 115.592C141.674 99.1622 137.084 81.5243 134.786 63.3246C132.069 42.5714 132.232 21.3942 135.268 0.709307C135.456 -0.570855 137.016 0.0358385 136.829 1.30765Z" fill="white"/>
<path d="M143.902 101.028C138.957 102.996 133.61 102.717 128.815 100.242C124.02 97.7665 120.09 93.256 117.727 87.5158C117.252 86.3523 118.686 85.3814 119.162 86.5465C121.354 91.8968 125.015 96.0978 129.484 98.3914C133.953 100.685 138.935 100.92 143.53 99.054C144.53 98.65 144.895 100.627 143.902 101.028Z" fill="white"/>
<path d="M172.872 143.493C177.814 131.83 179.033 118.283 176.286 105.554C176.013 104.293 177.603 103.834 177.876 105.093C180.714 118.346 179.423 132.44 174.26 144.563C173.767 145.718 172.382 144.642 172.872 143.493Z" fill="white"/>
<path d="M134.168 43.2299C136.209 42.9636 138.165 42.0721 139.86 40.6355C141.555 39.1989 142.936 37.2622 143.879 34.9993C144.36 33.837 145.744 34.9146 145.266 36.0692C144.215 38.5634 142.688 40.7 140.818 42.2924C138.948 43.8848 136.792 44.8845 134.539 45.2041C134.329 45.2563 134.111 45.2072 133.929 45.0666C133.746 44.9261 133.614 44.7047 133.559 44.4475C133.511 44.1858 133.548 43.9111 133.662 43.6831C133.776 43.4551 133.958 43.2923 134.168 43.2299Z" fill="white"/>
<path d="M261.621 1.20703C261.338 1.94335 261.054 2.67966 260.777 3.43104C257.006 13.3548 253.89 23.6426 251.461 34.1927C251.263 35.0047 251.072 35.8313 250.893 36.6487C245.259 62.1438 243.487 88.7159 245.667 115.014C246.542 125.478 248.057 135.844 250.199 146.022C253.158 160.078 257.267 175.027 256.34 189.063C256.256 190.529 256.1 191.986 255.871 193.428L204.318 232.519C204.165 232.535 204.018 232.565 203.865 232.582L201.864 234.259C201.724 233.744 201.587 233.206 201.447 232.69C201.365 232.392 201.294 232.085 201.212 231.786C201.161 231.584 201.11 231.382 201.055 231.203C201.038 231.136 201.021 231.069 201.011 231.016C200.956 230.838 200.919 230.665 200.871 230.501C200.102 227.495 199.35 224.477 198.613 221.447C198.605 221.432 198.605 221.432 198.61 221.409C193.041 198.305 188.976 174.42 187.961 150.529C187.931 149.811 187.893 149.078 187.886 148.341C187.477 137.569 187.777 126.773 188.785 116.062C189.352 110.199 190.157 104.376 191.198 98.6137C193.912 83.7324 198.494 69.4735 204.776 56.3598C217.303 30.2201 236.425 9.34506 259.828 1.76449C260.427 1.571 261.015 1.38578 261.621 1.20703Z" fill="#F0F0F0"/>
<path d="M261.905 2.1071C239.579 27.6225 223.674 62.1576 217.787 99.1719C216.515 107.174 215.785 115.43 216.578 123.567C217.401 131.491 219.917 138.997 223.867 145.305C227.454 151.279 231.681 156.874 234.036 163.826C236.519 171.154 236.011 179.075 233.351 186.214C230.096 194.948 224.508 201.71 218.858 208.087C212.584 215.167 205.977 222.398 202.758 232.405C202.368 233.618 200.875 232.796 201.264 231.585C206.866 214.174 221.683 205.701 229.641 190.374C233.355 183.222 235.355 174.637 233.059 166.331C231.052 159.067 226.698 153.294 223.023 147.284C219.165 140.974 216.358 134.224 215.258 126.358C214.133 118.311 214.605 110.003 215.707 101.996C218.316 83.8602 223.205 66.3469 230.196 50.0971C238.092 31.4965 248.493 14.7096 260.949 0.462946C261.72 -0.418438 262.671 1.23149 261.905 2.1071Z" fill="white"/>
<path d="M219.19 87.0149C214.287 84.8897 210.153 80.6704 207.525 75.1104C204.897 69.5504 203.947 63.0117 204.844 56.6622C205.029 55.3782 206.645 55.6749 206.459 56.9606C205.615 62.8714 206.501 68.962 208.957 74.1333C211.412 79.3045 215.276 83.2157 219.851 85.161C220.844 85.5852 220.178 87.4366 219.19 87.0149Z" fill="white"/>
<path d="M221.727 142.573C231.328 136.954 238.871 127.049 242.851 114.833C243.245 113.622 244.738 114.444 244.345 115.653C240.184 128.356 232.317 138.644 222.315 144.464C221.362 145.018 220.778 143.124 221.727 142.573Z" fill="white"/>
<path d="M239.449 33.5915C241.208 34.9044 243.202 35.6545 245.252 35.7743C247.302 35.8942 249.344 35.38 251.195 34.278C252.142 33.7094 252.725 35.6041 251.783 36.1691C249.734 37.3748 247.479 37.9392 245.213 37.813C242.948 37.6869 240.742 36.8739 238.788 35.4453C238.595 35.3298 238.445 35.1273 238.367 34.8789C238.29 34.6305 238.292 34.3549 238.372 34.1081C238.461 33.8632 238.623 33.6716 238.825 33.5748C239.027 33.4781 239.251 33.484 239.449 33.5915Z" fill="white"/>
<path d="M459.289 153.221C444.025 111.308 444.588 58.18 468.277 22.8115C476.202 71.8558 497.846 115.839 529.379 146.98C541.575 158.935 556.143 170.655 559.474 189.498C561.548 201.222 558.609 213.623 553.529 223.836C548.448 234.049 541.367 242.451 534.366 250.73L533.58 253.564C503.117 227.38 474.553 195.135 459.289 153.221Z" fill="#F0F0F0"/>
<path d="M468.936 23.3228C463.485 60.3825 467.535 99.8444 480.786 133.798C483.651 141.139 487.071 148.276 491.651 154.18C496.151 159.892 501.801 164.004 508.014 166.089C513.775 168.177 519.864 169.485 525.116 173.276C530.652 177.271 534.088 183.975 535.426 191.663C537.064 201.07 535.881 210.646 534.462 219.961C532.887 230.303 531.119 241.014 533.401 251.411C533.678 252.671 532.087 253.13 531.811 251.872C527.84 233.784 535.561 215.944 534.482 197.758C533.978 189.272 531.412 180.923 525.551 176.006C520.425 171.707 514.148 170.351 508.3 168.3C502.159 166.145 496.644 162.854 491.951 157.395C487.151 151.811 483.498 144.825 480.495 137.607C473.782 121.177 469.192 103.539 466.893 85.3397C464.177 64.5865 464.34 43.4093 467.376 22.7244C467.564 21.4443 469.124 22.051 468.936 23.3228Z" fill="white"/>
<path d="M476.009 123.044C471.064 125.011 465.717 124.733 460.922 122.257C456.127 119.782 452.198 115.272 449.834 109.531C449.359 108.368 450.794 107.397 451.269 108.562C453.462 113.912 457.123 118.113 461.591 120.407C466.06 122.701 471.042 122.936 475.638 121.07C476.637 120.666 477.003 122.642 476.009 123.044Z" fill="white"/>
<path d="M504.98 165.508C509.922 153.845 511.14 140.298 508.394 127.569C508.121 126.308 509.711 125.849 509.984 127.108C512.822 140.361 511.531 154.455 506.367 166.578C505.875 167.733 504.49 166.657 504.98 165.508Z" fill="white"/>
<path d="M466.276 65.245C468.317 64.9787 470.273 64.0873 471.968 62.6507C473.663 61.2141 475.044 59.2773 475.987 57.0144C476.468 55.8522 477.852 56.9297 477.374 58.0844C476.323 60.5785 474.796 62.7152 472.926 64.3075C471.056 65.8999 468.9 66.8996 466.647 67.2192C466.437 67.2715 466.219 67.2223 466.036 67.0818C465.854 66.9413 465.722 66.7199 465.667 66.4627C465.618 66.201 465.655 65.9263 465.77 65.6983C465.884 65.4703 466.066 65.3074 466.276 65.245Z" fill="white"/>
<path d="M593.729 23.2222C593.445 23.9585 593.162 24.6948 592.885 25.4462C589.114 35.37 585.998 45.6577 583.569 56.2079C583.371 57.0199 583.18 57.8465 583.001 58.6638C577.367 84.159 575.595 110.731 577.775 137.029C578.65 147.493 580.165 157.859 582.307 168.037C585.266 182.094 589.375 197.042 588.448 211.078C588.364 212.544 588.208 214.002 587.979 215.443L536.426 254.534C536.273 254.55 536.126 254.581 535.973 254.597L533.972 256.274C533.832 255.759 533.695 255.221 533.555 254.705C533.473 254.407 533.402 254.1 533.32 253.801C533.269 253.599 533.218 253.397 533.163 253.219C533.146 253.152 533.129 253.084 533.119 253.031C533.063 252.853 533.027 252.68 532.979 252.516C532.21 249.51 531.458 246.492 530.72 243.462C530.713 243.448 530.713 243.448 530.718 243.424C525.148 220.32 521.084 196.436 520.069 172.545C520.039 171.826 520.001 171.093 519.994 170.356C519.585 159.584 519.885 148.788 520.893 138.077C521.459 132.214 522.265 126.391 523.306 120.629C526.019 105.748 530.601 91.4886 536.884 78.3749C549.411 52.2352 568.533 31.3602 591.936 23.7796C592.535 23.5861 593.123 23.4009 593.729 23.2222Z" fill="#F0F0F0"/>
<path d="M594.013 24.1222C571.686 49.6376 555.782 84.1728 549.895 121.187C548.622 129.189 547.892 137.445 548.686 145.582C549.508 153.506 552.025 161.012 555.975 167.32C559.562 173.294 563.789 178.889 566.144 185.841C568.627 193.169 568.119 201.09 565.459 208.229C562.204 216.963 556.616 223.725 550.965 230.102C544.692 237.182 538.085 244.413 534.866 254.421C534.476 255.633 532.983 254.811 533.372 253.6C538.974 236.189 553.791 227.716 561.749 212.389C565.463 205.237 567.462 196.653 565.167 188.346C563.16 181.083 558.805 175.309 555.131 169.299C551.273 162.989 548.465 156.239 547.366 148.373C546.241 140.326 546.713 132.018 547.815 124.011C550.424 105.875 555.313 88.3621 562.304 72.1123C570.2 53.5116 580.601 36.7248 593.057 22.4781C593.828 21.5967 594.779 23.2466 594.013 24.1222Z" fill="white"/>
<path d="M551.297 109.03C546.395 106.905 542.26 102.686 539.632 97.126C537.005 91.566 536.054 85.0274 536.951 78.6778C537.136 77.3938 538.752 77.6905 538.567 78.9762C537.723 84.887 538.609 90.9776 541.064 96.1489C543.52 101.32 547.384 105.231 551.958 107.177C552.952 107.601 552.285 109.452 551.297 109.03Z" fill="white"/>
<path d="M553.835 164.589C563.436 158.97 570.979 149.065 574.959 136.848C575.353 135.638 576.846 136.459 576.453 137.669C572.292 150.372 564.425 160.66 554.423 166.48C553.469 167.034 552.886 165.14 553.835 164.589Z" fill="white"/>
<path d="M571.557 55.6066C573.316 56.9195 575.31 57.6696 577.36 57.7895C579.41 57.9093 581.452 57.3951 583.303 56.2932C584.25 55.7245 584.833 57.6193 583.891 58.1842C581.842 59.3899 579.587 59.9543 577.321 59.8282C575.056 59.702 572.85 58.8891 570.896 57.4604C570.703 57.3449 570.552 57.1424 570.475 56.894C570.398 56.6457 570.4 56.3701 570.48 56.1233C570.569 55.8784 570.731 55.6867 570.933 55.59C571.135 55.4932 571.359 55.4992 571.557 55.6066Z" fill="white"/>
<path d="M150.582 428.638H543.292V146.394C543.29 144.279 542.612 142.252 541.408 140.756C540.203 139.261 538.57 138.42 536.866 138.417H157.007C155.303 138.42 153.67 139.261 152.466 140.756C151.261 142.252 150.584 144.279 150.582 146.394V428.638Z" fill="#CACACA"/>
<path d="M531.158 149.449H162.715V409.121H531.158V149.449Z" fill="white"/>
<path d="M150.24 421.001V455.83C150.24 457.274 150.469 458.704 150.914 460.038C151.359 461.372 152.011 462.584 152.834 463.605C153.656 464.626 154.633 465.436 155.707 465.988C156.782 466.541 157.933 466.825 159.096 466.825H304.043V535.562H302.117C301.966 535.562 301.816 535.599 301.677 535.671C301.537 535.742 301.41 535.848 301.304 535.98C301.197 536.113 301.112 536.27 301.054 536.443C300.996 536.617 300.967 536.803 300.967 536.99V541.771C300.967 541.959 300.996 542.144 301.054 542.318C301.112 542.491 301.197 542.648 301.304 542.781C301.41 542.914 301.537 543.019 301.677 543.091C301.816 543.162 301.966 543.199 302.117 543.199H392.098C392.249 543.199 392.399 543.162 392.538 543.091C392.678 543.019 392.805 542.914 392.911 542.781C393.018 542.648 393.103 542.491 393.161 542.318C393.219 542.144 393.248 541.959 393.248 541.771V536.99C393.248 536.803 393.219 536.617 393.161 536.443C393.103 536.27 393.018 536.113 392.911 535.98C392.805 535.848 392.678 535.742 392.538 535.671C392.399 535.599 392.249 535.562 392.098 535.562H390.172V466.825H535.119C536.282 466.825 537.433 466.541 538.508 465.988C539.582 465.436 540.559 464.626 541.381 463.605C542.204 462.584 542.856 461.372 543.301 460.038C543.746 458.704 543.975 457.274 543.975 455.83V421.001L150.24 421.001Z" fill="#3F3D56"/>
<path d="M277.283 277.866H187.496C186.87 277.865 186.27 277.556 185.828 277.007C185.385 276.458 185.136 275.713 185.136 274.936V229.709C185.136 228.932 185.385 228.188 185.828 227.638C186.27 227.089 186.87 226.78 187.496 226.779H277.283C277.909 226.78 278.508 227.089 278.951 227.638C279.393 228.188 279.642 228.932 279.643 229.709V274.936C279.642 275.713 279.393 276.458 278.951 277.007C278.508 277.556 277.909 277.865 277.283 277.866Z" fill="#0096C7"/>
<path d="M268.734 299.562H196.045C195.294 299.562 194.574 299.192 194.043 298.532C193.512 297.873 193.213 296.979 193.213 296.046C193.213 295.114 193.512 294.22 194.043 293.56C194.574 292.901 195.294 292.531 196.045 292.531H268.734C272.386 292.467 272.422 299.626 268.734 299.562Z" fill="#E4E4E4"/>
<path d="M268.734 315.676H196.045C195.294 315.676 194.574 315.306 194.043 314.646C193.512 313.987 193.213 313.093 193.213 312.16C193.213 311.228 193.512 310.334 194.043 309.674C194.574 309.015 195.294 308.644 196.045 308.644H268.734C272.386 308.581 272.422 315.74 268.734 315.676Z" fill="#E4E4E4"/>
<path d="M268.734 331.79H196.045C195.294 331.79 194.574 331.419 194.043 330.76C193.512 330.101 193.213 329.206 193.213 328.274C193.213 327.342 193.512 326.447 194.043 325.788C194.574 325.129 195.294 324.758 196.045 324.758H268.734C272.386 324.695 272.422 331.854 268.734 331.79Z" fill="#E4E4E4"/>
<path d="M391.83 277.866H302.043C301.417 277.865 300.818 277.556 300.375 277.007C299.933 276.458 299.684 275.713 299.683 274.936V229.709C299.684 228.932 299.933 228.188 300.375 227.638C300.818 227.089 301.417 226.78 302.043 226.779H391.83C392.456 226.78 393.056 227.089 393.498 227.638C393.941 228.188 394.19 228.932 394.19 229.709V274.936C394.19 275.713 393.941 276.458 393.498 277.007C393.056 277.556 392.456 277.865 391.83 277.866Z" fill="#0096C7"/>
<path d="M383.281 299.562H310.593C309.842 299.562 309.121 299.192 308.59 298.532C308.059 297.873 307.761 296.979 307.761 296.046C307.761 295.114 308.059 294.22 308.59 293.56C309.121 292.901 309.842 292.531 310.593 292.531H383.281C386.933 292.467 386.97 299.626 383.281 299.562Z" fill="#E4E4E4"/>
<path d="M383.281 315.676H310.593C309.842 315.676 309.121 315.306 308.59 314.646C308.059 313.987 307.761 313.093 307.761 312.16C307.761 311.228 308.059 310.334 308.59 309.674C309.121 309.015 309.842 308.644 310.593 308.644H383.281C386.933 308.581 386.97 315.74 383.281 315.676Z" fill="#E4E4E4"/>
<path d="M383.281 331.79H310.593C309.842 331.79 309.121 331.419 308.59 330.76C308.059 330.101 307.761 329.206 307.761 328.274C307.761 327.342 308.059 326.447 308.59 325.788C309.121 325.129 309.842 324.758 310.593 324.758H383.281C386.933 324.695 386.97 331.854 383.281 331.79Z" fill="#E4E4E4"/>
<path d="M506.378 277.866H416.59C415.965 277.865 415.365 277.556 414.923 277.007C414.48 276.458 414.231 275.713 414.23 274.936V229.709C414.231 228.932 414.48 228.188 414.923 227.638C415.365 227.089 415.965 226.78 416.59 226.779H506.378C507.003 226.78 507.603 227.089 508.046 227.638C508.488 228.188 508.737 228.932 508.738 229.709V274.936C508.737 275.713 508.488 276.458 508.046 277.007C507.603 277.556 507.003 277.865 506.378 277.866Z" fill="#0096C7"/>
<path d="M497.828 299.562H425.14C424.389 299.562 423.668 299.192 423.137 298.532C422.606 297.873 422.308 296.979 422.308 296.046C422.308 295.114 422.606 294.22 423.137 293.56C423.668 292.901 424.389 292.531 425.14 292.531H497.828C501.48 292.467 501.517 299.626 497.828 299.562Z" fill="#E4E4E4"/>
<path d="M497.828 315.676H425.14C424.389 315.674 423.67 315.303 423.14 314.644C422.61 313.985 422.312 313.092 422.312 312.16C422.312 311.229 422.61 310.335 423.14 309.676C423.67 309.017 424.389 308.646 425.14 308.644H497.828C501.48 308.581 501.517 315.74 497.828 315.676Z" fill="#E4E4E4"/>
<path d="M497.828 331.79H425.14C424.389 331.79 423.668 331.419 423.137 330.76C422.606 330.101 422.308 329.206 422.308 328.274C422.308 327.342 422.606 326.447 423.137 325.788C423.668 325.129 424.389 324.758 425.14 324.758H497.828C501.48 324.695 501.517 331.854 497.828 331.79Z" fill="#E4E4E4"/>
<path d="M659.803 227.39L660.049 284.079L661.05 284.009L662.001 304.996L660.143 305.123L660.194 317.731L661.682 317.695L661.983 338.701L660.29 338.739L661.096 523.723C661.114 528.567 659.582 533.222 656.838 536.665C654.095 540.109 650.362 542.061 646.461 542.092L481.859 543.199C477.957 543.221 474.207 541.321 471.433 537.914C468.659 534.508 467.087 529.874 467.062 525.03L465.77 228.697C465.752 223.853 467.283 219.199 470.027 215.755C472.771 212.311 476.504 210.36 480.405 210.329L645.007 209.221C648.909 209.201 652.657 211.103 655.431 214.509C658.204 217.915 659.777 222.547 659.803 227.39Z" fill="#3F3D56"/>
<path d="M646.699 530.437L481.518 531.549C480.315 531.556 479.159 530.97 478.304 529.92C477.449 528.87 476.965 527.442 476.957 525.949L475.654 227.645C475.649 226.152 476.121 224.718 476.967 223.656C477.812 222.595 478.963 221.993 480.165 221.984L645.347 220.872C646.549 220.865 647.705 221.451 648.56 222.501C649.415 223.551 649.9 224.979 649.908 226.472L651.211 524.776C651.216 526.269 650.744 527.703 649.898 528.765C649.052 529.826 647.902 530.428 646.699 530.437Z" fill="white"/>
<path d="M562.104 216.926C562.795 216.926 563.356 216.23 563.356 215.371C563.356 214.513 562.795 213.817 562.104 213.817C561.413 213.817 560.852 214.513 560.852 215.371C560.852 216.23 561.413 216.926 562.104 216.926Z" fill="white"/>
<path d="M611.233 304.834H515.631C514.965 304.833 514.326 304.504 513.855 303.92C513.384 303.335 513.119 302.542 513.118 301.715V253.558C513.119 252.731 513.384 251.939 513.855 251.354C514.326 250.769 514.965 250.44 515.631 250.439H611.233C611.899 250.44 612.538 250.769 613.009 251.354C613.48 251.939 613.745 252.731 613.746 253.558V301.715C613.745 302.542 613.48 303.335 613.009 303.92C612.538 304.504 611.899 304.833 611.233 304.834Z" fill="#0096C7"/>
<path d="M602.13 327.935H524.734C523.934 327.935 523.167 327.541 522.602 326.839C522.036 326.137 521.719 325.184 521.719 324.192C521.719 323.199 522.036 322.247 522.602 321.545C523.167 320.843 523.934 320.448 524.734 320.448H602.13C606.019 320.381 606.058 328.003 602.13 327.935Z" fill="#E4E4E4"/>
<path d="M602.13 345.093H524.735C523.936 345.091 523.17 344.696 522.606 343.994C522.041 343.292 521.724 342.341 521.724 341.349C521.724 340.358 522.041 339.406 522.606 338.705C523.17 338.003 523.936 337.608 524.735 337.606H602.13C606.019 337.539 606.058 345.161 602.13 345.093Z" fill="#E4E4E4"/>
<path d="M602.13 362.25H524.734C523.934 362.25 523.167 361.856 522.602 361.154C522.036 360.452 521.719 359.499 521.719 358.507C521.719 357.514 522.036 356.562 522.602 355.86C523.167 355.158 523.934 354.763 524.734 354.763H602.13C606.019 354.696 606.058 362.318 602.13 362.25Z" fill="#E4E4E4"/>
<path d="M611.233 444.566H515.631C514.965 444.565 514.326 444.236 513.855 443.651C513.384 443.067 513.119 442.274 513.118 441.447V393.29C513.119 392.463 513.384 391.67 513.855 391.086C514.326 390.501 514.965 390.172 515.631 390.171H611.233C611.899 390.172 612.538 390.501 613.009 391.086C613.48 391.67 613.745 392.463 613.746 393.29V441.447C613.745 442.274 613.48 443.067 613.009 443.651C612.538 444.236 611.899 444.565 611.233 444.566Z" fill="#0096C7"/>
<path d="M602.13 467.667H524.734C523.934 467.667 523.167 467.273 522.602 466.571C522.036 465.869 521.719 464.917 521.719 463.924C521.719 462.931 522.036 461.979 522.602 461.277C523.167 460.575 523.934 460.181 524.734 460.181H602.13C606.019 460.113 606.058 467.735 602.13 467.667Z" fill="#E4E4E4"/>
<path d="M602.13 484.825H524.735C523.936 484.823 523.17 484.428 522.606 483.726C522.041 483.024 521.724 482.073 521.724 481.081C521.724 480.089 522.041 479.138 522.606 478.436C523.17 477.735 523.936 477.339 524.735 477.338H602.13C606.019 477.27 606.058 484.893 602.13 484.825Z" fill="#E4E4E4"/>
<path d="M602.13 501.982H524.734C523.934 501.982 523.167 501.587 522.602 500.885C522.036 500.183 521.719 499.231 521.719 498.238C521.719 497.246 522.036 496.294 522.602 495.591C523.167 494.889 523.934 494.495 524.734 494.495H602.13C606.019 494.428 606.058 502.05 602.13 501.982Z" fill="#E4E4E4"/>
<path d="M186.462 528.642L186.144 365.274L187.344 365.271L187.286 335.223L186.086 335.227L185.988 285.068C185.985 283.195 185.684 281.341 185.103 279.612C184.522 277.882 183.673 276.312 182.603 274.991C181.534 273.669 180.265 272.622 178.869 271.91C177.474 271.197 175.979 270.832 174.47 270.837L88.9551 271.093C87.446 271.098 85.9524 271.471 84.5596 272.192C83.1668 272.913 81.902 273.968 80.8375 275.296C79.7729 276.623 78.9295 278.199 78.3554 279.931C77.7812 281.664 77.4875 283.519 77.4911 285.393L77.5592 320.367L75.6484 320.426L76.0705 341.434L77.6001 341.387L77.6091 346.022L75.9813 346.072L76.4034 367.081L77.6501 367.042L77.9652 528.967C77.966 530.841 78.2649 532.697 78.8448 534.428C79.4247 536.159 80.2741 537.73 81.3443 539.052C82.4145 540.375 83.6844 541.422 85.0813 542.133C86.4781 542.845 87.9744 543.207 89.4843 543.199L174.998 542.942C178.045 542.929 180.963 541.416 183.112 538.735C185.261 536.054 186.466 532.425 186.462 528.642Z" fill="#3F3D56"/>
<path d="M86.8693 536.662C85.8028 536.186 84.8801 535.314 84.2267 534.165C83.5733 533.015 83.2208 531.644 83.2172 530.237L82.7383 284.092C82.7349 282.279 83.3117 280.539 84.3418 279.254C85.372 277.969 86.771 277.245 88.2313 277.24L106.426 277.186L106.201 277.876C105.81 279.073 105.662 280.372 105.771 281.657C105.88 282.942 106.241 284.174 106.824 285.245C107.407 286.315 108.193 287.192 109.112 287.797C110.032 288.401 111.058 288.716 112.098 288.713L152.478 288.592C153.483 288.483 154.453 288.082 155.311 287.422C156.168 286.761 156.888 285.859 157.412 284.789C157.928 283.737 158.237 282.549 158.314 281.32C158.39 280.092 158.231 278.859 157.85 277.721L157.622 277.032L176.416 276.976C177.876 276.974 179.277 277.691 180.312 278.969C181.347 280.247 181.931 281.983 181.936 283.795L182.393 518.638C182.398 523.447 180.866 528.062 178.134 531.47C175.401 534.879 171.691 536.803 167.817 536.82L88.7369 537.057C88.1006 537.06 87.4688 536.926 86.8693 536.662Z" fill="white"/>
<path d="M118.021 283.02C118.713 283.02 119.273 282.324 119.273 281.466C119.273 280.607 118.713 279.912 118.021 279.912C117.33 279.912 116.77 280.607 116.77 281.466C116.77 282.324 117.33 283.02 118.021 283.02Z" fill="white"/>
<path d="M166.413 358.668H101.444C100.991 358.667 100.557 358.444 100.237 358.046C99.9169 357.649 99.7369 357.11 99.7363 356.548V323.822C99.7369 323.26 99.9169 322.721 100.237 322.324C100.557 321.926 100.991 321.703 101.444 321.702H166.413C166.865 321.703 167.3 321.926 167.62 322.324C167.94 322.721 168.12 323.26 168.12 323.822V356.548C168.12 357.11 167.94 357.649 167.62 358.046C167.3 358.444 166.865 358.667 166.413 358.668Z" fill="#0096C7"/>
<path d="M160.227 374.366H107.63C107.361 374.367 107.094 374.302 106.845 374.174C106.596 374.047 106.369 373.859 106.179 373.623C105.988 373.387 105.837 373.106 105.734 372.797C105.63 372.488 105.577 372.157 105.577 371.823C105.577 371.488 105.63 371.157 105.734 370.848C105.837 370.539 105.988 370.258 106.179 370.022C106.369 369.786 106.596 369.598 106.845 369.471C107.094 369.343 107.361 369.278 107.63 369.279H160.227C162.869 369.233 162.896 374.413 160.227 374.366Z" fill="#E4E4E4"/>
<path d="M160.227 386.026H107.63C107.087 386.026 106.566 385.758 106.181 385.281C105.797 384.804 105.581 384.157 105.581 383.482C105.581 382.808 105.797 382.161 106.181 381.683C106.566 381.206 107.087 380.938 107.63 380.938H160.227C162.869 380.892 162.896 386.072 160.227 386.026Z" fill="#E4E4E4"/>
<path d="M160.227 397.686H107.63C107.361 397.687 107.094 397.621 106.845 397.494C106.596 397.366 106.369 397.179 106.179 396.943C105.988 396.706 105.837 396.426 105.734 396.117C105.63 395.808 105.577 395.476 105.577 395.142C105.577 394.807 105.63 394.476 105.734 394.167C105.837 393.858 105.988 393.578 106.179 393.341C106.369 393.105 106.596 392.918 106.845 392.79C107.094 392.663 107.361 392.597 107.63 392.598H160.227C162.869 392.552 162.896 397.732 160.227 397.686Z" fill="#E4E4E4"/>
<path d="M166.413 456.736H101.444C100.991 456.736 100.557 456.512 100.237 456.115C99.9169 455.717 99.7369 455.178 99.7363 454.616V421.89C99.7369 421.328 99.9169 420.79 100.237 420.392C100.557 419.995 100.991 419.771 101.444 419.771H166.413C166.865 419.771 167.3 419.995 167.62 420.392C167.94 420.79 168.12 421.328 168.12 421.89V454.616C168.12 455.178 167.94 455.717 167.62 456.115C167.3 456.512 166.865 456.736 166.413 456.736Z" fill="#0096C7"/>
<path d="M160.227 472.435H107.63C107.361 472.435 107.094 472.37 106.845 472.243C106.596 472.115 106.369 471.928 106.179 471.691C105.988 471.455 105.837 471.175 105.734 470.866C105.63 470.557 105.577 470.225 105.577 469.891C105.577 469.556 105.63 469.225 105.734 468.916C105.837 468.607 105.988 468.327 106.179 468.09C106.369 467.854 106.596 467.667 106.845 467.539C107.094 467.412 107.361 467.346 107.63 467.347H160.227C162.869 467.301 162.896 472.481 160.227 472.435Z" fill="#E4E4E4"/>
<path d="M160.227 484.095H107.63C107.087 484.095 106.566 483.827 106.181 483.349C105.797 482.872 105.581 482.225 105.581 481.551C105.581 480.876 105.797 480.229 106.181 479.752C106.566 479.275 107.087 479.007 107.63 479.007H160.227C162.869 478.961 162.896 484.141 160.227 484.095Z" fill="#E4E4E4"/>
<path d="M160.227 495.754H107.63C107.361 495.755 107.094 495.69 106.845 495.562C106.596 495.434 106.369 495.247 106.179 495.011C105.988 494.775 105.837 494.494 105.734 494.185C105.63 493.876 105.577 493.545 105.577 493.21C105.577 492.876 105.63 492.544 105.734 492.236C105.837 491.927 105.988 491.646 106.179 491.41C106.369 491.173 106.596 490.986 106.845 490.859C107.094 490.731 107.361 490.666 107.63 490.666H160.227C162.869 490.621 162.896 495.8 160.227 495.754Z" fill="#E4E4E4"/>
<path d="M21.1808 534.259L28.2405 534.258L31.5987 500.456H21.1792L21.1808 534.259Z" fill="#A0616A"/>
<path d="M19.3799 531.398L21.3669 531.398L29.1246 527.481L33.2824 531.397C35.6321 531.397 37.8861 532.556 39.5477 534.618C41.2092 536.681 42.1427 539.479 42.1428 542.396V542.753L19.3803 542.754L19.3799 531.398Z" fill="#2F2E41"/>
<path d="M48.5376 528.736L55.4232 530.666L64.6972 498.612L54.5341 495.763L48.5376 528.736Z" fill="#A0616A"/>
<path d="M47.2886 525.453L49.2268 525.996L57.4889 524.297L60.8498 529.254C63.1418 529.896 65.1348 531.643 66.3895 534.109C67.6442 536.576 68.0584 539.56 67.5409 542.405L67.4775 542.754L45.2739 536.53L47.2886 525.453Z" fill="#2F2E41"/>
<path d="M12.2398 327.604C8.92999 339.997 9.2799 353.448 13.0353 367.886L14.6407 449.17C14.6407 449.17 12.2488 502.475 19.967 521.233H31.1605L36.7026 444.302L37.3985 392.666L61.3962 436.23L46.1114 519.975L59.8879 521.504L84.6912 430.621L54.0889 342.448L12.2398 327.604Z" fill="#2F2E41"/>
<path d="M56.0847 345.052L15.3826 336.97C14.3151 336.545 13.3342 335.839 12.5073 334.9C11.6804 333.96 11.0271 332.81 10.5921 331.527C10.1572 330.245 9.95093 328.861 9.98754 327.47C10.0242 326.079 10.3028 324.715 10.8042 323.47L12.65 318.887L11.933 270.733C11.8466 264.469 13.0905 258.287 15.5396 252.81C17.9886 247.332 21.5565 242.752 25.8842 239.53L29.8534 236.584L31.8593 230.26L50.3558 230.82L50.4096 239.114L57.0337 252.227L57.0334 252.281L56.6178 323.652L54.7922 331.018L57.5526 339.585L56.0847 345.052Z" fill="#3F3D56"/>
<path d="M42.8015 222.397C52.0832 222.397 59.6075 213.056 59.6075 201.533C59.6075 190.011 52.0832 180.67 42.8015 180.67C33.5199 180.67 25.9956 190.011 25.9956 201.533C25.9956 213.056 33.5199 222.397 42.8015 222.397Z" fill="#A0616A"/>
<path d="M25.3012 206.082C24.7999 203.46 25.0301 199.771 25.3133 197.132C25.6761 193.651 26.6239 190.304 28.0954 187.307C29.5668 184.31 31.529 181.731 33.8549 179.736C34.7466 178.895 35.8063 178.372 36.9198 178.224C37.4763 178.165 38.0333 178.327 38.5112 178.686C38.989 179.045 39.3632 179.582 39.58 180.221C39.8603 179.353 40.281 178.565 40.8161 177.906C41.3512 177.247 41.9894 176.732 42.6913 176.391C44.1013 175.72 45.6177 175.467 47.1203 175.65C50.0329 175.948 52.8261 177.22 55.2036 179.329C57.581 181.439 59.4541 184.309 60.6239 187.633C61.0727 188.957 62.3265 184.067 62.8953 185.318C63.4179 186.618 64.3297 187.613 65.4356 188.089C66.55 188.475 67.0027 194.175 67.4412 192.846C67.7815 193.828 67.916 194.901 67.8322 195.966C67.7484 197.03 67.4491 198.05 66.962 198.932C66.4749 199.814 65.816 200.529 65.0466 201.009C64.2772 201.49 63.4224 201.721 62.5616 201.681C61.4366 201.5 60.3213 201.235 59.222 200.887C57.2035 200.571 55.1618 201.184 53.4822 202.609C51.8027 204.035 50.6016 206.174 50.1058 208.623C49.799 207.199 49.3089 205.845 48.6545 204.615C48.3223 204.003 47.8772 203.498 47.3562 203.143C46.8353 202.788 46.2535 202.592 45.6592 202.572C45.0912 202.653 44.5425 202.877 44.0468 203.231C43.5511 203.585 43.1189 204.06 42.7767 204.629C42.0369 205.707 41.4812 206.966 40.7359 208.038C38.5489 211.186 35.591 218.526 32.4743 217.99C30.0147 217.568 25.9856 209.661 25.3012 206.082Z" fill="#2F2E41"/>
<path d="M105.452 329.823C104.737 330.209 103.962 330.395 103.183 330.369C102.403 330.343 101.638 330.105 100.94 329.672C100.243 329.239 99.6304 328.621 99.1461 327.862C98.6617 327.104 98.3173 326.222 98.137 325.28L79.2764 322.915L85.4987 313.434L102.455 317.134C103.75 316.863 105.08 317.191 106.193 318.055C107.306 318.92 108.124 320.262 108.494 321.826C108.863 323.39 108.758 325.068 108.197 326.542C107.637 328.016 106.66 329.183 105.452 329.823Z" fill="#A0616A"/>
<path d="M93.8519 326.062L49.8374 321.027L49.777 320.941L17.6541 275.248C15.5401 271.227 14.7441 266.355 15.4292 261.629C16.1143 256.904 18.2286 252.682 21.3392 249.829C23.0603 248.254 25.0306 247.15 27.1203 246.588C29.2101 246.027 31.3719 246.021 33.4634 246.572C35.555 247.123 37.529 248.217 39.2553 249.783C40.9817 251.349 42.4213 253.351 43.4795 255.657L63.2647 298.786L94.3367 314.285L93.8519 326.062Z" fill="#3F3D56"/>
<path d="M775.04 544H0.959943C0.705871 543.999 0.462456 543.873 0.28306 543.65C0.103664 543.427 0.00292969 543.124 0.00292969 542.809C0.00292969 542.493 0.103664 542.191 0.28306 541.967C0.462456 541.744 0.705871 541.618 0.959943 541.617H775.04C775.295 541.617 775.539 541.743 775.719 541.966C775.899 542.19 776 542.493 776 542.809C776 543.125 775.899 543.428 775.719 543.651C775.539 543.875 775.295 544 775.04 544Z" fill="#CCCCCC"/>
<path d="M640.423 331.027C641.142 331.113 641.867 331.002 642.547 330.702C643.227 330.402 643.846 329.921 644.361 329.292C644.875 328.663 645.272 327.902 645.524 327.062C645.775 326.222 645.876 325.324 645.817 324.431L661.878 315.653L654.216 309.515L640.139 318.791C638.937 319.012 637.842 319.773 637.061 320.929C636.28 322.085 635.868 323.557 635.903 325.065C635.938 326.574 636.418 328.014 637.251 329.112C638.084 330.211 639.213 330.892 640.423 331.027Z" fill="#FFB6B6"/>
<path d="M649.866 322.436L647.014 310.108L675.884 292.127L692.914 251.39C693.756 249.376 694.944 247.617 696.395 246.238C697.846 244.859 699.524 243.893 701.309 243.409C703.095 242.925 704.944 242.936 706.726 243.439C708.508 243.942 710.179 244.926 711.62 246.321C714.221 248.845 715.909 252.546 716.314 256.613C716.719 260.679 715.808 264.779 713.781 268.013L688.173 308.778L649.866 322.436Z" fill="#E4E4E4"/>
</g>
<defs>
<clipPath id="clip0_127_132">
<rect width="776" height="544" fill="white"/>
</clipPath>
</defs>
</svg>
