<svg width="772" height="592" viewBox="0 0 772 592" fill="none" xmlns="http://www.w3.org/2000/svg">
<g clip-path="url(#clip0_422_102)">
<path d="M110.275 349.563C137.292 349.563 159.194 327.549 159.194 300.393C159.194 273.238 137.292 251.224 110.275 251.224C83.2579 251.224 61.3562 273.238 61.3562 300.393C61.3562 327.549 83.2579 349.563 110.275 349.563Z" fill="#FF6584"/>
<path d="M210.455 578.123H210.406C208.683 578.121 207.032 577.432 205.814 576.208C204.596 574.983 203.911 573.324 203.909 571.592V188.226C203.911 186.495 204.596 184.835 205.814 183.611C207.032 182.386 208.683 181.698 210.406 181.696H531.435C533.158 181.698 534.809 182.386 536.027 183.611C537.245 184.835 537.931 186.495 537.932 188.226V486.314C537.931 488.037 537.252 489.689 536.045 490.912C534.838 492.135 533.2 492.829 531.486 492.844L210.455 578.123Z" fill="#F2F2F2"/>
<path d="M447.738 127.533H298.689V40.7181C298.691 38.885 299.416 37.1275 300.706 35.8312C301.996 34.535 303.744 33.8058 305.568 33.8037H440.859C442.683 33.8058 444.431 34.535 445.721 35.8312C447.011 37.1275 447.736 38.885 447.738 40.7181V127.533ZM300.217 125.996H446.21V40.7181C446.208 39.2923 445.644 37.9254 444.641 36.9172C443.638 35.909 442.278 35.3418 440.859 35.3402H305.568C304.149 35.3418 302.789 35.909 301.786 36.9172C300.783 37.9254 300.219 39.2923 300.217 40.7181V125.996Z" fill="#3F3D56"/>
<path d="M341.111 66.8394H405.317C406.938 66.8394 408.494 67.4869 409.641 68.6395C410.787 69.7921 411.432 71.3554 411.432 72.9855V165.178H334.996V72.9855C334.996 71.3554 335.64 69.7921 336.787 68.6395C337.934 67.4869 339.489 66.8394 341.111 66.8394Z" fill="#E6E6E6"/>
<path d="M353.722 35.3404H322.384V3.84135C322.385 2.82291 322.788 1.84653 323.504 1.12639C324.221 0.406251 325.192 0.00116512 326.206 0H349.901C350.914 0.00116512 351.885 0.406251 352.602 1.12639C353.318 1.84653 353.721 2.82291 353.722 3.84135V35.3404ZM323.913 33.8038H352.194V3.84135C352.193 3.23028 351.951 2.64443 351.521 2.21234C351.091 1.78025 350.509 1.5372 349.901 1.53654H326.206C325.598 1.5372 325.015 1.78025 324.585 2.21234C324.155 2.64443 323.913 3.23028 323.913 3.84135V33.8038Z" fill="#3F3D56"/>
<path d="M611.242 498.484C610.937 498.484 610.641 498.484 610.336 498.476C591.426 498.266 573.244 491.122 559.205 478.388C558.685 477.913 558.171 477.432 557.66 476.944L557.423 476.717V329.477L557.496 329.321C558.002 328.243 558.516 327.18 559.029 326.117C574.928 293.674 593.47 275.809 611.242 275.809C636.87 275.809 656.747 311.144 666.313 332.207C679.617 361.496 688.908 397.79 688.908 420.466C688.902 441.009 680.837 460.721 666.463 475.325C652.09 489.93 632.566 498.248 612.129 498.476C611.844 498.484 611.539 498.484 611.242 498.484ZM558.952 476.059C559.376 476.461 559.803 476.858 560.231 477.249C573.996 489.734 591.824 496.736 610.363 496.939C610.673 496.947 610.966 496.939 611.262 496.947C611.539 496.947 611.824 496.947 612.101 496.94C653.615 496.477 687.379 462.171 687.379 420.466C687.379 397.987 678.145 361.956 664.923 332.845C655.508 312.118 636.015 277.345 611.242 277.345C594.083 277.345 576.028 294.906 560.402 326.792C559.918 327.795 559.432 328.801 558.952 329.821L558.952 476.059Z" fill="#3F3D56"/>
<path d="M611.238 591.634C611.005 591.634 610.781 591.541 610.616 591.375C610.452 591.21 610.359 590.985 610.359 590.75V410.309C610.358 410.192 610.38 410.077 610.424 409.969C610.468 409.861 610.533 409.763 610.615 409.68C610.696 409.598 610.794 409.532 610.901 409.487C611.008 409.442 611.122 409.419 611.238 409.419C611.354 409.419 611.469 409.442 611.576 409.487C611.683 409.532 611.78 409.598 611.862 409.68C611.944 409.763 612.008 409.861 612.052 409.969C612.096 410.077 612.118 410.192 612.118 410.309V590.75C612.118 590.985 612.025 591.21 611.86 591.375C611.695 591.541 611.472 591.634 611.238 591.634Z" fill="#CCCCCC"/>
<path d="M154.918 591.634C154.684 591.634 154.461 591.541 154.296 591.375C154.131 591.21 154.038 590.985 154.038 590.75V410.309C154.037 410.192 154.06 410.077 154.104 409.969C154.147 409.861 154.212 409.763 154.294 409.68C154.376 409.598 154.473 409.532 154.58 409.487C154.687 409.442 154.802 409.419 154.917 409.419C155.033 409.419 155.148 409.442 155.255 409.487C155.362 409.532 155.459 409.598 155.541 409.68C155.623 409.763 155.688 409.861 155.731 409.969C155.775 410.077 155.798 410.192 155.797 410.309V590.75C155.797 590.985 155.704 591.21 155.539 591.375C155.374 591.541 155.151 591.634 154.918 591.634Z" fill="#CCCCCC"/>
<path d="M611.239 444.022C611.113 444.022 610.988 443.995 610.873 443.942C610.758 443.89 610.656 443.813 610.574 443.717L566.345 392.45C566.193 392.273 566.117 392.042 566.134 391.809C566.15 391.575 566.259 391.358 566.435 391.204C566.611 391.051 566.84 390.974 567.072 390.99C567.305 391.007 567.521 391.115 567.674 391.292L611.903 442.559C612.013 442.687 612.085 442.844 612.109 443.012C612.133 443.179 612.108 443.35 612.038 443.504C611.968 443.659 611.856 443.789 611.714 443.881C611.572 443.973 611.407 444.021 611.239 444.022Z" fill="#CCCCCC"/>
<path d="M611.238 473.609C611.064 473.609 610.894 473.557 610.75 473.46C610.605 473.362 610.492 473.224 610.426 473.063C610.359 472.901 610.342 472.724 610.376 472.552C610.41 472.381 610.493 472.223 610.616 472.1L635.748 446.839C635.913 446.674 636.136 446.582 636.369 446.582C636.602 446.582 636.825 446.675 636.99 446.841C637.154 447.006 637.247 447.231 637.247 447.465C637.248 447.699 637.156 447.923 636.991 448.089L611.86 473.35C611.778 473.432 611.682 473.497 611.575 473.542C611.468 473.586 611.354 473.609 611.238 473.609Z" fill="#CCCCCC"/>
<path d="M692.602 592H626.863V591.232C626.861 586.892 627.71 582.594 629.36 578.584C631.011 574.574 633.432 570.93 636.485 567.86C639.537 564.791 643.161 562.356 647.15 560.695C651.139 559.033 655.415 558.178 659.732 558.178C664.05 558.178 668.326 559.033 672.314 560.695C676.303 562.356 679.928 564.791 682.98 567.86C686.032 570.93 688.453 574.574 690.104 578.584C691.755 582.594 692.604 586.892 692.602 591.232L692.602 592ZM628.401 590.463H691.064C690.864 582.244 687.476 574.429 681.622 568.687C675.768 562.945 667.912 559.73 659.732 559.73C651.553 559.73 643.697 562.945 637.843 568.687C631.989 574.429 628.6 582.244 628.401 590.463Z" fill="#3F3D56"/>
<path d="M659.732 572.48C659.502 572.48 659.282 572.572 659.119 572.736C658.956 572.899 658.865 573.121 658.865 573.353V582.618L649.885 574.871C649.799 574.796 649.699 574.739 649.59 574.703C649.482 574.667 649.367 574.653 649.254 574.662C649.14 574.67 649.029 574.701 648.927 574.753C648.825 574.805 648.734 574.876 648.66 574.963C648.586 575.05 648.529 575.151 648.494 575.26C648.458 575.369 648.444 575.484 648.453 575.599C648.462 575.713 648.493 575.825 648.545 575.927C648.597 576.029 648.668 576.12 648.755 576.195L658.865 584.916V590.359C658.864 590.474 658.886 590.588 658.93 590.694C658.973 590.8 659.037 590.897 659.118 590.978C659.198 591.059 659.294 591.124 659.4 591.167C659.505 591.211 659.618 591.234 659.732 591.234C659.847 591.234 659.96 591.211 660.065 591.167C660.17 591.124 660.266 591.059 660.347 590.978C660.427 590.897 660.491 590.8 660.535 590.694C660.578 590.588 660.6 590.474 660.6 590.359V573.353C660.6 573.121 660.509 572.899 660.346 572.736C660.183 572.572 659.963 572.48 659.732 572.48Z" fill="#3F3D56"/>
<path d="M141.501 592H75.7622V591.232C75.7601 586.892 76.6088 582.594 78.2597 578.584C79.9106 574.574 82.3314 570.93 85.3838 567.86C88.4362 564.791 92.0604 562.356 96.0493 560.695C100.038 559.033 104.314 558.178 108.631 558.178C112.949 558.178 117.225 559.033 121.214 560.695C125.203 562.356 128.827 564.791 131.879 567.86C134.932 570.93 137.352 574.574 139.003 578.584C140.654 582.594 141.503 586.892 141.501 591.232L141.501 592ZM77.3001 590.463H139.963C139.763 582.244 136.375 574.429 130.521 568.687C124.667 562.945 116.811 559.73 108.632 559.73C100.452 559.73 92.5962 562.945 86.7421 568.687C80.8881 574.429 77.4996 582.244 77.3001 590.463Z" fill="#3F3D56"/>
<path d="M108.631 572.48C108.401 572.48 108.18 572.572 108.018 572.736C107.855 572.899 107.764 573.121 107.764 573.353V582.618L98.7842 574.871C98.6978 574.796 98.5975 574.739 98.4891 574.703C98.3807 574.667 98.2664 574.653 98.1525 574.662C98.0387 574.67 97.9277 574.701 97.8259 574.753C97.724 574.805 97.6333 574.876 97.559 574.963C97.4846 575.05 97.4281 575.151 97.3926 575.26C97.3571 575.369 97.3434 575.484 97.3522 575.599C97.361 575.713 97.3922 575.825 97.4439 575.927C97.4957 576.029 97.567 576.12 97.6537 576.195L107.764 584.916V590.359C107.763 590.474 107.785 590.588 107.829 590.694C107.872 590.8 107.936 590.897 108.017 590.978C108.097 591.059 108.193 591.124 108.299 591.167C108.404 591.211 108.517 591.234 108.631 591.234C108.745 591.234 108.858 591.211 108.964 591.167C109.069 591.124 109.165 591.059 109.246 590.978C109.326 590.897 109.39 590.8 109.434 590.694C109.477 590.588 109.499 590.474 109.499 590.359V573.353C109.499 573.121 109.408 572.899 109.245 572.736C109.082 572.572 108.861 572.48 108.631 572.48Z" fill="#3F3D56"/>
<path d="M155.685 498.484C155.381 498.484 155.084 498.484 154.78 498.476C134.345 498.244 114.825 489.924 100.454 475.32C86.0823 460.716 78.0186 441.007 78.0115 420.466C78.0115 397.789 87.3031 361.496 100.607 332.207C110.175 311.144 130.052 275.809 155.685 275.809C166.244 275.809 176.875 281.857 187.285 293.787C187.801 294.375 188.319 294.981 188.829 295.602L189.004 295.815V490.945L188.573 491.154C188.058 491.405 187.536 491.64 187.014 491.867C177.422 496.134 167.062 498.383 156.573 498.476C156.287 498.484 155.982 498.484 155.685 498.484ZM155.685 277.345C130.907 277.345 111.413 312.118 101.998 332.845C88.775 361.955 79.5402 397.986 79.5402 420.466C79.5402 462.164 113.305 496.469 154.807 496.939C155.116 496.947 155.405 496.95 155.706 496.947C155.983 496.947 156.268 496.947 156.545 496.94C166.833 496.849 176.993 494.644 186.402 490.459C186.762 490.302 187.12 490.143 187.475 489.977V296.368C187.032 295.834 186.585 295.312 186.137 294.801C176.029 283.218 165.784 277.345 155.685 277.345Z" fill="#3F3D56"/>
<path d="M155.682 444.022C155.556 444.022 155.431 443.995 155.317 443.942C155.202 443.89 155.1 443.813 155.017 443.717L110.789 392.45C110.637 392.273 110.56 392.042 110.577 391.809C110.594 391.575 110.702 391.358 110.878 391.204C111.054 391.051 111.284 390.974 111.516 390.99C111.748 391.007 111.965 391.115 112.118 391.292L156.346 442.559C156.457 442.687 156.528 442.844 156.552 443.012C156.576 443.179 156.552 443.35 156.482 443.504C156.412 443.659 156.299 443.789 156.158 443.881C156.016 443.973 155.851 444.021 155.682 444.022Z" fill="#CCCCCC"/>
<path d="M155.682 473.609C155.508 473.609 155.338 473.557 155.193 473.46C155.049 473.362 154.936 473.224 154.869 473.063C154.803 472.901 154.785 472.724 154.819 472.552C154.853 472.381 154.937 472.223 155.06 472.1L180.191 446.839C180.356 446.674 180.58 446.582 180.813 446.582C181.045 446.582 181.269 446.675 181.433 446.841C181.598 447.006 181.69 447.231 181.691 447.465C181.691 447.699 181.599 447.923 181.435 448.089L156.304 473.35C156.222 473.432 156.125 473.497 156.018 473.542C155.912 473.586 155.797 473.609 155.682 473.609Z" fill="#CCCCCC"/>
<path d="M224.745 133.679L225.31 134.8C225.561 135.284 225.692 135.822 225.693 136.368V166.714H252.445V136.368C252.446 135.822 252.577 135.284 252.827 134.8L253.393 133.679H224.745ZM250.916 136.368V165.178H227.221V136.368C227.222 135.979 227.176 135.592 227.084 135.215H251.054C250.962 135.592 250.916 135.979 250.916 136.368ZM258.376 133.679L258.942 134.8C259.193 135.284 259.324 135.822 259.324 136.368V166.714H286.077V136.368C286.077 135.822 286.208 135.284 286.459 134.8L287.025 133.679H258.376ZM284.548 136.368V165.178H260.853V136.368C260.853 135.979 260.807 135.592 260.715 135.215H284.686C284.594 135.592 284.548 135.979 284.548 136.368ZM292.008 133.679L292.574 134.8C292.825 135.284 292.956 135.822 292.956 136.368V166.714H319.709V136.368C319.709 135.822 319.84 135.284 320.091 134.8L320.657 133.679H292.008ZM318.18 136.368V165.178H294.485V136.368C294.485 135.979 294.439 135.592 294.347 135.215H318.318C318.226 135.592 318.179 135.979 318.18 136.368ZM325.64 133.679L326.206 134.8C326.456 135.284 326.587 135.822 326.588 136.368V166.714H353.34V136.368C353.341 135.822 353.472 135.284 353.722 134.8L354.288 133.679H325.64ZM351.812 136.368V165.178H328.116V136.368C328.117 135.979 328.071 135.592 327.979 135.215H351.949C351.857 135.592 351.811 135.979 351.812 136.368ZM359.271 133.679L359.837 134.8C360.088 135.284 360.219 135.822 360.219 136.368V166.714H386.972V136.368C386.972 135.822 387.103 135.284 387.354 134.8L387.92 133.679H359.271ZM385.443 136.368V165.178H361.748V136.368C361.749 135.979 361.702 135.592 361.61 135.215H385.581C385.489 135.592 385.443 135.979 385.443 136.368ZM392.903 133.679L393.469 134.8C393.72 135.284 393.851 135.822 393.851 136.368V166.714H420.604V136.368C420.604 135.822 420.735 135.284 420.986 134.8L421.552 133.679H392.903ZM419.075 136.368V165.178H395.38V136.368C395.38 135.979 395.334 135.592 395.242 135.215H419.213C419.121 135.592 419.074 135.979 419.075 136.368ZM426.535 133.679L427.101 134.8C427.351 135.284 427.482 135.822 427.483 136.368V166.714H454.235V136.368C454.236 135.822 454.367 135.284 454.617 134.8L455.183 133.679H426.535ZM452.707 136.368V165.178H429.012V136.368C429.012 135.979 428.966 135.592 428.874 135.215H452.844C452.752 135.592 452.706 135.979 452.707 136.368ZM460.167 133.679L460.732 134.8C460.983 135.284 461.114 135.822 461.114 136.368V166.714H487.867V136.368C487.867 135.822 487.998 135.284 488.249 134.8L488.815 133.679H460.167ZM486.338 136.368V165.178H462.643V136.368C462.644 135.979 462.597 135.592 462.505 135.215H486.476C486.384 135.592 486.338 135.979 486.338 136.368ZM493.798 133.679L494.364 134.8C494.615 135.284 494.746 135.822 494.746 136.368V166.714H521.499V136.368C521.499 135.822 521.63 135.284 521.881 134.8L522.447 133.679H493.798ZM519.97 136.368V165.178H496.275V136.368C496.275 135.979 496.229 135.592 496.137 135.215H520.108C520.016 135.592 519.97 135.979 519.97 136.368ZM493.798 133.679L494.364 134.8C494.615 135.284 494.746 135.822 494.746 136.368V166.714H521.499V136.368C521.499 135.822 521.63 135.284 521.881 134.8L522.447 133.679H493.798ZM519.97 136.368V165.178H496.275V136.368C496.275 135.979 496.229 135.592 496.137 135.215H520.108C520.016 135.592 519.97 135.979 519.97 136.368ZM460.167 133.679L460.732 134.8C460.983 135.284 461.114 135.822 461.114 136.368V166.714H487.867V136.368C487.867 135.822 487.998 135.284 488.249 134.8L488.815 133.679H460.167ZM486.338 136.368V165.178H462.643V136.368C462.644 135.979 462.597 135.592 462.505 135.215H486.476C486.384 135.592 486.338 135.979 486.338 136.368ZM426.535 133.679L427.101 134.8C427.351 135.284 427.482 135.822 427.483 136.368V166.714H454.235V136.368C454.236 135.822 454.367 135.284 454.617 134.8L455.183 133.679H426.535ZM452.707 136.368V165.178H429.012V136.368C429.012 135.979 428.966 135.592 428.874 135.215H452.844C452.752 135.592 452.706 135.979 452.707 136.368ZM392.903 133.679L393.469 134.8C393.72 135.284 393.851 135.822 393.851 136.368V166.714H420.604V136.368C420.604 135.822 420.735 135.284 420.986 134.8L421.552 133.679H392.903ZM419.075 136.368V165.178H395.38V136.368C395.38 135.979 395.334 135.592 395.242 135.215H419.213C419.121 135.592 419.074 135.979 419.075 136.368ZM359.271 133.679L359.837 134.8C360.088 135.284 360.219 135.822 360.219 136.368V166.714H386.972V136.368C386.972 135.822 387.103 135.284 387.354 134.8L387.92 133.679H359.271ZM385.443 136.368V165.178H361.748V136.368C361.749 135.979 361.702 135.592 361.61 135.215H385.581C385.489 135.592 385.443 135.979 385.443 136.368ZM325.64 133.679L326.206 134.8C326.456 135.284 326.587 135.822 326.588 136.368V166.714H353.34V136.368C353.341 135.822 353.472 135.284 353.722 134.8L354.288 133.679H325.64ZM351.812 136.368V165.178H328.116V136.368C328.117 135.979 328.071 135.592 327.979 135.215H351.949C351.857 135.592 351.811 135.979 351.812 136.368ZM292.008 133.679L292.574 134.8C292.825 135.284 292.956 135.822 292.956 136.368V166.714H319.709V136.368C319.709 135.822 319.84 135.284 320.091 134.8L320.657 133.679H292.008ZM318.18 136.368V165.178H294.485V136.368C294.485 135.979 294.439 135.592 294.347 135.215H318.318C318.226 135.592 318.179 135.979 318.18 136.368ZM258.376 133.679L258.942 134.8C259.193 135.284 259.324 135.822 259.324 136.368V166.714H286.077V136.368C286.077 135.822 286.208 135.284 286.459 134.8L287.025 133.679H258.376ZM284.548 136.368V165.178H260.853V136.368C260.853 135.979 260.807 135.592 260.715 135.215H284.686C284.594 135.592 284.548 135.979 284.548 136.368ZM224.745 133.679L225.31 134.8C225.561 135.284 225.692 135.822 225.693 136.368V166.714H252.445V136.368C252.446 135.822 252.577 135.284 252.827 134.8L253.393 133.679H224.745ZM250.916 136.368V165.178H227.221V136.368C227.222 135.979 227.176 135.592 227.084 135.215H251.054C250.962 135.592 250.916 135.979 250.916 136.368ZM493.798 133.679L494.364 134.8C494.615 135.284 494.746 135.822 494.746 136.368V166.714H521.499V136.368C521.499 135.822 521.63 135.284 521.881 134.8L522.447 133.679H493.798ZM519.97 136.368V165.178H496.275V136.368C496.275 135.979 496.229 135.592 496.137 135.215H520.108C520.016 135.592 519.97 135.979 519.97 136.368ZM460.167 133.679L460.732 134.8C460.983 135.284 461.114 135.822 461.114 136.368V166.714H487.867V136.368C487.867 135.822 487.998 135.284 488.249 134.8L488.815 133.679H460.167ZM486.338 136.368V165.178H462.643V136.368C462.644 135.979 462.597 135.592 462.505 135.215H486.476C486.384 135.592 486.338 135.979 486.338 136.368ZM426.535 133.679L427.101 134.8C427.351 135.284 427.482 135.822 427.483 136.368V166.714H454.235V136.368C454.236 135.822 454.367 135.284 454.617 134.8L455.183 133.679H426.535ZM452.707 136.368V165.178H429.012V136.368C429.012 135.979 428.966 135.592 428.874 135.215H452.844C452.752 135.592 452.706 135.979 452.707 136.368ZM392.903 133.679L393.469 134.8C393.72 135.284 393.851 135.822 393.851 136.368V166.714H420.604V136.368C420.604 135.822 420.735 135.284 420.986 134.8L421.552 133.679H392.903ZM419.075 136.368V165.178H395.38V136.368C395.38 135.979 395.334 135.592 395.242 135.215H419.213C419.121 135.592 419.074 135.979 419.075 136.368ZM359.271 133.679L359.837 134.8C360.088 135.284 360.219 135.822 360.219 136.368V166.714H386.972V136.368C386.972 135.822 387.103 135.284 387.354 134.8L387.92 133.679H359.271ZM385.443 136.368V165.178H361.748V136.368C361.749 135.979 361.702 135.592 361.61 135.215H385.581C385.489 135.592 385.443 135.979 385.443 136.368ZM325.64 133.679L326.206 134.8C326.456 135.284 326.587 135.822 326.588 136.368V166.714H353.34V136.368C353.341 135.822 353.472 135.284 353.722 134.8L354.288 133.679H325.64ZM351.812 136.368V165.178H328.116V136.368C328.117 135.979 328.071 135.592 327.979 135.215H351.949C351.857 135.592 351.811 135.979 351.812 136.368ZM292.008 133.679L292.574 134.8C292.825 135.284 292.956 135.822 292.956 136.368V166.714H319.709V136.368C319.709 135.822 319.84 135.284 320.091 134.8L320.657 133.679H292.008ZM318.18 136.368V165.178H294.485V136.368C294.485 135.979 294.439 135.592 294.347 135.215H318.318C318.226 135.592 318.179 135.979 318.18 136.368ZM258.376 133.679L258.942 134.8C259.193 135.284 259.324 135.822 259.324 136.368V166.714H286.077V136.368C286.077 135.822 286.208 135.284 286.459 134.8L287.025 133.679H258.376ZM284.548 136.368V165.178H260.853V136.368C260.853 135.979 260.807 135.592 260.715 135.215H284.686C284.594 135.592 284.548 135.979 284.548 136.368ZM224.745 133.679L225.31 134.8C225.561 135.284 225.692 135.822 225.693 136.368V166.714H252.445V136.368C252.446 135.822 252.577 135.284 252.827 134.8L253.393 133.679H224.745ZM250.916 136.368V165.178H227.221V136.368C227.222 135.979 227.176 135.592 227.084 135.215H251.054C250.962 135.592 250.916 135.979 250.916 136.368ZM493.798 133.679L494.364 134.8C494.615 135.284 494.746 135.822 494.746 136.368V166.714H521.499V136.368C521.499 135.822 521.63 135.284 521.881 134.8L522.447 133.679H493.798ZM519.97 136.368V165.178H496.275V136.368C496.275 135.979 496.229 135.592 496.137 135.215H520.108C520.016 135.592 519.97 135.979 519.97 136.368ZM460.167 133.679L460.732 134.8C460.983 135.284 461.114 135.822 461.114 136.368V166.714H487.867V136.368C487.867 135.822 487.998 135.284 488.249 134.8L488.815 133.679H460.167ZM486.338 136.368V165.178H462.643V136.368C462.644 135.979 462.597 135.592 462.505 135.215H486.476C486.384 135.592 486.338 135.979 486.338 136.368ZM426.535 133.679L427.101 134.8C427.351 135.284 427.482 135.822 427.483 136.368V166.714H454.235V136.368C454.236 135.822 454.367 135.284 454.617 134.8L455.183 133.679H426.535ZM452.707 136.368V165.178H429.012V136.368C429.012 135.979 428.966 135.592 428.874 135.215H452.844C452.752 135.592 452.706 135.979 452.707 136.368ZM392.903 133.679L393.469 134.8C393.72 135.284 393.851 135.822 393.851 136.368V166.714H420.604V136.368C420.604 135.822 420.735 135.284 420.986 134.8L421.552 133.679H392.903ZM419.075 136.368V165.178H395.38V136.368C395.38 135.979 395.334 135.592 395.242 135.215H419.213C419.121 135.592 419.074 135.979 419.075 136.368ZM359.271 133.679L359.837 134.8C360.088 135.284 360.219 135.822 360.219 136.368V166.714H386.972V136.368C386.972 135.822 387.103 135.284 387.354 134.8L387.92 133.679H359.271ZM385.443 136.368V165.178H361.748V136.368C361.749 135.979 361.702 135.592 361.61 135.215H385.581C385.489 135.592 385.443 135.979 385.443 136.368ZM325.64 133.679L326.206 134.8C326.456 135.284 326.587 135.822 326.588 136.368V166.714H353.34V136.368C353.341 135.822 353.472 135.284 353.722 134.8L354.288 133.679H325.64ZM351.812 136.368V165.178H328.116V136.368C328.117 135.979 328.071 135.592 327.979 135.215H351.949C351.857 135.592 351.811 135.979 351.812 136.368ZM292.008 133.679L292.574 134.8C292.825 135.284 292.956 135.822 292.956 136.368V166.714H319.709V136.368C319.709 135.822 319.84 135.284 320.091 134.8L320.657 133.679H292.008ZM318.18 136.368V165.178H294.485V136.368C294.485 135.979 294.439 135.592 294.347 135.215H318.318C318.226 135.592 318.179 135.979 318.18 136.368ZM258.376 133.679L258.942 134.8C259.193 135.284 259.324 135.822 259.324 136.368V166.714H286.077V136.368C286.077 135.822 286.208 135.284 286.459 134.8L287.025 133.679H258.376ZM284.548 136.368V165.178H260.853V136.368C260.853 135.979 260.807 135.592 260.715 135.215H284.686C284.594 135.592 284.548 135.979 284.548 136.368ZM224.745 133.679L225.31 134.8C225.561 135.284 225.692 135.822 225.693 136.368V166.714H252.445V136.368C252.446 135.822 252.577 135.284 252.827 134.8L253.393 133.679H224.745ZM250.916 136.368V165.178H227.221V136.368C227.222 135.979 227.176 135.592 227.084 135.215H251.054C250.962 135.592 250.916 135.979 250.916 136.368ZM493.798 133.679L494.364 134.8C494.615 135.284 494.746 135.822 494.746 136.368V166.714H521.499V136.368C521.499 135.822 521.63 135.284 521.881 134.8L522.447 133.679H493.798ZM519.97 136.368V165.178H496.275V136.368C496.275 135.979 496.229 135.592 496.137 135.215H520.108C520.016 135.592 519.97 135.979 519.97 136.368ZM460.167 133.679L460.732 134.8C460.983 135.284 461.114 135.822 461.114 136.368V166.714H487.867V136.368C487.867 135.822 487.998 135.284 488.249 134.8L488.815 133.679H460.167ZM486.338 136.368V165.178H462.643V136.368C462.644 135.979 462.597 135.592 462.505 135.215H486.476C486.384 135.592 486.338 135.979 486.338 136.368ZM426.535 133.679L427.101 134.8C427.351 135.284 427.482 135.822 427.483 136.368V166.714H454.235V136.368C454.236 135.822 454.367 135.284 454.617 134.8L455.183 133.679H426.535ZM452.707 136.368V165.178H429.012V136.368C429.012 135.979 428.966 135.592 428.874 135.215H452.844C452.752 135.592 452.706 135.979 452.707 136.368ZM392.903 133.679L393.469 134.8C393.72 135.284 393.851 135.822 393.851 136.368V166.714H420.604V136.368C420.604 135.822 420.735 135.284 420.986 134.8L421.552 133.679H392.903ZM419.075 136.368V165.178H395.38V136.368C395.38 135.979 395.334 135.592 395.242 135.215H419.213C419.121 135.592 419.074 135.979 419.075 136.368ZM359.271 133.679L359.837 134.8C360.088 135.284 360.219 135.822 360.219 136.368V166.714H386.972V136.368C386.972 135.822 387.103 135.284 387.354 134.8L387.92 133.679H359.271ZM385.443 136.368V165.178H361.748V136.368C361.749 135.979 361.702 135.592 361.61 135.215H385.581C385.489 135.592 385.443 135.979 385.443 136.368ZM325.64 133.679L326.206 134.8C326.456 135.284 326.587 135.822 326.588 136.368V166.714H353.34V136.368C353.341 135.822 353.472 135.284 353.722 134.8L354.288 133.679H325.64ZM351.812 136.368V165.178H328.116V136.368C328.117 135.979 328.071 135.592 327.979 135.215H351.949C351.857 135.592 351.811 135.979 351.812 136.368ZM292.008 133.679L292.574 134.8C292.825 135.284 292.956 135.822 292.956 136.368V166.714H319.709V136.368C319.709 135.822 319.84 135.284 320.091 134.8L320.657 133.679H292.008ZM318.18 136.368V165.178H294.485V136.368C294.485 135.979 294.439 135.592 294.347 135.215H318.318C318.226 135.592 318.179 135.979 318.18 136.368ZM258.376 133.679L258.942 134.8C259.193 135.284 259.324 135.822 259.324 136.368V166.714H286.077V136.368C286.077 135.822 286.208 135.284 286.459 134.8L287.025 133.679H258.376ZM284.548 136.368V165.178H260.853V136.368C260.853 135.979 260.807 135.592 260.715 135.215H284.686C284.594 135.592 284.548 135.979 284.548 136.368ZM224.745 133.679L225.31 134.8C225.561 135.284 225.692 135.822 225.693 136.368V166.714H252.445V136.368C252.446 135.822 252.577 135.284 252.827 134.8L253.393 133.679H224.745ZM250.916 136.368V165.178H227.221V136.368C227.222 135.979 227.176 135.592 227.084 135.215H251.054C250.962 135.592 250.916 135.979 250.916 136.368ZM493.798 133.679L494.364 134.8C494.615 135.284 494.746 135.822 494.746 136.368V166.714H521.499V136.368C521.499 135.822 521.63 135.284 521.881 134.8L522.447 133.679H493.798ZM519.97 136.368V165.178H496.275V136.368C496.275 135.979 496.229 135.592 496.137 135.215H520.108C520.016 135.592 519.97 135.979 519.97 136.368ZM460.732 134.8C460.983 135.284 461.114 135.822 461.114 136.368V166.714H487.867V136.368C487.867 135.822 487.998 135.284 488.249 134.8L488.815 133.679H460.167L460.732 134.8ZM486.476 135.215C486.384 135.592 486.338 135.979 486.338 136.368V165.178H462.643V136.368C462.644 135.979 462.597 135.592 462.505 135.215H486.476ZM427.101 134.8C427.351 135.284 427.482 135.822 427.483 136.368V166.714H454.235V136.368C454.236 135.822 454.367 135.284 454.617 134.8L455.183 133.679H426.535L427.101 134.8ZM452.844 135.215C452.752 135.592 452.706 135.979 452.707 136.368V165.178H429.012V136.368C429.012 135.979 428.966 135.592 428.874 135.215H452.844ZM393.469 134.8C393.72 135.284 393.851 135.822 393.851 136.368V166.714H420.604V136.368C420.604 135.822 420.735 135.284 420.986 134.8L421.552 133.679H392.903L393.469 134.8ZM419.213 135.215C419.121 135.592 419.074 135.979 419.075 136.368V165.178H395.38V136.368C395.38 135.979 395.334 135.592 395.242 135.215H419.213ZM359.837 134.8C360.088 135.284 360.219 135.822 360.219 136.368V166.714H386.972V136.368C386.972 135.822 387.103 135.284 387.354 134.8L387.92 133.679H359.271L359.837 134.8ZM385.581 135.215C385.489 135.592 385.443 135.979 385.443 136.368V165.178H361.748V136.368C361.749 135.979 361.702 135.592 361.61 135.215H385.581ZM326.206 134.8C326.456 135.284 326.587 135.822 326.588 136.368V166.714H353.34V136.368C353.341 135.822 353.472 135.284 353.722 134.8L354.288 133.679H325.64L326.206 134.8ZM351.949 135.215C351.857 135.592 351.811 135.979 351.812 136.368V165.178H328.116V136.368C328.117 135.979 328.071 135.592 327.979 135.215H351.949ZM292.574 134.8C292.825 135.284 292.956 135.822 292.956 136.368V166.714H319.709V136.368C319.709 135.822 319.84 135.284 320.091 134.8L320.657 133.679H292.008L292.574 134.8ZM318.318 135.215C318.226 135.592 318.179 135.979 318.18 136.368V165.178H294.485V136.368C294.485 135.979 294.439 135.592 294.347 135.215H318.318ZM258.942 134.8C259.193 135.284 259.324 135.822 259.324 136.368V166.714H286.077V136.368C286.077 135.822 286.208 135.284 286.459 134.8L287.025 133.679H258.376L258.942 134.8ZM284.686 135.215C284.594 135.592 284.548 135.979 284.548 136.368V165.178H260.853V136.368C260.853 135.979 260.807 135.592 260.715 135.215H284.686ZM225.31 134.8C225.561 135.284 225.692 135.822 225.693 136.368V166.714H252.445V136.368C252.446 135.822 252.577 135.284 252.827 134.8L253.393 133.679H224.745L225.31 134.8ZM251.054 135.215C250.962 135.592 250.916 135.979 250.916 136.368V165.178H227.221V136.368C227.222 135.979 227.176 135.592 227.084 135.215H251.054ZM494.364 134.8C494.615 135.284 494.746 135.822 494.746 136.368V166.714H521.499V136.368C521.499 135.822 521.63 135.284 521.881 134.8L522.447 133.679H493.798L494.364 134.8ZM520.108 135.215C520.016 135.592 519.97 135.979 519.97 136.368V165.178H496.275V136.368C496.275 135.979 496.229 135.592 496.137 135.215H520.108ZM460.732 134.8C460.983 135.284 461.114 135.822 461.114 136.368V166.714H487.867V136.368C487.867 135.822 487.998 135.284 488.249 134.8L488.815 133.679H460.167L460.732 134.8ZM486.476 135.215C486.384 135.592 486.338 135.979 486.338 136.368V165.178H462.643V136.368C462.644 135.979 462.597 135.592 462.505 135.215H486.476ZM427.101 134.8C427.351 135.284 427.482 135.822 427.483 136.368V166.714H454.235V136.368C454.236 135.822 454.367 135.284 454.617 134.8L455.183 133.679H426.535L427.101 134.8ZM452.844 135.215C452.752 135.592 452.706 135.979 452.707 136.368V165.178H429.012V136.368C429.012 135.979 428.966 135.592 428.874 135.215H452.844ZM393.469 134.8C393.72 135.284 393.851 135.822 393.851 136.368V166.714H420.604V136.368C420.604 135.822 420.735 135.284 420.986 134.8L421.552 133.679H392.903L393.469 134.8ZM419.213 135.215C419.121 135.592 419.074 135.979 419.075 136.368V165.178H395.38V136.368C395.38 135.979 395.334 135.592 395.242 135.215H419.213ZM359.837 134.8C360.088 135.284 360.219 135.822 360.219 136.368V166.714H386.972V136.368C386.972 135.822 387.103 135.284 387.354 134.8L387.92 133.679H359.271L359.837 134.8ZM385.581 135.215C385.489 135.592 385.443 135.979 385.443 136.368V165.178H361.748V136.368C361.749 135.979 361.702 135.592 361.61 135.215H385.581ZM326.206 134.8C326.456 135.284 326.587 135.822 326.588 136.368V166.714H353.34V136.368C353.341 135.822 353.472 135.284 353.722 134.8L354.288 133.679H325.64L326.206 134.8ZM351.949 135.215C351.857 135.592 351.811 135.979 351.812 136.368V165.178H328.116V136.368C328.117 135.979 328.071 135.592 327.979 135.215H351.949ZM292.574 134.8C292.825 135.284 292.956 135.822 292.956 136.368V166.714H319.709V136.368C319.709 135.822 319.84 135.284 320.091 134.8L320.657 133.679H292.008L292.574 134.8ZM318.318 135.215C318.226 135.592 318.179 135.979 318.18 136.368V165.178H294.485V136.368C294.485 135.979 294.439 135.592 294.347 135.215H318.318ZM258.942 134.8C259.193 135.284 259.324 135.822 259.324 136.368V166.714H286.077V136.368C286.077 135.822 286.208 135.284 286.459 134.8L287.025 133.679H258.376L258.942 134.8ZM284.686 135.215C284.594 135.592 284.548 135.979 284.548 136.368V165.178H260.853V136.368C260.853 135.979 260.807 135.592 260.715 135.215H284.686ZM225.31 134.8C225.561 135.284 225.692 135.822 225.693 136.368V166.714H252.445V136.368C252.446 135.822 252.577 135.284 252.827 134.8L253.393 133.679H224.745L225.31 134.8ZM251.054 135.215C250.962 135.592 250.916 135.979 250.916 136.368V165.178H227.221V136.368C227.222 135.979 227.176 135.592 227.084 135.215H251.054ZM552.073 171.324H542.962C542.459 169.557 541.399 168.001 539.94 166.893C538.481 165.784 536.704 165.182 534.875 165.178H529.907V136.368C529.909 135.749 529.792 135.136 529.562 134.562C530.429 134.05 531.103 133.265 531.481 132.329C531.859 131.393 531.92 130.358 531.655 129.383C531.39 128.409 530.813 127.549 530.014 126.937C529.214 126.325 528.236 125.994 527.231 125.996H219.96C218.955 125.994 217.977 126.325 217.178 126.937C216.378 127.549 215.801 128.409 215.536 129.383C215.271 130.358 215.332 131.393 215.71 132.329C216.089 133.265 216.763 134.05 217.629 134.562C217.4 135.136 217.283 135.749 217.285 136.368V165.178H212.316C210.488 165.182 208.71 165.784 207.251 166.893C205.793 168.001 204.732 169.557 204.23 171.324H194.354C192.53 171.327 190.782 172.056 189.493 173.352C188.203 174.648 187.478 176.405 187.475 178.238V583.884C187.479 585.717 188.205 587.473 189.494 588.769C190.783 590.065 192.531 590.795 194.354 590.799H552.073C553.897 590.796 555.645 590.067 556.934 588.771C558.224 587.475 558.949 585.717 558.952 583.884V178.238C558.949 176.405 558.224 174.648 556.934 173.352C555.645 172.056 553.897 171.327 552.073 171.324ZM557.423 583.884C557.422 584.982 557.087 586.054 556.462 586.954C555.838 587.855 554.955 588.543 553.93 588.924C553.337 589.151 552.708 589.266 552.073 589.262H194.354C193.719 589.266 193.09 589.151 192.497 588.924C191.472 588.543 190.589 587.855 189.964 586.954C189.34 586.054 189.005 584.982 189.004 583.884V178.238C189.005 176.813 189.569 175.446 190.572 174.437C191.576 173.429 192.936 172.862 194.354 172.861H205.453L205.575 172.246C205.896 170.686 206.742 169.285 207.969 168.278C209.197 167.271 210.732 166.719 212.316 166.714H218.813V136.368C218.814 135.743 218.983 135.129 219.303 134.593L219.776 133.802L218.913 133.479C218.238 133.233 217.671 132.756 217.312 132.131C216.952 131.506 216.824 130.774 216.949 130.063C217.074 129.353 217.445 128.709 217.996 128.246C218.546 127.783 219.242 127.531 219.96 127.533H527.231C527.949 127.531 528.645 127.783 529.196 128.246C529.746 128.709 530.117 129.353 530.242 130.063C530.367 130.774 530.239 131.506 529.88 132.131C529.521 132.756 528.953 133.233 528.279 133.479L527.415 133.802L527.889 134.593C528.209 135.129 528.378 135.743 528.378 136.368V166.714H534.875C536.459 166.719 537.994 167.271 539.222 168.278C540.45 169.285 541.295 170.686 541.616 172.246L541.739 172.861H552.073C553.491 172.862 554.851 173.429 555.854 174.437C556.858 175.446 557.422 176.813 557.423 178.238L557.423 583.884ZM224.745 133.679L225.31 134.8C225.561 135.284 225.692 135.822 225.693 136.368V166.714H252.445V136.368C252.446 135.822 252.577 135.284 252.827 134.8L253.393 133.679H224.745ZM250.916 136.368V165.178H227.221V136.368C227.222 135.979 227.176 135.592 227.084 135.215H251.054C250.962 135.592 250.916 135.979 250.916 136.368ZM258.376 133.679L258.942 134.8C259.193 135.284 259.324 135.822 259.324 136.368V166.714H286.077V136.368C286.077 135.822 286.208 135.284 286.459 134.8L287.025 133.679H258.376ZM284.548 136.368V165.178H260.853V136.368C260.853 135.979 260.807 135.592 260.715 135.215H284.686C284.594 135.592 284.548 135.979 284.548 136.368ZM292.008 133.679L292.574 134.8C292.825 135.284 292.956 135.822 292.956 136.368V166.714H319.709V136.368C319.709 135.822 319.84 135.284 320.091 134.8L320.657 133.679H292.008ZM318.18 136.368V165.178H294.485V136.368C294.485 135.979 294.439 135.592 294.347 135.215H318.318C318.226 135.592 318.179 135.979 318.18 136.368ZM325.64 133.679L326.206 134.8C326.456 135.284 326.587 135.822 326.588 136.368V166.714H353.34V136.368C353.341 135.822 353.472 135.284 353.722 134.8L354.288 133.679H325.64ZM351.812 136.368V165.178H328.116V136.368C328.117 135.979 328.071 135.592 327.979 135.215H351.949C351.857 135.592 351.811 135.979 351.812 136.368ZM359.271 133.679L359.837 134.8C360.088 135.284 360.219 135.822 360.219 136.368V166.714H386.972V136.368C386.972 135.822 387.103 135.284 387.354 134.8L387.92 133.679H359.271ZM385.443 136.368V165.178H361.748V136.368C361.749 135.979 361.702 135.592 361.61 135.215H385.581C385.489 135.592 385.443 135.979 385.443 136.368ZM392.903 133.679L393.469 134.8C393.72 135.284 393.851 135.822 393.851 136.368V166.714H420.604V136.368C420.604 135.822 420.735 135.284 420.986 134.8L421.552 133.679H392.903ZM419.075 136.368V165.178H395.38V136.368C395.38 135.979 395.334 135.592 395.242 135.215H419.213C419.121 135.592 419.074 135.979 419.075 136.368ZM426.535 133.679L427.101 134.8C427.351 135.284 427.482 135.822 427.483 136.368V166.714H454.235V136.368C454.236 135.822 454.367 135.284 454.617 134.8L455.183 133.679H426.535ZM452.707 136.368V165.178H429.012V136.368C429.012 135.979 428.966 135.592 428.874 135.215H452.844C452.752 135.592 452.706 135.979 452.707 136.368ZM460.167 133.679L460.732 134.8C460.983 135.284 461.114 135.822 461.114 136.368V166.714H487.867V136.368C487.867 135.822 487.998 135.284 488.249 134.8L488.815 133.679H460.167ZM486.338 136.368V165.178H462.643V136.368C462.644 135.979 462.597 135.592 462.505 135.215H486.476C486.384 135.592 486.338 135.979 486.338 136.368ZM493.798 133.679L494.364 134.8C494.615 135.284 494.746 135.822 494.746 136.368V166.714H521.499V136.368C521.499 135.822 521.63 135.284 521.881 134.8L522.447 133.679H493.798ZM519.97 136.368V165.178H496.275V136.368C496.275 135.979 496.229 135.592 496.137 135.215H520.108C520.016 135.592 519.97 135.979 519.97 136.368ZM224.745 133.679L225.31 134.8C225.561 135.284 225.692 135.822 225.693 136.368V166.714H252.445V136.368C252.446 135.822 252.577 135.284 252.827 134.8L253.393 133.679H224.745ZM250.916 136.368V165.178H227.221V136.368C227.222 135.979 227.176 135.592 227.084 135.215H251.054C250.962 135.592 250.916 135.979 250.916 136.368ZM258.376 133.679L258.942 134.8C259.193 135.284 259.324 135.822 259.324 136.368V166.714H286.077V136.368C286.077 135.822 286.208 135.284 286.459 134.8L287.025 133.679H258.376ZM284.548 136.368V165.178H260.853V136.368C260.853 135.979 260.807 135.592 260.715 135.215H284.686C284.594 135.592 284.548 135.979 284.548 136.368ZM292.008 133.679L292.574 134.8C292.825 135.284 292.956 135.822 292.956 136.368V166.714H319.709V136.368C319.709 135.822 319.84 135.284 320.091 134.8L320.657 133.679H292.008ZM318.18 136.368V165.178H294.485V136.368C294.485 135.979 294.439 135.592 294.347 135.215H318.318C318.226 135.592 318.179 135.979 318.18 136.368ZM325.64 133.679L326.206 134.8C326.456 135.284 326.587 135.822 326.588 136.368V166.714H353.34V136.368C353.341 135.822 353.472 135.284 353.722 134.8L354.288 133.679H325.64ZM351.812 136.368V165.178H328.116V136.368C328.117 135.979 328.071 135.592 327.979 135.215H351.949C351.857 135.592 351.811 135.979 351.812 136.368ZM359.271 133.679L359.837 134.8C360.088 135.284 360.219 135.822 360.219 136.368V166.714H386.972V136.368C386.972 135.822 387.103 135.284 387.354 134.8L387.92 133.679H359.271ZM385.443 136.368V165.178H361.748V136.368C361.749 135.979 361.702 135.592 361.61 135.215H385.581C385.489 135.592 385.443 135.979 385.443 136.368ZM392.903 133.679L393.469 134.8C393.72 135.284 393.851 135.822 393.851 136.368V166.714H420.604V136.368C420.604 135.822 420.735 135.284 420.986 134.8L421.552 133.679H392.903ZM419.075 136.368V165.178H395.38V136.368C395.38 135.979 395.334 135.592 395.242 135.215H419.213C419.121 135.592 419.074 135.979 419.075 136.368ZM426.535 133.679L427.101 134.8C427.351 135.284 427.482 135.822 427.483 136.368V166.714H454.235V136.368C454.236 135.822 454.367 135.284 454.617 134.8L455.183 133.679H426.535ZM452.707 136.368V165.178H429.012V136.368C429.012 135.979 428.966 135.592 428.874 135.215H452.844C452.752 135.592 452.706 135.979 452.707 136.368ZM460.167 133.679L460.732 134.8C460.983 135.284 461.114 135.822 461.114 136.368V166.714H487.867V136.368C487.867 135.822 487.998 135.284 488.249 134.8L488.815 133.679H460.167ZM486.338 136.368V165.178H462.643V136.368C462.644 135.979 462.597 135.592 462.505 135.215H486.476C486.384 135.592 486.338 135.979 486.338 136.368ZM493.798 133.679L494.364 134.8C494.615 135.284 494.746 135.822 494.746 136.368V166.714H521.499V136.368C521.499 135.822 521.63 135.284 521.881 134.8L522.447 133.679H493.798ZM519.97 136.368V165.178H496.275V136.368C496.275 135.979 496.229 135.592 496.137 135.215H520.108C520.016 135.592 519.97 135.979 519.97 136.368ZM224.745 133.679L225.31 134.8C225.561 135.284 225.692 135.822 225.693 136.368V166.714H252.445V136.368C252.446 135.822 252.577 135.284 252.827 134.8L253.393 133.679H224.745ZM250.916 136.368V165.178H227.221V136.368C227.222 135.979 227.176 135.592 227.084 135.215H251.054C250.962 135.592 250.916 135.979 250.916 136.368ZM258.376 133.679L258.942 134.8C259.193 135.284 259.324 135.822 259.324 136.368V166.714H286.077V136.368C286.077 135.822 286.208 135.284 286.459 134.8L287.025 133.679H258.376ZM284.548 136.368V165.178H260.853V136.368C260.853 135.979 260.807 135.592 260.715 135.215H284.686C284.594 135.592 284.548 135.979 284.548 136.368ZM292.008 133.679L292.574 134.8C292.825 135.284 292.956 135.822 292.956 136.368V166.714H319.709V136.368C319.709 135.822 319.84 135.284 320.091 134.8L320.657 133.679H292.008ZM318.18 136.368V165.178H294.485V136.368C294.485 135.979 294.439 135.592 294.347 135.215H318.318C318.226 135.592 318.179 135.979 318.18 136.368ZM325.64 133.679L326.206 134.8C326.456 135.284 326.587 135.822 326.588 136.368V166.714H353.34V136.368C353.341 135.822 353.472 135.284 353.722 134.8L354.288 133.679H325.64ZM351.812 136.368V165.178H328.116V136.368C328.117 135.979 328.071 135.592 327.979 135.215H351.949C351.857 135.592 351.811 135.979 351.812 136.368ZM359.271 133.679L359.837 134.8C360.088 135.284 360.219 135.822 360.219 136.368V166.714H386.972V136.368C386.972 135.822 387.103 135.284 387.354 134.8L387.92 133.679H359.271ZM385.443 136.368V165.178H361.748V136.368C361.749 135.979 361.702 135.592 361.61 135.215H385.581C385.489 135.592 385.443 135.979 385.443 136.368ZM392.903 133.679L393.469 134.8C393.72 135.284 393.851 135.822 393.851 136.368V166.714H420.604V136.368C420.604 135.822 420.735 135.284 420.986 134.8L421.552 133.679H392.903ZM419.075 136.368V165.178H395.38V136.368C395.38 135.979 395.334 135.592 395.242 135.215H419.213C419.121 135.592 419.074 135.979 419.075 136.368ZM426.535 133.679L427.101 134.8C427.351 135.284 427.482 135.822 427.483 136.368V166.714H454.235V136.368C454.236 135.822 454.367 135.284 454.617 134.8L455.183 133.679H426.535ZM452.707 136.368V165.178H429.012V136.368C429.012 135.979 428.966 135.592 428.874 135.215H452.844C452.752 135.592 452.706 135.979 452.707 136.368ZM460.167 133.679L460.732 134.8C460.983 135.284 461.114 135.822 461.114 136.368V166.714H487.867V136.368C487.867 135.822 487.998 135.284 488.249 134.8L488.815 133.679H460.167ZM486.338 136.368V165.178H462.643V136.368C462.644 135.979 462.597 135.592 462.505 135.215H486.476C486.384 135.592 486.338 135.979 486.338 136.368ZM493.798 133.679L494.364 134.8C494.615 135.284 494.746 135.822 494.746 136.368V166.714H521.499V136.368C521.499 135.822 521.63 135.284 521.881 134.8L522.447 133.679H493.798ZM519.97 136.368V165.178H496.275V136.368C496.275 135.979 496.229 135.592 496.137 135.215H520.108C520.016 135.592 519.97 135.979 519.97 136.368ZM224.745 133.679L225.31 134.8C225.561 135.284 225.692 135.822 225.693 136.368V166.714H252.445V136.368C252.446 135.822 252.577 135.284 252.827 134.8L253.393 133.679H224.745ZM250.916 136.368V165.178H227.221V136.368C227.222 135.979 227.176 135.592 227.084 135.215H251.054C250.962 135.592 250.916 135.979 250.916 136.368ZM258.376 133.679L258.942 134.8C259.193 135.284 259.324 135.822 259.324 136.368V166.714H286.077V136.368C286.077 135.822 286.208 135.284 286.459 134.8L287.025 133.679H258.376ZM284.548 136.368V165.178H260.853V136.368C260.853 135.979 260.807 135.592 260.715 135.215H284.686C284.594 135.592 284.548 135.979 284.548 136.368ZM292.008 133.679L292.574 134.8C292.825 135.284 292.956 135.822 292.956 136.368V166.714H319.709V136.368C319.709 135.822 319.84 135.284 320.091 134.8L320.657 133.679H292.008ZM318.18 136.368V165.178H294.485V136.368C294.485 135.979 294.439 135.592 294.347 135.215H318.318C318.226 135.592 318.179 135.979 318.18 136.368ZM325.64 133.679L326.206 134.8C326.456 135.284 326.587 135.822 326.588 136.368V166.714H353.34V136.368C353.341 135.822 353.472 135.284 353.722 134.8L354.288 133.679H325.64ZM351.812 136.368V165.178H328.116V136.368C328.117 135.979 328.071 135.592 327.979 135.215H351.949C351.857 135.592 351.811 135.979 351.812 136.368ZM359.271 133.679L359.837 134.8C360.088 135.284 360.219 135.822 360.219 136.368V166.714H386.972V136.368C386.972 135.822 387.103 135.284 387.354 134.8L387.92 133.679H359.271ZM385.443 136.368V165.178H361.748V136.368C361.749 135.979 361.702 135.592 361.61 135.215H385.581C385.489 135.592 385.443 135.979 385.443 136.368ZM392.903 133.679L393.469 134.8C393.72 135.284 393.851 135.822 393.851 136.368V166.714H420.604V136.368C420.604 135.822 420.735 135.284 420.986 134.8L421.552 133.679H392.903ZM419.075 136.368V165.178H395.38V136.368C395.38 135.979 395.334 135.592 395.242 135.215H419.213C419.121 135.592 419.074 135.979 419.075 136.368ZM426.535 133.679L427.101 134.8C427.351 135.284 427.482 135.822 427.483 136.368V166.714H454.235V136.368C454.236 135.822 454.367 135.284 454.617 134.8L455.183 133.679H426.535ZM452.707 136.368V165.178H429.012V136.368C429.012 135.979 428.966 135.592 428.874 135.215H452.844C452.752 135.592 452.706 135.979 452.707 136.368ZM460.167 133.679L460.732 134.8C460.983 135.284 461.114 135.822 461.114 136.368V166.714H487.867V136.368C487.867 135.822 487.998 135.284 488.249 134.8L488.815 133.679H460.167ZM486.338 136.368V165.178H462.643V136.368C462.644 135.979 462.597 135.592 462.505 135.215H486.476C486.384 135.592 486.338 135.979 486.338 136.368ZM493.798 133.679L494.364 134.8C494.615 135.284 494.746 135.822 494.746 136.368V166.714H521.499V136.368C521.499 135.822 521.63 135.284 521.881 134.8L522.447 133.679H493.798ZM519.97 136.368V165.178H496.275V136.368C496.275 135.979 496.229 135.592 496.137 135.215H520.108C520.016 135.592 519.97 135.979 519.97 136.368Z" fill="#3F3D56"/>
<path d="M315.621 268.126H259.255C258.068 268.125 256.93 267.65 256.09 266.806C255.251 265.963 254.778 264.819 254.777 263.625V233.445C254.778 232.252 255.251 231.108 256.09 230.264C256.93 229.42 258.068 228.946 259.255 228.944H315.621C316.808 228.946 317.946 229.42 318.786 230.264C319.625 231.108 320.097 232.252 320.099 233.445V263.625C320.097 264.819 319.625 265.963 318.786 266.806C317.946 267.65 316.808 268.125 315.621 268.126Z" fill="#0096C7"/>
<path d="M401.397 268.126H345.03C343.843 268.125 342.705 267.65 341.866 266.806C341.026 265.963 340.554 264.819 340.553 263.625V233.445C340.554 232.252 341.026 231.108 341.866 230.264C342.705 229.42 343.843 228.946 345.03 228.944H401.397C402.584 228.946 403.722 229.42 404.561 230.264C405.401 231.108 405.873 232.252 405.874 233.445V263.625C405.873 264.819 405.401 265.963 404.561 266.806C403.722 267.65 402.584 268.125 401.397 268.126Z" fill="#0096C7"/>
<path d="M487.172 268.126H430.806C429.619 268.125 428.481 267.65 427.642 266.806C426.802 265.963 426.33 264.819 426.329 263.625V233.445C426.33 232.252 426.802 231.108 427.642 230.264C428.481 229.42 429.619 228.946 430.806 228.944H487.172C488.36 228.946 489.498 229.42 490.337 230.264C491.177 231.108 491.649 232.252 491.65 233.445V263.625C491.649 264.819 491.177 265.963 490.337 266.806C489.498 267.65 488.36 268.125 487.172 268.126Z" fill="#0096C7"/>
<path d="M315.621 368.769H259.255C258.068 368.768 256.93 368.293 256.09 367.449C255.251 366.606 254.778 365.462 254.777 364.269V334.088C254.778 332.895 255.251 331.751 256.09 330.907C256.93 330.063 258.068 329.589 259.255 329.587H315.621C316.808 329.589 317.946 330.063 318.786 330.907C319.625 331.751 320.097 332.895 320.099 334.088V364.269C320.097 365.462 319.625 366.606 318.786 367.449C317.946 368.293 316.808 368.768 315.621 368.769Z" fill="#0096C7"/>
<path d="M401.397 368.769H345.03C343.843 368.768 342.705 368.293 341.866 367.449C341.026 366.606 340.554 365.462 340.553 364.269V334.088C340.554 332.895 341.026 331.751 341.866 330.907C342.705 330.063 343.843 329.589 345.03 329.587H401.397C402.584 329.589 403.722 330.063 404.561 330.907C405.401 331.751 405.873 332.895 405.874 334.088V364.269C405.873 365.462 405.401 366.606 404.561 367.449C403.722 368.293 402.584 368.768 401.397 368.769Z" fill="#0096C7"/>
<path d="M487.172 368.769H430.806C429.619 368.768 428.481 368.293 427.642 367.449C426.802 366.606 426.33 365.462 426.329 364.269V334.088C426.33 332.895 426.802 331.751 427.642 330.907C428.481 330.063 429.619 329.589 430.806 329.587H487.172C488.36 329.589 489.498 330.063 490.337 330.907C491.177 331.751 491.649 332.895 491.65 334.088V364.269C491.649 365.462 491.177 366.606 490.337 367.449C489.498 368.293 488.36 368.768 487.172 368.769Z" fill="#0096C7"/>
<path d="M315.621 469.412H259.255C258.068 469.411 256.93 468.936 256.09 468.093C255.251 467.249 254.778 466.105 254.777 464.912V434.731C254.778 433.538 255.251 432.394 256.09 431.55C256.93 430.706 258.068 430.232 259.255 430.23H315.621C316.808 430.232 317.946 430.706 318.786 431.55C319.625 432.394 320.097 433.538 320.099 434.731V464.912C320.097 466.105 319.625 467.249 318.786 468.093C317.946 468.936 316.808 469.411 315.621 469.412Z" fill="#0096C7"/>
<path d="M401.397 469.412H345.03C343.843 469.411 342.705 468.936 341.866 468.093C341.026 467.249 340.554 466.105 340.553 464.912V434.731C340.554 433.538 341.026 432.394 341.866 431.55C342.705 430.706 343.843 430.232 345.03 430.23H401.397C402.584 430.232 403.722 430.706 404.561 431.55C405.401 432.394 405.873 433.538 405.874 434.731V464.912C405.873 466.105 405.401 467.249 404.561 468.093C403.722 468.936 402.584 469.411 401.397 469.412Z" fill="#0096C7"/>
<path d="M487.172 469.412H430.806C429.619 469.411 428.481 468.936 427.642 468.093C426.802 467.249 426.33 466.105 426.329 464.912V434.731C426.33 433.538 426.802 432.394 427.642 431.55C428.481 430.706 429.619 430.232 430.806 430.23H487.172C488.36 430.232 489.498 430.706 490.337 431.55C491.177 432.394 491.649 433.538 491.65 434.731V464.912C491.649 466.105 491.177 467.249 490.337 468.093C489.498 468.936 488.36 469.411 487.172 469.412Z" fill="#0096C7"/>
<path d="M306.496 271.998H241.199C239.621 271.997 238.108 271.366 236.992 270.244C235.877 269.123 235.249 267.602 235.247 266.016V231.054C235.249 229.468 235.877 227.947 236.992 226.826C238.108 225.704 239.621 225.074 241.199 225.072H306.496C308.074 225.074 309.586 225.704 310.702 226.826C311.818 227.947 312.446 229.468 312.447 231.054V266.016C312.446 267.602 311.818 269.123 310.702 270.244C309.586 271.366 308.074 271.997 306.496 271.998ZM241.199 226.608C240.026 226.61 238.902 227.078 238.073 227.912C237.244 228.745 236.777 229.875 236.776 231.054V266.016C236.777 267.195 237.244 268.325 238.073 269.158C238.902 269.992 240.026 270.461 241.199 270.462H306.496C307.668 270.461 308.793 269.992 309.622 269.158C310.451 268.325 310.917 267.195 310.919 266.016V231.054C310.917 229.875 310.451 228.745 309.622 227.912C308.793 227.078 307.668 226.61 306.496 226.608H241.199Z" fill="#3F3D56"/>
<path d="M405.862 271.998H340.565C338.987 271.997 337.474 271.366 336.359 270.244C335.243 269.123 334.615 267.602 334.614 266.016V231.054C334.615 229.468 335.243 227.947 336.359 226.826C337.474 225.704 338.987 225.074 340.565 225.072H405.862C407.44 225.074 408.953 225.704 410.068 226.826C411.184 227.947 411.812 229.468 411.814 231.054V266.016C411.812 267.602 411.184 269.123 410.068 270.244C408.953 271.366 407.44 271.997 405.862 271.998ZM340.565 226.608C339.392 226.61 338.268 227.078 337.439 227.912C336.61 228.745 336.144 229.875 336.142 231.054V266.016C336.144 267.195 336.61 268.325 337.439 269.158C338.268 269.992 339.392 270.461 340.565 270.462H405.862C407.035 270.461 408.159 269.992 408.988 269.158C409.817 268.325 410.284 267.195 410.285 266.016V231.054C410.284 229.875 409.817 228.745 408.988 227.912C408.159 227.078 407.035 226.61 405.862 226.608H340.565Z" fill="#3F3D56"/>
<path d="M505.228 271.998H439.932C438.354 271.997 436.841 271.366 435.725 270.244C434.609 269.123 433.982 267.602 433.98 266.016V231.054C433.982 229.468 434.609 227.947 435.725 226.826C436.841 225.704 438.354 225.074 439.932 225.072H505.228C506.806 225.074 508.319 225.704 509.435 226.826C510.551 227.947 511.178 229.468 511.18 231.054V266.016C511.178 267.602 510.551 269.123 509.435 270.244C508.319 271.366 506.806 271.997 505.228 271.998ZM439.932 226.608C438.759 226.61 437.635 227.078 436.806 227.912C435.976 228.745 435.51 229.875 435.509 231.054V266.016C435.51 267.195 435.976 268.325 436.806 269.158C437.635 269.992 438.759 270.461 439.932 270.462H505.228C506.401 270.461 507.525 269.992 508.354 269.158C509.184 268.325 509.65 267.195 509.651 266.016V231.054C509.65 229.875 509.184 228.745 508.354 227.912C507.525 227.078 506.401 226.61 505.228 226.608H439.932Z" fill="#3F3D56"/>
<path d="M306.496 372.642H241.199C239.621 372.64 238.108 372.009 236.992 370.887C235.877 369.766 235.249 368.245 235.247 366.659V331.697C235.249 330.111 235.877 328.591 236.992 327.469C238.108 326.348 239.621 325.717 241.199 325.715H306.496C308.074 325.717 309.586 326.348 310.702 327.469C311.818 328.591 312.446 330.111 312.447 331.697V366.659C312.446 368.245 311.818 369.766 310.702 370.887C309.586 372.009 308.074 372.64 306.496 372.642ZM241.199 327.251C240.026 327.253 238.902 327.722 238.073 328.555C237.244 329.388 236.777 330.518 236.776 331.697V366.659C236.777 367.838 237.244 368.968 238.073 369.801C238.902 370.635 240.026 371.104 241.199 371.105H306.496C307.668 371.104 308.793 370.635 309.622 369.801C310.451 368.968 310.917 367.838 310.919 366.659V331.697C310.917 330.518 310.451 329.388 309.622 328.555C308.793 327.722 307.668 327.253 306.496 327.251H241.199Z" fill="#3F3D56"/>
<path d="M405.862 372.642H340.565C338.987 372.64 337.474 372.009 336.359 370.887C335.243 369.766 334.615 368.245 334.614 366.659V331.697C334.615 330.111 335.243 328.591 336.359 327.469C337.474 326.348 338.987 325.717 340.565 325.715H405.862C407.44 325.717 408.953 326.348 410.068 327.469C411.184 328.591 411.812 330.111 411.814 331.697V366.659C411.812 368.245 411.184 369.766 410.068 370.887C408.953 372.009 407.44 372.64 405.862 372.642ZM340.565 327.251C339.392 327.253 338.268 327.722 337.439 328.555C336.61 329.388 336.144 330.518 336.142 331.697V366.659C336.144 367.838 336.61 368.968 337.439 369.801C338.268 370.635 339.392 371.104 340.565 371.105H405.862C407.035 371.104 408.159 370.635 408.988 369.801C409.817 368.968 410.284 367.838 410.285 366.659V331.697C410.284 330.518 409.817 329.388 408.988 328.555C408.159 327.722 407.035 327.253 405.862 327.251H340.565Z" fill="#3F3D56"/>
<path d="M505.228 372.642H439.932C438.354 372.64 436.841 372.009 435.725 370.887C434.609 369.766 433.982 368.245 433.98 366.659V331.697C433.982 330.111 434.609 328.591 435.725 327.469C436.841 326.348 438.354 325.717 439.932 325.715H505.228C506.806 325.717 508.319 326.348 509.435 327.469C510.551 328.591 511.178 330.111 511.18 331.697V366.659C511.178 368.245 510.551 369.766 509.435 370.887C508.319 372.009 506.806 372.64 505.228 372.642ZM439.932 327.251C438.759 327.253 437.635 327.722 436.806 328.555C435.976 329.388 435.51 330.518 435.509 331.697V366.659C435.51 367.838 435.976 368.968 436.806 369.801C437.635 370.635 438.759 371.104 439.932 371.105H505.228C506.401 371.104 507.525 370.635 508.354 369.801C509.184 368.968 509.65 367.838 509.651 366.659V331.697C509.65 330.518 509.184 329.388 508.354 328.555C507.525 327.722 506.401 327.253 505.228 327.251H439.932Z" fill="#3F3D56"/>
<path d="M306.496 473.285H241.199C239.621 473.283 238.108 472.652 236.992 471.531C235.877 470.409 235.249 468.889 235.247 467.303V432.341C235.249 430.755 235.877 429.234 236.992 428.113C238.108 426.991 239.621 426.36 241.199 426.358H306.496C308.074 426.36 309.586 426.991 310.702 428.113C311.818 429.234 312.446 430.755 312.447 432.341V467.303C312.446 468.889 311.818 470.409 310.702 471.531C309.586 472.652 308.074 473.283 306.496 473.285ZM241.199 427.895C240.026 427.896 238.902 428.365 238.073 429.199C237.244 430.032 236.777 431.162 236.776 432.341V467.303C236.777 468.481 237.244 469.611 238.073 470.445C238.902 471.278 240.026 471.747 241.199 471.749H306.496C307.668 471.747 308.793 471.278 309.622 470.445C310.451 469.612 310.917 468.481 310.919 467.303V432.341C310.917 431.162 310.451 430.032 309.622 429.199C308.793 428.365 307.668 427.896 306.496 427.895H241.199Z" fill="#3F3D56"/>
<path d="M405.862 473.285H340.565C338.987 473.283 337.474 472.652 336.359 471.531C335.243 470.409 334.615 468.889 334.614 467.303V432.341C334.615 430.755 335.243 429.234 336.359 428.113C337.474 426.991 338.987 426.36 340.565 426.358H405.862C407.44 426.36 408.953 426.991 410.068 428.113C411.184 429.234 411.812 430.755 411.814 432.341V467.303C411.812 468.889 411.184 470.409 410.068 471.531C408.953 472.652 407.44 473.283 405.862 473.285ZM340.565 427.895C339.392 427.896 338.268 428.365 337.439 429.199C336.61 430.032 336.144 431.162 336.142 432.341V467.303C336.144 468.481 336.61 469.612 337.439 470.445C338.268 471.278 339.392 471.747 340.565 471.749H405.862C407.035 471.747 408.159 471.278 408.988 470.445C409.817 469.612 410.284 468.481 410.285 467.303V432.341C410.284 431.162 409.817 430.032 408.988 429.199C408.159 428.365 407.035 427.896 405.862 427.895H340.565Z" fill="#3F3D56"/>
<path d="M505.228 473.285H439.932C438.354 473.283 436.841 472.652 435.725 471.531C434.609 470.409 433.982 468.889 433.98 467.303V432.341C433.982 430.755 434.609 429.234 435.725 428.113C436.841 426.991 438.354 426.36 439.932 426.358H505.228C506.806 426.36 508.319 426.991 509.435 428.113C510.551 429.234 511.178 430.755 511.18 432.341V467.303C511.178 468.889 510.551 470.409 509.435 471.531C508.319 472.652 506.806 473.283 505.228 473.285ZM439.932 427.895C438.759 427.896 437.635 428.365 436.806 429.199C435.976 430.032 435.51 431.162 435.509 432.341V467.303C435.51 468.481 435.976 469.612 436.806 470.445C437.635 471.278 438.759 471.747 439.932 471.749H505.228C506.401 471.747 507.525 471.278 508.354 470.445C509.184 469.612 509.65 468.481 509.651 467.303V432.341C509.65 431.162 509.184 430.032 508.354 429.199C507.525 428.365 506.401 427.896 505.228 427.895H439.932Z" fill="#3F3D56"/>
<path d="M771.236 591.951H0.764356C0.561637 591.951 0.367219 591.87 0.223874 591.726C0.0805296 591.582 0 591.387 0 591.183C0 590.979 0.0805296 590.784 0.223874 590.64C0.367219 590.496 0.561637 590.415 0.764356 590.415H771.236C771.438 590.415 771.633 590.496 771.776 590.64C771.919 590.784 772 590.979 772 591.183C772 591.387 771.919 591.582 771.776 591.726C771.633 591.87 771.438 591.951 771.236 591.951Z" fill="#3F3D56"/>
<path d="M411.814 517.591C411.835 515.838 411.162 514.148 409.944 512.893C408.725 511.638 407.061 510.921 405.317 510.899H373.214V590.415H411.814V517.591Z" fill="#3F3D56"/>
<path d="M373.978 589.646H333.849V517.813C333.851 515.878 334.617 514.023 335.978 512.655C337.34 511.287 339.185 510.517 341.111 510.515H373.978V589.646ZM335.378 588.11H372.449V512.051H341.111C339.591 512.053 338.133 512.661 337.059 513.741C335.984 514.821 335.38 516.286 335.378 517.813V588.11Z" fill="#3F3D56"/>
<path d="M338.817 555.458C340.084 555.458 341.111 554.426 341.111 553.153C341.111 551.881 340.084 550.849 338.817 550.849C337.551 550.849 336.524 551.881 336.524 553.153C336.524 554.426 337.551 555.458 338.817 555.458Z" fill="#3F3D56"/>
</g>
<defs>
<clipPath id="clip0_422_102">
<rect width="772" height="592" fill="white"/>
</clipPath>
</defs>
</svg>
