<svg width="12" height="9" viewBox="0 0 12 9" fill="none" xmlns="http://www.w3.org/2000/svg">
<path d="M11.7078 1.7078L4.7078 8.7078C4.61491 8.80093 4.50456 8.87481 4.38307 8.92522C4.26158 8.97564 4.13133 9.00159 3.9998 9.00159C3.86826 9.00159 3.73802 8.97564 3.61653 8.92522C3.49504 8.87481 3.38469 8.80093 3.2918 8.7078L0.291799 5.7078C0.198823 5.61482 0.12507 5.50444 0.0747519 5.38297C0.0244337 5.26149 -0.00146484 5.13129 -0.00146484 4.9998C-0.00146484 4.86831 0.0244337 4.73811 0.0747519 4.61663C0.12507 4.49515 0.198823 4.38477 0.291799 4.2918C0.479572 4.10403 0.734247 3.99854 0.999799 3.99854C1.13129 3.99854 1.26149 4.02443 1.38297 4.07475C1.50444 4.12507 1.61482 4.19882 1.7078 4.2918L3.9998 6.5858L10.2918 0.291799C10.4796 0.104025 10.7342 -0.00146485 10.9998 -0.00146484C11.2654 -0.00146484 11.52 0.104025 11.7078 0.291799C11.8956 0.479572 12.0011 0.734247 12.0011 0.999799C12.0011 1.26535 11.8956 1.52003 11.7078 1.7078Z" fill="white"/>
</svg>
