<svg width="60" height="60" viewBox="0 0 60 60" fill="none" xmlns="http://www.w3.org/2000/svg">
<path d="M57.5 60C58.163 60 58.7989 59.7742 59.2678 59.3724C59.7366 58.9705 60 58.4255 60 57.8571V30.5357C60 29.6212 59.7898 28.7155 59.3815 27.8706C58.9732 27.0257 58.3747 26.2579 57.6202 25.6112C56.8658 24.9645 55.9701 24.4515 54.9843 24.1016C53.9985 23.7516 52.942 23.5714 51.875 23.5714H45V6.96429C45 6.04972 44.7898 5.14411 44.3815 4.29917C43.9732 3.45422 43.3747 2.68649 42.6202 2.03979C41.8658 1.3931 40.9701 0.880113 39.9843 0.530125C38.9985 0.180136 37.942 0 36.875 0H7.5C5.51088 0 3.60322 0.677294 2.1967 1.88289C0.790177 3.08848 0 4.72361 0 6.42857V57.8571C0 58.4255 0.263393 58.9705 0.732234 59.3724C1.20107 59.7742 1.83696 60 2.5 60H57.5Z" fill="url(#paint0_linear_82_24)"/>
<path d="M43.75 47.1428C44.7446 47.1428 45.6984 47.4815 46.4016 48.0843C47.1049 48.6871 47.5 49.5046 47.5 50.3571V60H30L27.5 54.6428L30 47.1428H43.75Z" fill="url(#paint1_linear_82_24)"/>
<path d="M16.25 47.1428C15.2554 47.1428 14.3016 47.4815 13.5983 48.0843C12.8951 48.6871 12.5 49.5046 12.5 50.3571V60H30V47.1428H16.25Z" fill="url(#paint2_linear_82_24)"/>
<path d="M16.25 17.1428C17.2446 17.1428 18.1984 16.8042 18.9017 16.2014C19.6049 15.5986 20 14.781 20 13.9285C20 13.076 19.6049 12.2585 18.9017 11.6557C18.1984 11.0529 17.2446 10.7142 16.25 10.7142C15.2554 10.7142 14.3016 11.0529 13.5983 11.6557C12.8951 12.2585 12.5 13.076 12.5 13.9285C12.5 14.781 12.8951 15.5986 13.5983 16.2014C14.3016 16.8042 15.2554 17.1428 16.25 17.1428ZM16.25 27.8571C17.2446 27.8571 18.1984 27.5184 18.9017 26.9156C19.6049 26.3129 20 25.4953 20 24.6428C20 23.7903 19.6049 22.9728 18.9017 22.37C18.1984 21.7672 17.2446 21.4285 16.25 21.4285C15.2554 21.4285 14.3016 21.7672 13.5983 22.37C12.8951 22.9728 12.5 23.7903 12.5 24.6428C12.5 25.4953 12.8951 26.3129 13.5983 26.9156C14.3016 27.5184 15.2554 27.8571 16.25 27.8571ZM20 35.3571C20 36.2096 19.6049 37.0271 18.9017 37.6299C18.1984 38.2327 17.2446 38.5714 16.25 38.5714C15.2554 38.5714 14.3016 38.2327 13.5983 37.6299C12.8951 37.0271 12.5 36.2096 12.5 35.3571C12.5 34.5046 12.8951 33.687 13.5983 33.0842C14.3016 32.4815 15.2554 32.1428 16.25 32.1428C17.2446 32.1428 18.1984 32.4815 18.9017 33.0842C19.6049 33.687 20 34.5046 20 35.3571ZM28.75 17.1428C29.7446 17.1428 30.6984 16.8042 31.4016 16.2014C32.1049 15.5986 32.5 14.781 32.5 13.9285C32.5 13.076 32.1049 12.2585 31.4016 11.6557C30.6984 11.0529 29.7446 10.7142 28.75 10.7142C27.7554 10.7142 26.8016 11.0529 26.0983 11.6557C25.3951 12.2585 25 13.076 25 13.9285C25 14.781 25.3951 15.5986 26.0983 16.2014C26.8016 16.8042 27.7554 17.1428 28.75 17.1428ZM32.5 24.6428C32.5 25.4953 32.1049 26.3129 31.4016 26.9156C30.6984 27.5184 29.7446 27.8571 28.75 27.8571C27.7554 27.8571 26.8016 27.5184 26.0983 26.9156C25.3951 26.3129 25 25.4953 25 24.6428C25 23.7903 25.3951 22.9728 26.0983 22.37C26.8016 21.7672 27.7554 21.4285 28.75 21.4285C29.7446 21.4285 30.6984 21.7672 31.4016 22.37C32.1049 22.9728 32.5 23.7903 32.5 24.6428ZM28.75 38.5714C29.7446 38.5714 30.6984 38.2327 31.4016 37.6299C32.1049 37.0271 32.5 36.2096 32.5 35.3571C32.5 34.5046 32.1049 33.687 31.4016 33.0842C30.6984 32.4815 29.7446 32.1428 28.75 32.1428C27.7554 32.1428 26.8016 32.4815 26.0983 33.0842C25.3951 33.687 25 34.5046 25 35.3571C25 36.2096 25.3951 37.0271 26.0983 37.6299C26.8016 38.2327 27.7554 38.5714 28.75 38.5714ZM45 35.3571C45 36.2096 44.6049 37.0271 43.9016 37.6299C43.1984 38.2327 42.2446 38.5714 41.25 38.5714C40.2554 38.5714 39.3016 38.2327 38.5984 37.6299C37.8951 37.0271 37.5 36.2096 37.5 35.3571C37.5 34.5046 37.8951 33.687 38.5984 33.0842C39.3016 32.4815 40.2554 32.1428 41.25 32.1428C42.2446 32.1428 43.1984 32.4815 43.9016 33.0842C44.6049 33.687 45 34.5046 45 35.3571Z" fill="url(#paint3_linear_82_24)"/>
<defs>
<linearGradient id="paint0_linear_82_24" x1="2.03939e-07" y1="1.875" x2="55.5572" y2="73.0012" gradientUnits="userSpaceOnUse">
<stop stop-color="#29C3FF"/>
<stop offset="1" stop-color="#2764E7"/>
</linearGradient>
<linearGradient id="paint1_linear_82_24" x1="30" y1="45" x2="40.652" y2="59.5223" gradientUnits="userSpaceOnUse">
<stop stop-color="#0067BF"/>
<stop offset="1" stop-color="#003580"/>
</linearGradient>
<linearGradient id="paint2_linear_82_24" x1="13.125" y1="49.9564" x2="23.296" y2="62.2843" gradientUnits="userSpaceOnUse">
<stop stop-color="#0067BF"/>
<stop offset="1" stop-color="#003580"/>
</linearGradient>
<linearGradient id="paint3_linear_82_24" x1="22.25" y1="7.61995" x2="31.1416" y2="44.9661" gradientUnits="userSpaceOnUse">
<stop stop-color="#FDFDFD"/>
<stop offset="1" stop-color="#B3E0FF"/>
</linearGradient>
</defs>
</svg>
