<svg width="190" height="221" viewBox="0 0 190 221" fill="none" xmlns="http://www.w3.org/2000/svg">
<path d="M33.7806 124.145L33.1628 121.847L30.837 122.351L12.0349 126.424C12.0319 126.425 12.029 126.426 12.0261 126.426C10.1355 126.814 7.17506 125.75 4.86485 122.923C2.55456 120.096 2.10096 116.983 2.85771 115.207C2.85885 115.205 2.85999 115.202 2.86114 115.199L40.348 29.7897C40.3491 29.7873 40.3502 29.7849 40.3512 29.7825C41.2311 27.8161 42.4636 26.1864 43.998 24.9324C45.5323 23.6785 47.3748 22.7951 49.477 22.3244C49.4796 22.3239 49.4821 22.3233 49.4847 22.3227L140.648 2.59236C140.651 2.59173 140.654 2.59109 140.657 2.59046C142.548 2.20276 145.508 3.26722 147.818 6.09382C150.146 8.94223 150.594 12.0756 149.834 13.7904L149.831 13.7957L112.233 99.1484C112.232 99.1504 112.231 99.1523 112.23 99.1542C111.35 101.121 110.117 102.751 108.583 104.006C107.048 105.26 105.206 106.143 103.104 106.614C103.101 106.614 103.098 106.615 103.096 106.615L54.1315 117.226C54.1422 113.954 54.6759 110.888 55.7462 108.177C55.7465 108.176 55.7469 108.175 55.7472 108.174L75.4071 58.7411C75.4075 58.7401 75.4079 58.739 75.4084 58.738C76.2362 56.6712 75.9509 54.3879 75.1681 52.4714C74.3726 50.5235 72.9634 48.6823 71.1102 47.3696C69.2575 46.0574 67.1069 45.3963 65.0573 45.6758C62.9274 45.9663 61.0809 47.2717 60.2106 49.4412L60.2079 49.4481L40.5432 98.8935C37.8874 105.568 37.3698 113.221 38.5702 121.001L38.5759 121.038L38.5827 121.075C40.6483 132.237 46.0591 143.774 54.3056 153.864L60.8257 161.842L61.072 162.144L61.3983 162.356C66.1583 165.452 70.8851 169.261 75.3278 173.217L75.3373 173.226C83.9569 180.823 94.9361 192.281 104.143 207.503L104.15 207.514L104.157 207.525C104.873 208.683 105.062 209.795 104.944 210.503C104.824 211.223 104.505 211.446 104.284 211.522L104.266 211.528L104.249 211.534L85.3256 218.344C84.8307 218.523 83.735 218.485 82.3942 217.485C81.0916 216.513 80.1769 215.051 79.9011 213.695L79.899 213.684L79.8968 213.674C78.7119 208.091 76.9797 202.44 75 196.934L74.9988 196.931C71.4701 187.16 66.0658 175.335 58.2836 165.813L50.8359 156.7C42.5386 146.547 36.7593 135.227 33.7806 124.145ZM67.204 132.561L109.765 123.365C109.767 123.365 109.769 123.365 109.77 123.364C113.734 122.517 117.334 120.783 120.33 118.334C123.332 115.881 125.722 112.716 127.361 108.99L127.363 108.988L144.851 69.1038L184.239 110.589C187.964 115.229 188.203 123.883 183.944 134.525C179.745 145.018 171.436 156.657 159.573 166.352C147.711 176.047 134.65 181.872 123.531 183.898C112.254 185.952 103.822 183.995 100.016 179.421L67.204 132.561Z" fill="#0096C7" stroke="white" stroke-width="5"/>
</svg>
