<svg width="38" height="32" viewBox="0 0 38 32" fill="none" xmlns="http://www.w3.org/2000/svg">
<path d="M0 7.58415V25.6844C0 27.3594 0.62566 28.9659 1.73934 30.1503C2.85303 31.3347 4.3635 32.0002 5.93849 32.0002H32.0615C33.6365 32.0002 35.147 31.3347 36.2607 30.1503C37.3743 28.9659 38 27.3594 38 25.6844V7.5791L19.5384 17.6372C19.3708 17.7285 19.1852 17.7762 18.9968 17.7762C18.8085 17.7762 18.6229 17.7285 18.4552 17.6372L0 7.58415Z" fill="#367AF2"/>
<path d="M0 7.58415V25.6844C0 27.3594 0.62566 28.9659 1.73934 30.1503C2.85303 31.3347 4.3635 32.0002 5.93849 32.0002H32.0615C33.6365 32.0002 35.147 31.3347 36.2607 30.1503C37.3743 28.9659 38 27.3594 38 25.6844V7.5791L19.5384 17.6372C19.3708 17.7285 19.1852 17.7762 18.9968 17.7762C18.8085 17.7762 18.6229 17.7285 18.4552 17.6372L0 7.58415Z" fill="url(#paint0_linear_224_155)"/>
<path d="M0 7.58415V25.6844C0 27.3594 0.62566 28.9659 1.73934 30.1503C2.85303 31.3347 4.3635 32.0002 5.93849 32.0002H32.0615C33.6365 32.0002 35.147 31.3347 36.2607 30.1503C37.3743 28.9659 38 27.3594 38 25.6844V7.5791L19.5384 17.6372C19.3708 17.7285 19.1852 17.7762 18.9968 17.7762C18.8085 17.7762 18.6229 17.7285 18.4552 17.6372L0 7.58415Z" fill="url(#paint1_linear_224_155)"/>
<path d="M0 7.58415V25.6844C0 27.3594 0.62566 28.9659 1.73934 30.1503C2.85303 31.3347 4.3635 32.0002 5.93849 32.0002H32.0615C33.6365 32.0002 35.147 31.3347 36.2607 30.1503C37.3743 28.9659 38 27.3594 38 25.6844V7.5791L19.5384 17.6372C19.3708 17.7285 19.1852 17.7762 18.9968 17.7762C18.8085 17.7762 18.6229 17.7285 18.4552 17.6372L0 7.58415Z" fill="url(#paint2_linear_224_155)" fill-opacity="0.75"/>
<path d="M0 7.58415V25.6844C0 27.3594 0.62566 28.9659 1.73934 30.1503C2.85303 31.3347 4.3635 32.0002 5.93849 32.0002H32.0615C33.6365 32.0002 35.147 31.3347 36.2607 30.1503C37.3743 28.9659 38 27.3594 38 25.6844V7.5791L19.5384 17.6372C19.3708 17.7285 19.1852 17.7762 18.9968 17.7762C18.8085 17.7762 18.6229 17.7285 18.4552 17.6372L0 7.58415Z" fill="url(#paint3_linear_224_155)" fill-opacity="0.7"/>
<path d="M0 6.31579C0 4.64074 0.62566 3.03429 1.73934 1.84985C2.85303 0.665412 4.3635 0 5.93849 0H32.0615C33.6365 0 35.147 0.665412 36.2607 1.84985C37.3743 3.03429 38 4.64074 38 6.31579V8.33684L19.5384 18.3949C19.3708 18.4863 19.1852 18.5339 18.9968 18.5339C18.8085 18.5339 18.6229 18.4863 18.4552 18.3949L0 8.34189V6.31579Z" fill="url(#paint4_linear_224_155)"/>
<defs>
<linearGradient id="paint0_linear_224_155" x1="24.5394" y1="10.9475" x2="34.489" y2="32.7361" gradientUnits="userSpaceOnUse">
<stop offset="0.199" stop-color="#0094F0" stop-opacity="0"/>
<stop offset="0.431" stop-color="#0094F0"/>
</linearGradient>
<linearGradient id="paint1_linear_224_155" x1="13.5714" y1="10.1492" x2="2.99447" y2="33.4733" gradientUnits="userSpaceOnUse">
<stop offset="0.191" stop-color="#0094F0" stop-opacity="0"/>
<stop offset="0.431" stop-color="#0094F0"/>
</linearGradient>
<linearGradient id="paint2_linear_224_155" x1="29.0194" y1="22.1492" x2="30.7635" y2="34.2368" gradientUnits="userSpaceOnUse">
<stop stop-color="#2764E7" stop-opacity="0"/>
<stop offset="1" stop-color="#2764E7"/>
</linearGradient>
<linearGradient id="paint3_linear_224_155" x1="24.8815" y1="10.5787" x2="28.0638" y2="35.1885" gradientUnits="userSpaceOnUse">
<stop offset="0.533" stop-color="#FF6CE8" stop-opacity="0"/>
<stop offset="1" stop-color="#FF6CE8"/>
</linearGradient>
<linearGradient id="paint4_linear_224_155" x1="11.2895" y1="-5.8021" x2="24.2283" y2="26.0605" gradientUnits="userSpaceOnUse">
<stop stop-color="#6CE0FF"/>
<stop offset="0.462" stop-color="#29C3FF"/>
<stop offset="1" stop-color="#4894FE"/>
</linearGradient>
</defs>
</svg>
