<svg width="30" height="31" viewBox="0 0 30 31" fill="none" xmlns="http://www.w3.org/2000/svg">
<path d="M14.1033 4.81671C14.3914 4.23303 14.5355 3.9412 14.731 3.84795C14.9012 3.76683 15.0989 3.76683 15.269 3.84795C15.4646 3.9412 15.6086 4.23303 15.8967 4.81671L18.6301 10.3542C18.7151 10.5265 18.7577 10.6126 18.8198 10.6795C18.8748 10.7388 18.9408 10.7867 19.0141 10.8208C19.0969 10.8593 19.192 10.8732 19.3822 10.901L25.4962 11.7947C26.1401 11.8888 26.462 11.9359 26.611 12.0931C26.7406 12.2299 26.8016 12.4179 26.7769 12.6048C26.7485 12.8195 26.5155 13.0465 26.0493 13.5005L21.6268 17.8081C21.4889 17.9424 21.42 18.0095 21.3755 18.0894C21.3362 18.1601 21.3109 18.2378 21.3011 18.3182C21.2901 18.409 21.3064 18.5038 21.3389 18.6935L22.3824 24.7777C22.4925 25.4194 22.5475 25.7403 22.4441 25.9307C22.3541 26.0963 22.1942 26.2125 22.0088 26.2469C21.7958 26.2864 21.5076 26.1349 20.9314 25.8318L15.4655 22.9574C15.2952 22.8678 15.21 22.823 15.1203 22.8054C15.0409 22.7898 14.9592 22.7898 14.8797 22.8054C14.79 22.823 14.7049 22.8678 14.5346 22.9574L9.06865 25.8318C8.49239 26.1349 8.20426 26.2864 7.99121 26.2469C7.80585 26.2125 7.6459 26.0963 7.55592 25.9307C7.4525 25.7403 7.50753 25.4194 7.61759 24.7777L8.66111 18.6935C8.69364 18.5038 8.70991 18.409 8.6989 18.3182C8.68915 18.2378 8.66389 18.1601 8.62451 18.0894C8.58003 18.0095 8.5111 17.9424 8.37323 17.8081L3.9507 13.5005C3.48458 13.0465 3.25152 12.8195 3.22316 12.6048C3.19848 12.4179 3.25944 12.2299 3.38906 12.0931C3.53804 11.9359 3.85996 11.8888 4.5038 11.7947L10.6179 10.901C10.808 10.8732 10.9031 10.8593 10.9859 10.8208C11.0592 10.7867 11.1252 10.7388 11.1802 10.6795C11.2424 10.6126 11.2849 10.5265 11.37 10.3542L14.1033 4.81671Z" fill="#FBBF24" stroke="#FBBF24" stroke-width="2.5" stroke-linecap="round" stroke-linejoin="round"/>
</svg>
