<svg width="16" height="16" viewBox="0 0 16 16" fill="none" xmlns="http://www.w3.org/2000/svg">
<g clip-path="url(#clip0_488_422)">
<path d="M6.125 12.3751C3 13.3126 3 10.8126 1.75 10.5001M10.5 14.2501V11.8314C10.5234 11.5334 10.4832 11.2338 10.3819 10.9525C10.2806 10.6713 10.1206 10.4148 9.9125 10.2001C11.875 9.98139 13.9375 9.23764 13.9375 5.82514C13.9373 4.95254 13.6017 4.11339 13 3.48139C13.2849 2.71796 13.2648 1.87411 12.9437 1.12514C12.9437 1.12514 12.2063 0.906394 10.5 2.05014C9.06751 1.66191 7.55749 1.66191 6.125 2.05014C4.41875 0.906394 3.68125 1.12514 3.68125 1.12514C3.36024 1.87411 3.34009 2.71796 3.625 3.48139C3.01883 4.11808 2.68283 4.96481 2.6875 5.84389C2.6875 9.23139 4.75 9.97514 6.7125 10.2189C6.50687 10.4314 6.34829 10.6848 6.24707 10.9626C6.14585 11.2404 6.10425 11.5364 6.125 11.8314V14.2501" stroke="white" stroke-width="1.5" stroke-linecap="round" stroke-linejoin="round"/>
</g>
<defs>
<clipPath id="clip0_488_422">
<rect width="15" height="15" fill="white" transform="translate(0.5 0.5)"/>
</clipPath>
</defs>
</svg>
