<svg width="206" height="165" viewBox="0 0 206 165" fill="none" xmlns="http://www.w3.org/2000/svg">
<path d="M59.3072 45.1528V79.9216C59.3072 94.0943 70.82 105.627 84.9822 105.627C99.1444 105.627 110.657 94.0943 110.657 79.9216V64.3732H157.082C159.979 64.3732 162.307 66.6994 162.307 69.6083V85.0783C162.307 87.9872 159.979 90.3134 157.082 90.3134H154.507H152.007V92.8134V113.44C152.007 117.767 148.52 121.253 144.207 121.253H139.057H136.557V123.753C136.557 133.753 128.436 141.88 118.457 141.88H74.4891H73.8184L73.2378 142.216L39.9596 161.455C39.9593 161.455 39.959 161.455 39.9586 161.455C36.2224 163.606 31.448 162.329 29.3092 158.605L29.3073 158.602L3.55732 113.932L3.55309 113.925C1.38633 110.195 2.67567 105.41 6.405 103.263L6.40879 103.261L32.1587 88.3706L33.4073 87.6486V86.2064V70.9619C33.4073 64.6175 36.747 58.6997 42.1985 55.4472L42.2065 55.4424L59.3072 45.1528ZM177.607 74.4601V69.6083C177.607 58.2718 168.412 49.0599 157.082 49.0599H97.8572H95.3572V51.5599V79.9216C95.3572 85.6667 90.7118 90.3134 84.9822 90.3134C79.2525 90.3134 74.6072 85.6667 74.6072 79.9216V39.2161C74.6072 36.5153 75.9796 34.0111 78.2493 32.6088L78.2598 32.6022L89.0331 25.8722C89.0346 25.8713 89.036 25.8704 89.0375 25.8695C91.9338 24.0794 95.2443 23.1198 98.6297 23.1198H131.525H132.196L132.776 22.7841L166.055 3.5453C166.055 3.54497 166.056 3.54465 166.056 3.54432C169.792 1.39389 174.566 2.67169 176.705 6.39494L176.707 6.39825L202.455 51.0647C204.602 54.8022 203.336 59.5631 199.603 61.7407C199.602 61.7416 199.6 61.7425 199.599 61.7434L177.607 74.4601Z" stroke="white" stroke-width="5"/>
</svg>
