<svg width="613" height="651" viewBox="0 0 613 651" fill="none" xmlns="http://www.w3.org/2000/svg">
<g clip-path="url(#clip0_432_112)">
<path d="M383.343 126.245L301.127 194.379L404.92 319.625L487.136 251.491L383.343 126.245Z" fill="#FFE6B8"/>
<path d="M364.1 98.9037L277.835 170.393C271.042 176.023 270.295 186.332 276.169 193.42C282.042 200.507 292.311 201.689 299.105 196.059L385.37 124.57C392.164 118.94 392.91 108.631 387.036 101.543C381.162 94.4559 370.894 93.2738 364.1 98.9037Z" fill="#0096C7"/>
<path d="M489.164 249.816L402.899 321.305C396.105 326.935 395.225 337.083 401.098 344.17C406.972 351.257 417.24 352.439 424.034 346.809L510.299 275.32C517.093 269.69 517.839 259.381 511.965 252.293C506.091 245.206 495.957 244.186 489.164 249.816Z" fill="#0096C7"/>
<path d="M541.495 296.872L439.418 381.465C425.983 392.598 424.508 412.986 436.123 427.002C436.181 427.072 436.282 427.083 436.348 427.028L586.836 302.317C586.903 302.261 586.91 302.16 586.852 302.09C575.237 288.074 554.93 285.738 541.495 296.872Z" fill="#FFAD61"/>
<path d="M343.4 245.389L262.43 312.49L281.683 335.723L362.653 268.622L343.4 245.389Z" fill="#FFE6B8"/>
<path d="M287.066 342.219L168.103 440.805C158.513 448.752 144.02 447.084 135.731 437.082C127.441 427.078 128.494 412.527 138.083 404.581L257.046 305.994L287.066 342.219Z" fill="#0096C7"/>
<path d="M535.509 289.647L433.431 374.241C416.199 388.521 414.301 414.763 429.198 432.74C432.557 436.793 438.45 437.472 442.336 434.252L592.824 309.54C596.709 306.321 597.137 300.404 593.778 296.35C578.88 278.375 552.74 275.367 535.509 289.647ZM438.551 413.018C435.824 404.326 438.222 394.642 445.405 388.689L547.483 304.095C554.666 298.143 564.626 297.585 572.661 301.879L438.551 413.018Z" fill="#4D3D36"/>
<path d="M361.714 281.583L392.556 318.8C386.184 327.872 386.534 340.691 394.173 349.909C403.338 360.969 419.419 362.819 430.02 354.034L516.285 282.544C526.887 273.759 528.055 257.614 518.89 246.554C511.251 237.336 498.72 234.612 488.622 239.189L395.708 127.071C402.065 117.981 401.662 105.097 393.961 95.8044C384.795 84.7442 368.714 82.894 358.113 91.6798L271.848 163.168C261.247 171.954 260.079 188.098 269.245 199.159C276.946 208.452 289.53 211.239 299.643 206.682L330.49 243.904L263.333 299.557C259.96 296.198 254.649 295.795 251.06 298.769L132.096 397.356C118.703 408.456 117.228 428.85 128.806 442.821C140.384 456.792 160.697 459.129 174.09 448.031L293.054 349.444C296.643 346.47 297.232 341.174 294.558 337.237L361.715 281.584L361.714 281.583ZM314.041 195.868L382.408 139.212L474.227 250.009L405.86 306.665L314.041 195.868ZM495.151 257.041C498.166 254.542 502.511 254.977 505.042 258.031C507.605 261.124 507.279 265.639 504.313 268.097L418.048 339.586C415.084 342.042 410.587 341.526 408.023 338.432C405.491 335.377 405.871 331.028 408.886 328.53L495.151 257.041ZM293.119 188.836C290.155 191.292 285.658 190.776 283.094 187.682C280.53 184.588 280.857 180.073 283.821 177.616L370.086 106.127C373.051 103.671 377.549 104.187 380.113 107.281C382.677 110.375 382.35 114.889 379.384 117.347L293.119 188.836ZM349.741 267.135L282.62 322.759L275.343 313.978L342.463 258.354L349.741 267.135ZM142.655 431.344C137.679 425.34 138.315 416.575 144.069 411.806L256.108 318.958L274.155 340.735L162.117 433.583C156.361 438.352 147.63 437.347 142.655 431.344Z" fill="#4D3D36"/>
<path d="M454.9 254.212C458.725 251.042 459.144 245.238 455.838 241.249L420.516 198.627C417.21 194.638 411.43 193.972 407.605 197.141C403.781 200.311 403.361 206.115 406.667 210.104L441.989 252.726C445.295 256.715 451.076 257.381 454.9 254.212Z" fill="#4D3D36"/>
<path d="M402.815 191.362C406.64 188.192 407.059 182.389 403.753 178.399L401.957 176.232C398.651 172.243 392.87 171.577 389.046 174.746C385.221 177.916 384.802 183.72 388.108 187.709L389.904 189.876C393.21 193.865 398.991 194.531 402.815 191.362Z" fill="#4D3D36"/>
</g>
<defs>
<clipPath id="clip0_432_112">
<rect width="451.473" height="470.997" fill="white" transform="translate(0.682617 288.216) rotate(-39.6491)"/>
</clipPath>
</defs>
</svg>
