<svg width="56" height="50" viewBox="0 0 56 50" fill="none" xmlns="http://www.w3.org/2000/svg">
<path d="M53 30H50.5C50.5 20.325 42.675 12.5 33 12.5H30.5V9.325C31.2603 8.88605 31.8916 8.25466 32.3304 7.49432C32.7693 6.73398 33.0002 5.87149 33 4.99359C32.9998 4.11569 32.7684 3.25332 32.3292 2.49321C31.8899 1.73309 31.2583 1.10202 30.4978 0.663464C29.7373 0.224904 28.8747 -0.00568859 27.9968 -0.00512593C27.1189 -0.00456327 26.2566 0.227135 25.4967 0.66667C24.7367 1.1062 24.1059 1.73808 23.6676 2.49876C23.2294 3.25944 22.9991 4.1221 23 5C23 6.85 24 8.475 25.5 9.325V12.5H23C13.325 12.5 5.5 20.325 5.5 30H3C1.625 30 0.5 31.125 0.5 32.5V40C0.5 41.375 1.625 42.5 3 42.5H5.5V45C5.5 46.3261 6.02678 47.5979 6.96447 48.5355C7.90215 49.4732 9.17392 50 10.5 50H45.5C48.275 50 50.5 47.775 50.5 45V42.5H53C54.375 42.5 55.5 41.375 55.5 40V32.5C55.5 31.125 54.375 30 53 30ZM22.475 36.25C21.5 34.05 19.325 32.5 16.75 32.5C14.175 32.5 12 34.05 11.025 36.25C10.7 35.475 10.5 34.65 10.5 33.75C10.5 32.0924 11.1585 30.5027 12.3306 29.3306C13.5027 28.1585 15.0924 27.5 16.75 27.5C18.4076 27.5 19.9973 28.1585 21.1694 29.3306C22.3415 30.5027 23 32.0924 23 33.75C23 34.65 22.8 35.475 22.475 36.25ZM44.975 36.25C44 34.05 41.75 32.5 39.25 32.5C36.75 32.5 34.5 34.05 33.525 36.25C33.2 35.475 33 34.65 33 33.75C33 32.0924 33.6585 30.5027 34.8306 29.3306C36.0027 28.1585 37.5924 27.5 39.25 27.5C40.9076 27.5 42.4973 28.1585 43.6694 29.3306C44.8415 30.5027 45.5 32.0924 45.5 33.75C45.5 34.65 45.3 35.475 44.975 36.25Z" fill="url(#paint0_linear_82_95)"/>
<defs>
<linearGradient id="paint0_linear_82_95" x1="28" y1="-0.00512695" x2="28" y2="50" gradientUnits="userSpaceOnUse">
<stop stop-color="#29C3FF"/>
<stop offset="1" stop-color="#2764E7"/>
</linearGradient>
</defs>
</svg>
