<svg width="24" height="24" viewBox="0 0 24 24" fill="none" xmlns="http://www.w3.org/2000/svg">
<path d="M9.00001 15.0003L15 9.00031M11 6.00031L11.463 5.46431C12.4008 4.52663 13.6727 3.99991 14.9989 4C16.325 4.00009 17.5968 4.527 18.5345 5.46481C19.4722 6.40261 19.9989 7.6745 19.9988 9.00066C19.9987 10.3268 19.4718 11.5986 18.534 12.5363L18 13.0003M13 18.0003L12.603 18.5343C11.654 19.472 10.3736 19.9979 9.03951 19.9979C7.70538 19.9979 6.42502 19.472 5.47601 18.5343C5.00813 18.072 4.63665 17.5215 4.38311 16.9146C4.12958 16.3077 3.99902 15.6565 3.99902 14.9988C3.99902 14.3411 4.12958 13.6899 4.38311 13.083C4.63665 12.4761 5.00813 11.9256 5.47601 11.4633L6.00001 11.0003" stroke="#90939B" stroke-width="2" stroke-linecap="round" stroke-linejoin="round"/>
</svg>
