<svg width="22" height="16" viewBox="0 0 22 16" fill="none" xmlns="http://www.w3.org/2000/svg">
<path opacity="0.5" d="M1 8H4M21 8H18M13 8H9" stroke="#A3A2A2" stroke-width="1.5" stroke-linecap="round"/>
<path d="M6.5 1C5.565 1 5.098 1 4.75 1.201C4.52199 1.33265 4.33265 1.52199 4.201 1.75C4 2.098 4 2.565 4 3.5V12.5C4 13.435 4 13.902 4.201 14.25C4.33265 14.478 4.52199 14.6674 4.75 14.799C5.098 15 5.565 15 6.5 15C7.435 15 7.902 15 8.25 14.799C8.47801 14.6674 8.66735 14.478 8.799 14.25C9 13.902 9 13.435 9 12.5V3.5C9 2.565 9 2.098 8.799 1.75C8.66735 1.52199 8.47801 1.33265 8.25 1.201C7.902 1 7.435 1 6.5 1ZM15.5 3C14.565 3 14.098 3 13.75 3.201C13.522 3.33265 13.3326 3.52199 13.201 3.75C13 4.098 13 4.565 13 5.5V10.5C13 11.435 13 11.902 13.201 12.25C13.3326 12.478 13.522 12.6674 13.75 12.799C14.098 13 14.565 13 15.5 13C16.435 13 16.902 13 17.25 12.799C17.478 12.6674 17.6674 12.478 17.799 12.25C18 11.902 18 11.435 18 10.5V5.5C18 4.565 18 4.098 17.799 3.75C17.6674 3.52199 17.478 3.33265 17.25 3.201C16.902 3 16.435 3 15.5 3Z" stroke="#A3A2A2" stroke-width="1.5"/>
</svg>
