<svg width="123" height="144" viewBox="0 0 123 144" fill="none" xmlns="http://www.w3.org/2000/svg">
<path d="M134.765 36.7719C135.449 36.7719 136.305 37.1082 137.046 38.1172C133.738 33.4646 140.753 35.4826 141.152 31.0543C145.145 28.1395 143.719 26.2336 144.859 26.1215L146.114 25.1125C143.662 26.0094 142.806 26.1775 142.122 26.1775H140.981C140.126 26.1775 138.7 26.3457 135.335 27.3547C127.636 27.9152 122.104 36.0992 119.48 36.3234C116.8 37.7248 116.914 38.0051 117.541 38.0051C117.713 38.0051 117.941 37.949 118.169 37.949C118.397 37.949 118.568 37.893 118.739 37.893C119.366 37.893 119.195 38.1732 115.545 39.8549C116.401 40.0791 109.158 43.2182 109.101 48.151C108.873 50.0568 109.671 51.3461 110.983 51.3461C112.123 51.3461 113.549 50.5053 115.089 48.3752C120.222 42.5455 131.058 41.985 135.734 38.4535C132.826 38.2293 133.396 36.7719 134.765 36.7719ZM108.702 38.7338C108.188 38.7338 108.873 38.1172 109.614 37.5006C110.413 36.884 111.325 36.2674 111.325 36.2674L111.268 36.3234C114.348 35.1463 112.466 34.866 114.12 34.0812H114.005C113.663 34.0812 114.291 33.6328 114.861 33.1283C115.431 32.6799 115.945 32.1754 115.431 32.1754C115.146 32.1754 114.405 32.3436 113.15 32.848C113.549 32.2875 115.089 31.8951 117.256 30.718C114.12 31.727 111.667 32.3436 111.382 32.3436C111.154 32.3436 112.466 31.8951 116.401 30.718C116.572 30.718 116.743 30.774 116.857 30.774C117.256 30.774 117.427 30.6619 117.37 30.5498C117.313 30.4377 117.085 30.3816 116.686 30.3816C111.04 30.8301 106.82 34.3055 108.074 34.7539C108.816 34.5297 109.329 34.4176 109.671 34.4176C110.413 34.4176 110.07 35.0342 108.588 35.9311C109.272 37.5006 97.1813 41.5365 95.8125 42.9939C96.4969 42.6016 96.9531 42.4895 97.1813 42.4895C98.0938 42.4895 96.8961 44.2271 95.6984 45.068C96.4398 45.7406 97.0102 45.9648 97.4664 45.9648C98.6641 45.9648 99.1773 44.3393 100.204 43.8348C100.432 44.2832 100.66 44.5074 100.945 44.5074C101.915 44.5074 103.113 42.1531 104.082 40.9199C104.367 41.2002 104.709 41.4244 105.166 41.4244C106.078 41.4244 107.447 40.6957 109.614 38.6217C109.158 38.6777 108.816 38.7338 108.702 38.7338ZM95.5844 49.0479C93.5313 50.2811 92.4477 50.7855 91.9914 50.7855C91.1359 50.7855 92.2766 49.216 93.3031 47.5904C94.3297 46.0209 95.2422 44.4514 93.9305 44.4514C93.3031 44.4514 92.1625 44.7877 90.3375 45.6846C85.3758 48.9357 76.9922 57.9045 73.2852 57.9045H72.943C78.9313 53.5883 77.1633 45.124 85.5469 42.9379C93.8164 38.2854 99.4625 39.7428 106.82 34.4176C104.652 35.4826 101.459 36.6598 100.717 36.6598C100.261 36.6598 100.945 36.0992 103.911 34.6978C103.626 34.7539 103.398 34.81 103.227 34.81C101.23 34.81 116.344 29.4848 117.085 29.3727C110.869 30.2135 100.831 35.3145 99.4625 35.3145C99.2914 35.3145 99.2914 35.2584 99.2914 35.1463C99.5195 34.9781 99.5195 34.866 99.2914 34.866C98.55 34.866 95.4703 35.875 92.3336 36.884C89.2539 37.893 86.1172 38.958 85.4328 38.958C85.2047 38.958 85.2047 38.8459 85.5469 38.6217C58.6281 53.6443 36.1578 78.9811 29.143 109.026C32.0516 115.585 30.0555 128.085 34.8461 131.729C40.3211 136.269 30.1695 149.442 32.85 157.57C35.5875 172.256 47.393 182.29 48.6477 197.312C50.8148 207.627 58.7422 220.239 62.05 226.797C64.5594 229.264 71.4602 236.383 72.6578 236.383C73.1141 236.383 72.8289 235.318 71.0039 232.459C69.8633 229.264 63.2477 220.912 66.4414 220.912C66.6125 220.912 66.7836 220.912 67.0117 220.968C63.0766 217.044 75.7375 218.109 66.8977 212.784C65.8711 211.55 65.643 211.158 65.8711 211.158C66.1562 211.158 66.9547 211.606 67.8672 212.055C68.8367 212.503 69.9773 212.952 70.8898 212.952C72.3156 212.952 73.2852 211.999 72.7148 208.523C72.943 208.636 73.1711 208.636 73.3422 208.636C74.825 208.636 74.3117 205.777 74.4258 202.918C74.5398 200.059 75.2812 197.2 79.2734 197.2C79.7297 197.2 80.243 197.256 80.7562 197.312C89.9953 192.38 81.9539 178.758 92.5617 173.77C92.1625 162.446 76.707 161.886 70.8898 157.289C69.9203 157.85 69.0078 158.018 68.0953 158.018C67.0687 158.018 66.1562 157.794 65.3578 157.514C64.5594 157.289 63.818 157.009 63.3047 157.009C63.1906 157.009 63.0766 157.009 62.9625 157.065C72.8859 154.487 65.643 140.921 57.4305 140.921H56.8602C56.2328 135.036 53.1531 137.278 52.8109 132.401C52.2977 132.681 51.7844 132.794 51.2711 132.794C49.9023 132.794 48.6477 131.841 47.5641 130.944C46.4805 129.991 45.568 129.094 44.7695 129.094C44.1422 129.094 43.5719 129.711 43.0586 131.504C43.6289 128.758 43.4578 127.861 42.8875 127.861C42.3172 127.861 41.2906 128.814 40.15 129.767C39.0664 130.72 37.8117 131.672 36.8422 131.672H36.557C29.8844 127.02 36.6141 118.78 33.0781 112.446C35.3594 110.035 36.2719 105.943 35.2453 105.943C34.732 105.943 33.7055 106.952 32.1086 109.699C29.8273 103.981 35.8727 91.0328 41.0055 90.3041C41.1766 90.3041 41.2906 90.248 41.4617 90.248C42.3742 90.248 43.2867 90.6965 44.0852 91.6494C44.5414 94.284 43.4008 99.8334 43.857 99.8334C44.0852 99.8334 44.5414 98.7123 45.682 95.7975C47.1648 89.127 57.5445 84.3063 58.6281 80.2143C58.6852 80.2703 58.6852 80.2703 58.7422 80.2703C59.9398 80.2703 67.6391 73.5998 71.0039 72.8711C72.3156 71.5818 73.2281 71.1334 73.9125 71.1334C74.6539 71.1334 75.0531 71.6939 75.3383 72.1984C75.6234 72.759 75.8516 73.2635 76.1367 73.2635C76.3648 73.2635 76.65 72.9271 77.1633 71.9742C75.3953 68.5549 79.9578 65.3037 78.7031 65.3037C78.2469 65.3037 76.8781 65.7521 74.0836 66.8732C73.6273 67.0975 73.3992 67.1535 73.2852 67.1535C72.943 67.1535 74.3117 66.2566 76.3078 65.3598C78.3039 64.4629 80.8133 63.566 82.9234 63.566C83.95 63.566 84.8625 63.7902 85.5469 64.3508C94.3867 62.2768 89.5391 59.418 89.9953 59.418H90.1094C92.6188 57.9605 91.8773 52.4672 95.5844 49.0479ZM56.0617 71.9742C55.9477 71.9742 56.4609 71.2455 58.1719 69.1715C61.7078 66.593 64.5594 64.8553 61.3086 63.1736C62.7344 62.557 64.1031 61.8283 65.4148 61.0436C65.3578 63.7902 63.0195 70.4607 61.7648 70.4607C61.4797 70.4607 61.1945 70.0684 61.0805 69.2275C61.8219 67.9383 61.8789 67.4338 61.5938 67.4338C61.1375 67.4338 59.8258 68.5549 58.5711 69.732C57.3164 70.7971 56.1758 71.9742 56.0617 71.9742ZM59.3125 73.4877C57.7727 73.4877 58.0578 72.5348 62.7914 71.5818C64.8445 71.3016 63.2477 71.4137 65.7 70.8531C63.3047 72.759 60.6242 73.4877 59.3125 73.4877ZM147.996 67.8262C148.68 67.7141 149.194 67.7141 149.593 67.7141C151.247 67.7141 150.505 68.3867 149.536 69.0594C148.566 69.732 147.369 70.4047 148.053 70.4047C148.452 70.4047 149.536 70.1805 151.76 69.5639C162.995 68.7791 147.369 59.418 149.878 56.2789L149.194 56.0547C144.574 61.8283 152.273 61.9404 147.996 67.8262ZM143.32 68.0504C144.118 68.0504 145.145 67.1535 146.228 64.6311C147.711 62.8934 147.084 62.6691 145.487 61.8283C141.095 62.9494 141.495 68.0504 143.32 68.0504ZM182.671 85.8197C182.5 85.8197 182.386 85.8758 182.272 85.9318C182.728 86.0439 183.184 86.1561 183.641 86.1561C183.184 85.9318 182.899 85.8197 182.671 85.8197ZM259.264 99.7773C260.234 101.851 260.747 102.692 260.804 102.692C261.203 102.692 253.618 84.5305 250.481 81.2793C234.113 54.8215 207.195 34.5857 176.512 27.0184H176.455C175.656 27.0184 176.569 27.4107 177.652 27.8031C178.736 28.1955 180.048 28.5879 180.048 28.5879C180.048 28.5879 179.192 28.3076 176.569 27.5789C173.66 26.7381 170.695 26.1215 167.672 25.8973C167.159 26.0654 180.162 31.1104 188.888 33.7449C185.979 32.848 182.956 32.0633 182.215 32.0633C181.702 32.0633 182.215 32.3996 184.325 33.2965C181.759 32.5678 180.675 32.2314 180.561 32.2314C180.39 32.2314 183.983 33.4086 187.348 34.5857C190.77 35.7629 194.02 36.94 193.108 36.94C192.88 36.94 192.252 36.8279 191.283 36.6598C194.191 38.2293 195.218 38.8459 195.047 38.8459C194.762 38.8459 191.169 37.1643 187.462 35.4826C183.812 33.801 180.105 32.1193 179.591 32.1193C179.306 32.1193 180.048 32.6799 182.557 34.1373C185.979 35.5947 189.401 37.0521 188.431 37.0521C187.975 37.0521 186.663 36.7719 184.097 36.0432C189.8 38.902 180.048 37.7809 183.355 41.6486C181.53 39.967 180.789 39.4064 180.618 39.4064C180.447 39.4064 180.903 40.0791 181.359 40.7518C181.816 41.4244 182.158 42.0971 181.759 42.0971H181.645C185.637 46.3572 178.85 42.5455 183.698 46.3572C180.048 44.7316 173.831 42.041 176.626 42.041C177.31 42.041 178.622 42.2092 180.675 42.6576C176.968 38.3975 166.474 38.2293 166.246 37.7248C163.623 37.893 163.566 39.8549 164.022 43.4424C163.965 49.1039 158.319 49.216 159.06 52.4672C159.06 52.4111 159.117 52.4111 159.117 52.4111C159.231 52.4111 159.288 53.5322 159.63 54.7094C160.03 55.8305 160.714 57.0076 162.197 57.0076C162.995 57.0076 164.022 56.6713 165.277 55.8305C167.045 58.9695 168.641 60.0906 169.896 60.0906C171.778 60.0906 172.919 57.5682 172.805 55.2699C170.752 54.1488 168.071 44.8438 171.037 44.8438C171.493 44.8438 172.063 45.068 172.805 45.5725C168.185 56.7273 191.055 49.2721 178.109 54.373C181.017 58.1287 176.284 57.9605 177.652 62.501C175.428 63.1176 172.976 63.6781 170.809 63.6781C167.615 63.6781 165.163 62.3328 165.448 57.6242C161.455 59.6982 169.44 66.7051 161.512 66.7051H161.056C157.235 73.5998 142.92 71.2455 154.155 78.5326C154.783 81.7277 152.73 82.2883 150.106 82.2883C149.422 82.2883 148.68 82.2322 147.939 82.1762C147.198 82.1201 146.456 82.1201 145.772 82.1201C142.806 82.1201 140.696 82.8488 142.521 87.3893C141.209 92.0979 144.289 94.1719 148.053 94.1719C152.616 94.1719 158.205 91.257 158.604 86.4363C161.056 82.7928 164.193 81.2793 167.444 81.2793C172.577 81.2793 177.995 85.091 181.53 89.7996C181.816 90.248 182.044 90.4162 182.158 90.4162C182.443 90.4162 182.158 89.2951 182.044 88.174C181.93 87.2771 181.93 86.3803 182.272 86.1C177.196 84.6986 173.318 78.6447 175.029 78.6447C175.599 78.6447 176.797 79.3174 178.736 81.1111H179.021C182.215 81.1111 184.724 83.5775 186.663 86.0439C188.659 88.5104 190.142 90.9768 191.454 90.9768C191.967 90.9768 192.48 90.5283 192.937 89.5193C192.709 89.183 192.138 88.2301 191.853 87.2771C191.511 86.1 191.511 84.9229 193.051 84.9229C193.678 84.9229 194.534 85.1471 195.731 85.5955C199.609 84.5865 193.279 74.6648 198.412 74.6648C198.925 74.6648 199.552 74.7769 200.351 75.0012C200.294 76.7389 201.092 77.3555 201.834 77.3555C203.316 77.3555 204.799 75.2814 201.206 74.6648C202.575 73.3756 203.373 72.8711 203.944 72.8711C205.94 72.8711 204.343 79.3734 211.244 79.3734C213.582 84.8107 190.941 79.7658 198.184 90.192C199.837 91.3691 201.891 91.5934 203.887 91.5934C204.514 91.5934 205.084 91.5934 205.655 91.5373C206.225 91.5373 206.795 91.4812 207.309 91.4812C210.845 91.4812 213.354 92.3221 211.814 99.4971C209.932 100.842 207.822 101.291 205.655 101.291C203.716 101.291 201.777 100.954 199.895 100.618C198.012 100.282 196.188 99.9455 194.534 99.9455C191.967 99.9455 189.914 100.786 188.659 103.701C181.987 101.011 173.204 100.898 174.059 92.7705C162.425 94.3961 150.277 93.5553 141.723 100.562C141.209 110.82 123.302 114.127 127.636 125.787C122.446 136.549 133.909 151.628 145.601 151.628C146 151.628 146.456 151.628 146.855 151.572C153.243 151.516 159.688 148.713 165.334 148.713C168.242 148.713 170.866 149.442 173.147 151.684C173.66 151.628 174.116 151.572 174.516 151.572C183.241 151.572 171.721 165.193 182.158 167.491C191.625 177.133 176.341 187.054 183.812 196.304C184.61 203.535 188.26 209.588 188.26 216.651C189.23 216.763 190.142 216.82 191.112 216.82C203.145 216.82 210.673 206.505 217.745 198.714C215.578 187.054 234.57 184.756 228.068 171.696C225.045 157.402 242.383 148.937 241.413 134.643C241.584 132.625 241.014 132.009 240.159 132.009C239.303 132.009 238.048 132.625 236.851 133.186C235.596 133.803 234.227 134.363 233.144 134.363C231.718 134.363 230.634 133.41 230.52 130.271C222.137 122.592 218.316 112.165 210.502 103.701C220.654 108.522 226.414 119.396 231.091 129.262C231.49 129.374 231.889 129.43 232.345 129.43C240.615 129.43 252.135 109.979 239.588 105.271C238.904 107.121 237.991 107.793 236.908 107.793C235.026 107.793 232.859 105.551 231.319 103.365C229.779 101.123 228.98 98.8805 229.836 98.8805C230.406 98.8805 231.661 99.7773 233.828 102.132C236.28 103.645 238.676 104.037 241.185 104.037C243.638 104.037 246.147 103.645 248.77 103.421C252.078 104.71 253.504 108.858 254.53 108.858C254.702 108.858 254.93 108.69 255.101 108.298C257.724 114.464 260.747 125.45 263.484 128.421C262.059 119.004 261.716 109.026 259.264 99.7773ZM227.441 86.8287C220.996 85.2031 218.886 77.3555 213.81 72.815C213.753 71.5818 215.635 71.8061 215.179 69.732C222.023 71.8061 219.798 73.8801 219.171 74.2725C221.68 78.3645 228.695 81.1672 227.441 86.8287ZM138.871 44.1711C132.655 45.9648 131.799 44.0029 132.883 47.7586C133.339 48.0949 134.195 48.207 135.05 48.207C138.073 48.2631 142.179 46.5254 138.871 44.1711ZM230.178 198.602C238.334 191.819 239.36 183.747 239.759 175.563C236.109 182.57 225.273 190.306 230.178 198.602ZM193.051 89.2951C192.994 89.3512 192.994 89.3512 192.994 89.4072C193.051 89.5193 193.108 89.5193 193.108 89.5193C193.108 89.5193 193.108 89.4633 193.051 89.2951ZM146 0C65.3578 0 0 64.2387 0 143.5C0 222.761 65.3578 287 146 287C226.642 287 292 222.761 292 143.5C292 64.2387 226.642 0 146 0ZM146 275.957C71.5742 275.957 11.2352 216.651 11.2352 143.5C11.2352 70.3486 71.5742 11.0428 146 11.0428C220.426 11.0428 280.765 70.3486 280.765 143.5C280.765 216.651 220.426 275.957 146 275.957Z" fill="#0096C7"/>
</svg>
