<svg width="24" height="25" viewBox="0 0 24 25" fill="none" xmlns="http://www.w3.org/2000/svg">
<g clip-path="url(#clip0_488_303)">
<path d="M12 15.6253C13.6569 15.6253 15 14.2262 15 12.5003C15 10.7744 13.6569 9.37533 12 9.37533C10.3431 9.37533 9 10.7744 9 12.5003C9 14.2262 10.3431 15.6253 12 15.6253Z" stroke="#0096C7" stroke-width="2" stroke-linecap="round" stroke-linejoin="round"/>
<path d="M19.4 15.6253C19.2669 15.9395 19.2272 16.288 19.286 16.6259C19.3448 16.9639 19.4995 17.2757 19.73 17.5212L19.79 17.5837C19.976 17.7771 20.1235 18.0069 20.2241 18.2598C20.3248 18.5127 20.3766 18.7838 20.3766 19.0576C20.3766 19.3314 20.3248 19.6025 20.2241 19.8554C20.1235 20.1083 19.976 20.3381 19.79 20.5316C19.6043 20.7253 19.3837 20.8789 19.1409 20.9838C18.8981 21.0886 18.6378 21.1426 18.375 21.1426C18.1122 21.1426 17.8519 21.0886 17.6091 20.9838C17.3663 20.8789 17.1457 20.7253 16.96 20.5316L16.9 20.4691C16.6643 20.2289 16.365 20.0678 16.0406 20.0066C15.7162 19.9453 15.3816 19.9867 15.08 20.1253C14.7842 20.2574 14.532 20.4766 14.3543 20.7561C14.1766 21.0356 14.0813 21.363 14.08 21.6982V21.8753C14.08 22.4279 13.8693 22.9578 13.4942 23.3485C13.1191 23.7392 12.6104 23.9587 12.08 23.9587C11.5496 23.9587 11.0409 23.7392 10.6658 23.3485C10.2907 22.9578 10.08 22.4279 10.08 21.8753V21.7816C10.0723 21.4368 9.96512 21.1024 9.77251 20.8219C9.5799 20.5414 9.31074 20.3277 9 20.2087C8.69838 20.07 8.36381 20.0286 8.03941 20.0899C7.71502 20.1512 7.41568 20.3123 7.18 20.5524L7.12 20.6149C6.93425 20.8086 6.71368 20.9623 6.47088 21.0671C6.22808 21.172 5.96783 21.2259 5.705 21.2259C5.44217 21.2259 5.18192 21.172 4.93912 21.0671C4.69632 20.9623 4.47575 20.8086 4.29 20.6149C4.10405 20.4214 3.95653 20.1917 3.85588 19.9387C3.75523 19.6858 3.70343 19.4147 3.70343 19.141C3.70343 18.8672 3.75523 18.5961 3.85588 18.3432C3.95653 18.0902 4.10405 17.8605 4.29 17.667L4.35 17.6045C4.58054 17.359 4.73519 17.0472 4.794 16.7093C4.85282 16.3714 4.81312 16.0228 4.68 15.7087C4.55324 15.4006 4.34276 15.1378 4.07447 14.9527C3.80618 14.7677 3.49179 14.6683 3.17 14.667H3C2.46957 14.667 1.96086 14.4475 1.58579 14.0568C1.21071 13.6661 1 13.1362 1 12.5837C1 12.0311 1.21071 11.5012 1.58579 11.1105C1.96086 10.7198 2.46957 10.5003 3 10.5003H3.09C3.42099 10.4923 3.742 10.3807 4.0113 10.18C4.28059 9.97939 4.48572 9.69901 4.6 9.37533C4.73312 9.06114 4.77282 8.71262 4.714 8.37471C4.65519 8.0368 4.50054 7.72499 4.27 7.47949L4.21 7.41699C4.02405 7.22351 3.87653 6.99374 3.77588 6.74083C3.67523 6.48791 3.62343 6.21682 3.62343 5.94303C3.62343 5.66925 3.67523 5.39815 3.77588 5.14524C3.87653 4.89233 4.02405 4.66256 4.21 4.46908C4.39575 4.27537 4.61632 4.12171 4.85912 4.01687C5.10192 3.91203 5.36217 3.85806 5.625 3.85806C5.88783 3.85806 6.14808 3.91203 6.39088 4.01687C6.63368 4.12171 6.85425 4.27537 7.04 4.46908L7.1 4.53158C7.33568 4.77172 7.63502 4.93281 7.95941 4.99408C8.28381 5.05535 8.61838 5.01399 8.92 4.87533H9C9.29577 4.74328 9.54802 4.52403 9.72569 4.24456C9.90337 3.96509 9.99872 3.6376 10 3.30241V3.12533C10 2.57279 10.2107 2.04289 10.5858 1.65219C10.9609 1.26149 11.4696 1.04199 12 1.04199C12.5304 1.04199 13.0391 1.26149 13.4142 1.65219C13.7893 2.04289 14 2.57279 14 3.12533V3.21908C14.0013 3.55427 14.0966 3.88176 14.2743 4.16123C14.452 4.4407 14.7042 4.65995 15 4.79199C15.3016 4.93065 15.6362 4.97202 15.9606 4.91075C16.285 4.84948 16.5843 4.68838 16.82 4.44824L16.88 4.38574C17.0657 4.19204 17.2863 4.03838 17.5291 3.93353C17.7719 3.82869 18.0322 3.77473 18.295 3.77473C18.5578 3.77473 18.8181 3.82869 19.0609 3.93353C19.3037 4.03838 19.5243 4.19204 19.71 4.38574C19.896 4.57923 20.0435 4.809 20.1441 5.06191C20.2448 5.31482 20.2966 5.58592 20.2966 5.8597C20.2966 6.13348 20.2448 6.40458 20.1441 6.65749C20.0435 6.91041 19.896 7.14017 19.71 7.33366L19.65 7.39616C19.4195 7.64166 19.2648 7.95347 19.206 8.29138C19.1472 8.62929 19.1869 8.97781 19.32 9.29199V9.37533C19.4468 9.68342 19.6572 9.94618 19.9255 10.1313C20.1938 10.3163 20.5082 10.4157 20.83 10.417H21C21.5304 10.417 22.0391 10.6365 22.4142 11.0272C22.7893 11.4179 23 11.9478 23 12.5003C23 13.0529 22.7893 13.5828 22.4142 13.9735C22.0391 14.3642 21.5304 14.5837 21 14.5837H20.91C20.5882 14.585 20.2738 14.6843 20.0055 14.8694C19.7372 15.0545 19.5268 15.3172 19.4 15.6253Z" stroke="#0096C7" stroke-width="2" stroke-linecap="round" stroke-linejoin="round"/>
</g>
<defs>
<clipPath id="clip0_488_303">
<rect width="24" height="25" rx="5" fill="white"/>
</clipPath>
</defs>
</svg>
