<svg width="70" height="70" viewBox="0 0 70 70" fill="none" xmlns="http://www.w3.org/2000/svg">
<path d="M15 17.5C15 22.1413 17.1071 26.5925 20.8579 29.8744C24.6086 33.1563 29.6957 35 35 35C40.3043 35 45.3914 33.1563 49.1421 29.8744C52.8929 26.5925 55 22.1413 55 17.5C55 12.8587 52.8929 8.40752 49.1421 5.12563C45.3914 1.84374 40.3043 0 35 0C29.6957 0 24.6086 1.84374 20.8579 5.12563C17.1071 8.40752 15 12.8587 15 17.5ZM29.7656 44.8711L32.6719 49.1094L27.4688 66.0488L21.8438 45.9648C21.5312 44.8574 20.3125 44.1328 19.0469 44.4199C8.10938 46.8125 0 55.4805 0 65.8027C0 68.127 2.15625 70 4.79688 70H25.375C25.375 70 25.375 70 25.3906 70H26.25H43.75H44.6094C44.6094 70 44.6094 70 44.625 70H65.2031C67.8594 70 70 68.1133 70 65.8027C70 55.4805 61.8906 46.8125 50.9531 44.4199C49.6875 44.1465 48.4688 44.8711 48.1562 45.9648L42.5312 66.0488L37.3281 49.1094L40.2344 44.8711C41.2344 43.4082 40.0312 41.5625 38.0938 41.5625H35H31.9219C29.9844 41.5625 28.7812 43.4219 29.7812 44.8711H29.7656Z" fill="url(#paint0_linear_225_326)"/>
<defs>
<linearGradient id="paint0_linear_225_326" x1="35" y1="0" x2="35" y2="70" gradientUnits="userSpaceOnUse">
<stop stop-color="#29C3FF"/>
<stop offset="1" stop-color="#2764E7"/>
</linearGradient>
</defs>
</svg>
