<svg width="52" height="42" viewBox="0 0 52 42" fill="none" xmlns="http://www.w3.org/2000/svg">
<path d="M2.25 6L16 1L29.75 6L23.5 9.75V13.5C23.5 13.5 21.8325 12.25 16 12.25C10.1675 12.25 8.5 13.5 8.5 13.5V9.75L2.25 6ZM2.25 6V16V6Z" fill="url(#paint0_linear_84_112)"/>
<path d="M2.25 6L16 1L29.75 6L23.5 9.75V13.5C23.5 13.5 21.8325 12.25 16 12.25C10.1675 12.25 8.5 13.5 8.5 13.5V9.75L2.25 6ZM2.25 6V16" stroke="black" stroke-width="1.5" stroke-linecap="round" stroke-linejoin="round"/>
<path d="M23.5 12.25V14.4725C23.5 18.7675 20.1425 22.25 16 22.25C11.8575 22.25 8.5 18.7675 8.5 14.4725V12.25M34.295 18.575C34.295 18.575 35.5075 17.6925 39.75 17.6925C43.9925 17.6925 45.205 18.5725 45.205 18.5725M34.295 18.575V16L29.75 13.5L39.75 9.75L49.75 13.5L45.205 16V18.5725M34.295 18.575V19.295C34.295 20.7418 34.8697 22.1293 35.8927 23.1523C36.9157 24.1753 38.3032 24.75 39.75 24.75C41.1968 24.75 42.5843 24.1753 43.6073 23.1523C44.6303 22.1293 45.205 20.7418 45.205 19.295V18.5725M6.9625 30.815C4.605 32.1325 -1.5775 34.82 2.1875 38.1825C4.0275 39.825 6.075 41 8.6525 41H23.3475C25.9225 41 27.9725 39.825 29.8125 38.1825C33.5775 34.82 27.395 32.1325 25.0375 30.815C19.5075 27.7275 12.4925 27.7275 6.9625 30.815ZM36 41H45.2625C47.195 41 48.73 40.06 50.11 38.745C52.935 36.055 48.2975 33.905 46.53 32.8525C44.9581 31.9247 43.2127 31.3291 41.4015 31.1025C39.5904 30.8759 37.752 31.0231 36 31.535" fill="url(#paint1_linear_84_112)"/>
<path d="M23.5 12.25V14.4725C23.5 18.7675 20.1425 22.25 16 22.25C11.8575 22.25 8.5 18.7675 8.5 14.4725V12.25M34.295 18.575C34.295 18.575 35.5075 17.6925 39.75 17.6925C43.9925 17.6925 45.205 18.5725 45.205 18.5725M34.295 18.575V16L29.75 13.5L39.75 9.75L49.75 13.5L45.205 16V18.5725M34.295 18.575V19.295C34.295 20.7418 34.8697 22.1293 35.8927 23.1523C36.9157 24.1753 38.3032 24.75 39.75 24.75C41.1968 24.75 42.5843 24.1753 43.6073 23.1523C44.6303 22.1293 45.205 20.7418 45.205 19.295V18.5725M36 41H45.2625C47.195 41 48.73 40.06 50.11 38.745C52.935 36.055 48.2975 33.905 46.53 32.8525C44.9581 31.9247 43.2127 31.3291 41.4015 31.1025C39.5904 30.8759 37.752 31.0231 36 31.535M6.9625 30.815C4.605 32.1325 -1.5775 34.82 2.1875 38.1825C4.0275 39.825 6.075 41 8.6525 41H23.3475C25.9225 41 27.9725 39.825 29.8125 38.1825C33.5775 34.82 27.395 32.1325 25.0375 30.815C19.5075 27.7275 12.4925 27.7275 6.9625 30.815Z" stroke="black" stroke-width="1.5" stroke-linecap="round" stroke-linejoin="round"/>
<defs>
<linearGradient id="paint0_linear_84_112" x1="16" y1="1" x2="16" y2="16" gradientUnits="userSpaceOnUse">
<stop stop-color="#29C3FF"/>
<stop offset="1" stop-color="#2764E7"/>
</linearGradient>
<linearGradient id="paint1_linear_84_112" x1="26.0006" y1="9.75" x2="26.0006" y2="41" gradientUnits="userSpaceOnUse">
<stop stop-color="#29C3FF"/>
<stop offset="1" stop-color="#2764E7"/>
</linearGradient>
</defs>
</svg>
