<svg width="60" height="60" viewBox="0 0 60 60" fill="none" xmlns="http://www.w3.org/2000/svg">
<path fill-rule="evenodd" clip-rule="evenodd" d="M33.2143 3.21429C33.2143 2.3618 32.8756 1.54424 32.2728 0.941442C31.67 0.338647 30.8525 0 30 0C29.1475 0 28.33 0.338647 27.7272 0.941442C27.1244 1.54424 26.7857 2.3618 26.7857 3.21429V7.5C26.7857 8.35248 27.1244 9.17005 27.7272 9.77284C28.33 10.3756 29.1475 10.7143 30 10.7143C30.8525 10.7143 31.67 10.3756 32.2728 9.77284C32.8756 9.17005 33.2143 8.35248 33.2143 7.5V3.21429ZM2.14286 60H12.0857C16.3851 59.9999 20.5276 58.3842 23.6917 55.4733C26.8558 52.5624 28.8106 48.5688 29.1686 44.2843L29.64 38.5586C29.7243 37.5543 29.4208 36.556 28.7919 35.7685C28.1631 34.981 27.2566 34.4643 26.2586 34.3243H26.25C25.0651 34.2025 23.8791 34.5435 22.9398 35.2759C22.0005 36.0083 21.3807 37.0755 21.21 38.2543L20.52 42.99C20.4387 43.5526 20.1373 44.0599 19.682 44.4003C19.2267 44.7407 18.6548 44.8863 18.0921 44.805C17.5295 44.7237 17.0222 44.4223 16.6818 43.967C16.3414 43.5117 16.1959 42.9398 16.2771 42.3771L16.9629 37.6371C17.2709 35.5307 18.3226 33.604 19.9277 32.2056C21.5329 30.8071 23.5855 30.0293 25.7143 30.0129V22.4786C25.7162 21.0248 25.1683 19.624 24.1805 18.5573C23.1927 17.4906 21.838 16.8369 20.3883 16.7274C18.9387 16.6178 17.5012 17.0605 16.3643 17.9666C15.2274 18.8727 14.4752 20.1753 14.2586 21.6129L11.2671 41.3571C11.1133 42.371 10.6011 43.2961 9.82335 43.9645C9.04564 44.6329 8.05404 45.0003 7.02857 45H2.14286C1.57454 45 1.02949 45.2258 0.627628 45.6276C0.225765 46.0295 0 46.5745 0 47.1429L0 57.8571C0 58.4255 0.225765 58.9705 0.627628 59.3724C1.02949 59.7742 1.57454 60 2.14286 60ZM57.8571 60H47.9143C43.6149 59.9999 39.4724 58.3842 36.3083 55.4733C33.1442 52.5624 31.1894 48.5688 30.8314 44.2843L30.36 38.5586C30.2751 37.5504 30.5809 36.5482 31.2143 35.7592C31.8477 34.9703 32.7602 34.455 33.7629 34.32C34.9463 34.2018 36.1296 34.545 37.0662 35.278C38.0028 36.0109 38.6203 37.0771 38.79 38.2543L39.48 42.99C39.5613 43.5526 39.8627 44.0599 40.318 44.4003C40.7733 44.7407 41.3452 44.8863 41.9079 44.805C42.4705 44.7237 42.9778 44.4223 43.3182 43.967C43.6586 43.5117 43.8041 42.9398 43.7229 42.3771L43.0371 37.6371C42.7301 35.5299 41.6788 33.6022 40.0735 32.2029C38.4683 30.8036 36.4152 30.0252 34.2857 30.0086V22.4829C34.2838 21.029 34.8317 19.6283 35.8195 18.5616C36.8073 17.4949 38.162 16.8412 39.6117 16.7316C41.0613 16.6221 42.4988 17.0648 43.6357 17.9709C44.7726 18.877 45.5248 20.1795 45.7414 21.6171L48.7329 41.3614C48.8867 42.3753 49.3989 43.3004 50.1766 43.9688C50.9544 44.6372 51.946 45.0046 52.9714 45.0043H57.8571C58.4255 45.0043 58.9705 45.23 59.3724 45.6319C59.7742 46.0338 60 46.5788 60 47.1471V57.8614C60 58.4297 59.7742 58.9748 59.3724 59.3767C58.9705 59.7785 58.4255 60.0043 57.8571 60.0043V60ZM49.4143 3.08571C50.0162 3.68839 50.3543 4.50535 50.3543 5.35714C50.3543 6.20893 50.0162 7.02589 49.4143 7.62857L45.1286 11.9143C44.8343 12.2301 44.4794 12.4834 44.0852 12.6591C43.6909 12.8347 43.2652 12.9292 42.8337 12.9368C42.4021 12.9444 41.9734 12.865 41.5732 12.7034C41.1729 12.5417 40.8093 12.3011 40.5041 11.9959C40.1989 11.6907 39.9583 11.3271 39.7966 10.9268C39.635 10.5266 39.5556 10.0979 39.5632 9.66633C39.5708 9.23475 39.6653 8.80912 39.8409 8.41484C40.0166 8.02055 40.2699 7.66569 40.5857 7.37143L44.8714 3.08571C45.4741 2.48378 46.2911 2.14569 47.1429 2.14569C47.9946 2.14569 48.8116 2.48378 49.4143 3.08571ZM15.1286 3.08571C14.5192 2.51794 13.7133 2.20884 12.8806 2.22354C12.0479 2.23823 11.2534 2.57557 10.6645 3.16448C10.0756 3.75339 9.73823 4.5479 9.72354 5.38062C9.70884 6.21334 10.0179 7.01925 10.5857 7.62857L14.8714 11.9143C15.4807 12.4821 16.2867 12.7912 17.1194 12.7765C17.9521 12.7618 18.7466 12.4244 19.3355 11.8355C19.9244 11.2466 20.2618 10.4521 20.2765 9.61938C20.2912 8.78666 19.9821 7.98075 19.4143 7.37143L15.1286 3.08571Z" fill="url(#paint0_linear_82_62)"/>
<defs>
<linearGradient id="paint0_linear_82_62" x1="30" y1="0" x2="30" y2="60.0043" gradientUnits="userSpaceOnUse">
<stop stop-color="#29C3FF"/>
<stop offset="1" stop-color="#2764E7"/>
</linearGradient>
</defs>
</svg>
