<?xml version="1.0"?>
<svg width="640" height="480" xmlns="http://www.w3.org/2000/svg" xmlns:svg="http://www.w3.org/2000/svg">
 <!-- Created with SVG-edit - https://github.com/SVG-Edit/svgedit-->
 <g class="layer" display="inline">
  <title>Layer 1</title>
  <line fill="none" id="svg_28" stroke="#0096c7" transform="matrix(2.39536 0 0 2.27333 -475.812 -316.119) matrix(0.975643 0 0 0.975643 5.57074 6.47671)" x1="354.38" x2="327.01" y1="342.53" y2="343.58"/>
  <g id="svg_3" transform="translate(72.0415 7.98824) scale(0.983357 1) translate(-72.0415 -7.98824)">
   <line fill="none" id="svg_24" stroke="#0096c7" transform="matrix(2.39536 0 0 2.27333 -475.812 -316.119) matrix(0.975643 0 0 0.975643 5.57074 6.47671)" x1="247.01" x2="270.17" y1="190.95" y2="165.68"/>
   <line fill="none" id="svg_25" stroke="#0096c7" transform="matrix(2.39536 0 0 2.27333 -475.812 -316.119) matrix(0.975643 0 0 0.975643 5.57074 6.47671)" x1="247.54" x2="234.91" y1="192.53" y2="219.37"/>
   <line fill="none" id="svg_27" stroke="#0096c7" transform="matrix(2.39536 0 0 2.27333 -475.812 -316.119) matrix(0.975643 0 0 0.975643 5.57074 6.47671)" x1="234.38" x2="232.8" y1="219.89" y2="244.11"/>
   <line fill="none" id="svg_29" stroke="#0096c7" transform="matrix(2.39536 0 0 2.27333 -475.812 -316.119) matrix(0.975643 0 0 0.975643 5.57074 6.47671)" x1="235.96" x2="232.28" y1="273.58" y2="245.68"/>
   <line fill="none" id="svg_30" stroke="#0096c7" transform="matrix(2.39536 0 0 2.27333 -475.812 -316.119) matrix(0.975643 0 0 0.975643 5.57074 6.47671)" x1="294.38" x2="326.49" y1="337.26" y2="344.11"/>
   <line fill="none" id="svg_31" stroke="#0096c7" transform="matrix(2.39536 0 0 2.27333 -475.812 -316.119) matrix(0.975643 0 0 0.975643 5.57074 6.47671)" x1="250.7" x2="235.43" y1="302.53" y2="270.95"/>
   <line fill="none" id="svg_32" stroke="#0096c7" transform="matrix(2.39536 0 0 2.27333 -475.812 -316.119) matrix(0.975643 0 0 0.975643 5.57074 6.47671)" x1="294.91" x2="269.12" y1="336.21" y2="323.58"/>
   <line fill="none" id="svg_33" stroke="#0096c7" transform="matrix(2.39536 0 0 2.27333 -475.812 -316.119) matrix(0.975643 0 0 0.975643 5.57074 6.47671)" x1="251.75" x2="269.64" y1="303.58" y2="324.63"/>
   <line fill="none" id="svg_34" stroke="#0096c7" transform="matrix(2.39536 0 0 2.27333 -475.812 -316.119) matrix(0.975643 0 0 0.975643 5.57074 6.47671)" x1="270.17" x2="295.96" y1="166.21" y2="150.95"/>
   <line fill="none" id="svg_35" stroke="#0096c7" transform="matrix(2.39536 0 0 2.27333 -475.812 -316.119) matrix(0.975643 0 0 0.975643 5.57074 6.47671)" x1="357.01" x2="324.38" y1="147.79" y2="145.16"/>
   <line fill="none" id="svg_36" stroke="#0096c7" transform="matrix(2.39536 0 0 2.27333 -475.812 -316.119) matrix(0.975643 0 0 0.975643 5.57074 6.47671)" x1="295.43" x2="324.91" y1="151.47" y2="144.63"/>
   <line fill="none" id="svg_37" stroke="#0096c7" transform="matrix(2.39536 0 0 2.27333 -475.812 -316.119) matrix(0.975643 0 0 0.975643 5.57074 6.47671)" x1="236.49" x2="267.54" y1="216.74" y2="220.95"/>
   <line fill="none" id="svg_38" stroke="#0096c7" transform="matrix(2.39536 0 0 2.27333 -475.812 -316.119) matrix(0.975643 0 0 0.975643 5.57074 6.47671)" x1="269.64" x2="292.8" y1="166.74" y2="189.89"/>
   <line fill="none" id="svg_39" stroke="#0096c7" transform="matrix(2.39536 0 0 2.27333 -475.812 -316.119) matrix(0.975643 0 0 0.975643 5.57074 6.47671)" x1="268.06" x2="291.22" y1="219.89" y2="188.84"/>
   <line fill="none" id="svg_41" stroke="#0096c7" transform="matrix(2.39536 0 0 2.27333 -475.812 -316.119) matrix(0.975643 0 0 0.975643 5.57074 6.47671)" x1="331.75" x2="323.85" y1="177.26" y2="143.58"/>
   <line fill="none" id="svg_42" stroke="#0096c7" transform="matrix(2.39536 0 0 2.27333 -475.812 -316.119) matrix(0.975643 0 0 0.975643 5.57074 6.47671)" x1="292.28" x2="331.75" y1="188.32" y2="177.26"/>
   <line fill="none" id="svg_43" stroke="#0096c7" transform="matrix(2.39536 0 0 2.27333 -475.812 -316.119) matrix(0.975643 0 0 0.975643 5.57074 6.47671)" x1="302.28" x2="266.49" y1="216.21" y2="220.95"/>
   <line fill="none" id="svg_44" stroke="#0096c7" transform="matrix(2.39536 0 0 2.27333 -475.812 -316.119) matrix(0.975643 0 0 0.975643 5.57074 6.47671)" x1="292.28" x2="304.91" y1="189.37" y2="216.21"/>
   <line fill="none" id="svg_46" stroke="#0096c7" transform="matrix(2.39536 0 0 2.27333 -475.812 -316.119) matrix(0.975643 0 0 0.975643 5.57074 6.47671)" x1="295.96" x2="331.75" y1="151.47" y2="177.79"/>
   <line fill="none" id="svg_48" stroke="#0096c7" transform="matrix(2.39536 0 0 2.27333 -475.812 -316.119) matrix(0.975643 0 0 0.975643 5.57074 6.47671)" x1="235.96" x2="273.33" y1="274.11" y2="249.89"/>
   <line fill="none" id="svg_49" stroke="#0096c7" transform="matrix(2.39536 0 0 2.27333 -475.812 -316.119) matrix(0.975643 0 0 0.975643 5.57074 6.47671)" x1="268.06" x2="273.33" y1="220.95" y2="249.37"/>
   <line fill="none" id="svg_50" stroke="#0096c7" transform="matrix(2.39536 0 0 2.27333 -475.812 -316.119) matrix(0.975643 0 0 0.975643 5.57074 6.47671)" x1="232.28" x2="273.85" y1="244.63" y2="250.42"/>
   <line fill="none" id="svg_51" stroke="#0096c7" transform="matrix(2.39536 0 0 2.27333 -475.812 -316.119) matrix(0.975643 0 0 0.975643 5.57074 6.47671)" x1="249.64" x2="292.8" y1="191.47" y2="188.32"/>
   <circle cx="307.32" cy="245.42" fill="#0096c7" id="svg_53" r="3.83" stroke="#0096c7" transform="matrix(2.39536 0 0 2.27333 -465.812 -316.119) matrix(0.975643 0 0 0.975643 5.46906 6.4767)"/>
   <circle cx="307.32" cy="245.42" fill="#0096c7" id="svg_58" r="3.83" stroke="#0096c7" transform="matrix(2.39536 0 0 2.27333 -465.812 -316.119) matrix(0.975643 0 0 0.975643 5.46906 6.4767)"/>
   <line fill="none" id="svg_59" stroke="#0096c7" transform="matrix(2.39536 0 0 2.27333 -475.812 -316.119) matrix(0.975643 0 0 0.975643 5.57074 6.47671)" x1="276.49" x2="311.22" y1="250.95" y2="245.16"/>
   <line fill="none" id="svg_65" stroke="#0096c7" transform="matrix(2.39536 0 0 2.27333 -475.812 -316.119) matrix(0.975643 0 0 0.975643 5.57074 6.47671)" x1="327.54" x2="320.17" y1="341.47" y2="316.74"/>
   <line fill="none" id="svg_69" stroke="#0096c7" transform="matrix(2.39536 0 0 2.27333 -475.812 -316.119) matrix(0.975643 0 0 0.975643 5.57074 6.47671)" x1="270.17" x2="288.59" y1="319.89" y2="288.32"/>
   <line fill="none" id="svg_70" stroke="#0096c7" transform="matrix(2.39536 0 0 2.27333 -475.812 -316.119) matrix(0.975643 0 0 0.975643 5.57074 6.47671)" x1="294.91" x2="317.01" y1="333.58" y2="316.21"/>
   <line fill="none" id="svg_71" stroke="#0096c7" transform="matrix(2.39536 0 0 2.27333 -475.812 -316.119) matrix(0.975643 0 0 0.975643 5.57074 6.47671)" x1="288.06" x2="272.28" y1="287.79" y2="250.42"/>
   <line fill="none" id="svg_72" stroke="#0096c7" transform="matrix(2.39536 0 0 2.27333 -475.812 -316.119) matrix(0.975643 0 0 0.975643 5.57074 6.47671)" x1="318.06" x2="345.43" y1="316.21" y2="287.79"/>
   <line fill="none" id="svg_74" stroke="#0096c7" transform="matrix(2.39536 0 0 2.27333 -475.812 -316.119) matrix(0.975643 0 0 0.975643 5.57074 6.47671)" x1="285.43" x2="318.06" y1="288.32" y2="314.11"/>
   <line fill="none" id="svg_75" stroke="#0096c7" transform="matrix(2.39536 0 0 2.27333 -475.812 -316.119) matrix(0.975643 0 0 0.975643 5.57074 6.47671)" x1="290.7" x2="311.22" y1="287.79" y2="245.68"/>
   <line fill="none" id="svg_76" stroke="#0096c7" transform="matrix(2.39536 0 0 2.27333 -475.812 -316.119) matrix(0.975643 0 0 0.975643 5.57074 6.47671)" x1="341.75" x2="310.7" y1="286.74" y2="245.16"/>
   <line fill="none" id="svg_77" stroke="#0096c7" transform="matrix(2.39536 0 0 2.27333 -475.812 -316.119) matrix(0.975643 0 0 0.975643 5.57074 6.47671)" x1="346.49" x2="355.96" y1="290.42" y2="339.89"/>
   <line fill="none" id="svg_79" stroke="#0096c7" transform="matrix(2.39536 0 0 2.27333 -475.812 -316.119) matrix(0.975643 0 0 0.975643 5.57074 6.47671)" x1="311.75" x2="344.91" y1="245.68" y2="242.53"/>
   <line fill="none" id="svg_80" stroke="#0096c7" transform="matrix(2.39536 0 0 2.27333 -475.812 -316.119) matrix(0.975643 0 0 0.975643 5.57074 6.47671)" x1="343.85" x2="343.85" y1="288.84" y2="242.53"/>
   <line fill="none" id="svg_82" stroke="#0096c7" transform="matrix(2.39536 0 0 2.27333 -475.812 -316.119) matrix(0.975643 0 0 0.975643 5.57074 6.47671)" x1="313.33" x2="303.33" y1="247.79" y2="214.63"/>
   <line fill="none" id="svg_87" stroke="#0096c7" transform="matrix(2.39536 0 0 2.27333 -475.812 -316.119) matrix(0.975643 0 0 0.975643 5.57074 6.47671)" x1="331.75" x2="353.33" y1="175.68" y2="210.42"/>
   <line fill="none" id="svg_88" stroke="#0096c7" transform="matrix(2.39536 0 0 2.27333 -475.812 -316.119) matrix(0.975643 0 0 0.975643 5.57074 6.47671)" x1="304.38" x2="353.33" y1="215.16" y2="209.37"/>
   <line fill="none" id="svg_89" stroke="#0096c7" transform="matrix(2.39536 0 0 2.27333 -475.812 -316.119) matrix(0.975643 0 0 0.975643 5.57074 6.47671)" x1="345.43" x2="353.33" y1="241.47" y2="209.89"/>
   <line fill="none" id="svg_90" stroke="#0096c7" transform="matrix(2.39536 0 0 2.27333 -475.812 -316.119) matrix(0.975643 0 0 0.975643 5.57074 6.47671)" x1="331.75" x2="382.28" y1="176.21" y2="195.68"/>
   <line fill="none" id="svg_91" stroke="#0096c7" transform="matrix(2.39536 0 0 2.27333 -475.812 -316.119) matrix(0.975643 0 0 0.975643 5.57074 6.47671)" x1="352.8" x2="382.8" y1="207.79" y2="196.21"/>
   <line fill="none" id="svg_92" stroke="#0096c7" transform="matrix(2.39536 0 0 2.27333 -475.812 -316.119) matrix(0.975643 0 0 0.975643 5.57074 6.47671)" x1="356.49" x2="382.8" y1="146.74" y2="197.26"/>
   <line fill="none" id="svg_93" stroke="#0096c7" transform="matrix(2.39536 0 0 2.27333 -475.812 -316.119) matrix(0.975643 0 0 0.975643 5.57074 6.47671)" x1="330.7" x2="357.01" y1="178.32" y2="148.32"/>
   <line fill="none" id="svg_96" stroke="#0096c7" transform="matrix(2.39536 0 0 2.27333 -475.812 -316.119) matrix(0.975643 0 0 0.975643 5.57074 6.47671)" x1="345.96" x2="387.54" y1="243.05" y2="243.58"/>
   <line fill="none" id="svg_98" stroke="#0096c7" transform="matrix(2.39536 0 0 2.27333 -475.812 -316.119) matrix(0.975643 0 0 0.975643 5.57074 6.47671)" x1="384.38" x2="388.06" y1="196.21" y2="241.47"/>
   <line fill="none" id="svg_99" stroke="#0096c7" transform="matrix(2.39536 0 0 2.27333 -475.812 -316.119) matrix(0.975643 0 0 0.975643 5.57074 6.47671)" x1="345.96" x2="388.06" y1="288.84" y2="243.58"/>
   <line fill="none" id="svg_103" stroke="#0096c7" transform="matrix(2.39536 0 0 2.27333 -475.812 -316.119) matrix(0.975643 0 0 0.975643 5.57074 6.47671)" x1="357.01" x2="380.7" y1="147.79" y2="152"/>
   <circle cx="375.74" cy="152" fill="#0096c7" id="svg_104" r="1.72" stroke="#0096c7" transform="matrix(2.39536 0 0 2.27333 -465.812 -316.119) matrix(0.975643 0 0 0.975643 5.46906 6.4767)"/>
   <circle cx="335.47" cy="305.95" fill="#0096c7" id="svg_105" r="1.72" stroke="#0096c7" transform="matrix(2.39536 0 0 2.27333 -465.812 -316.119) matrix(0.975643 0 0 0.975643 5.46906 6.4767)"/>
   <circle cx="360.09" cy="257.3" fill="#0096c7" id="svg_106" r="1.72" stroke="#0096c7" transform="matrix(2.39536 0 0 2.27333 -465.812 -316.119) matrix(0.975643 0 0 0.975643 5.46906 6.4767)"/>
   <circle cx="353.75" cy="226.49" fill="#0096c7" id="svg_107" r="1.72" stroke="#0096c7" transform="matrix(2.39536 0 0 2.27333 -465.812 -316.119) matrix(0.975643 0 0 0.975643 5.46906 6.4767)"/>
   <circle cx="368.1" cy="217.53" fill="#0096c7" id="svg_108" r="1.72" stroke="#0096c7" transform="matrix(2.39536 0 0 2.27333 -465.812 -316.119) matrix(0.975643 0 0 0.975643 5.46906 6.4767)"/>
   <circle cx="349.15" cy="195.95" fill="#0096c7" id="svg_109" r="1.72" stroke="#0096c7" transform="matrix(2.39536 0 0 2.27333 -465.812 -316.119) matrix(0.975643 0 0 0.975643 5.46906 6.4767)"/>
   <circle cx="333.89" cy="154.37" fill="#0096c7" id="svg_110" r="1.72" stroke="#0096c7" transform="matrix(2.39536 0 0 2.27333 -465.812 -316.119) matrix(0.975643 0 0 0.975643 5.46906 6.4767)"/>
   <circle cx="350.21" cy="174.37" fill="#0096c7" id="svg_111" r="1.72" stroke="#0096c7" transform="matrix(2.39536 0 0 2.27333 -465.812 -316.119) matrix(0.975643 0 0 0.975643 5.46906 6.4767)"/>
   <line fill="none" id="svg_112" stroke="#0096c7" transform="matrix(2.39536 0 0 2.27333 -475.812 -316.119) matrix(0.975643 0 0 0.975643 5.57074 6.47671)" x1="354.91" x2="388.06" y1="209.37" y2="242"/>
   <line fill="none" id="svg_113" stroke="#0096c7" transform="matrix(2.39536 0 0 2.27333 -475.812 -316.119) matrix(0.975643 0 0 0.975643 5.57074 6.47671)" x1="317.54" x2="354.91" y1="314.11" y2="340.42"/>
   <circle cx="415.5" cy="296.87" fill="#0096c7" id="svg_121" r="1.72" stroke="#0096c7" transform="matrix(2.39536 0 0 2.27333 -465.812 -316.119) matrix(0.975643 0 0 0.975643 5.46906 6.4767)"/>
   <circle cx="428.5" cy="255.12" fill="#0096c7" id="svg_124" r="1.72" stroke="#0096c7" transform="matrix(2.39536 0 0 2.27333 -465.812 -316.119) matrix(0.975643 0 0 0.975643 5.46906 6.4767)"/>
   <circle cx="378.5" cy="172.37" fill="#0096c7" id="svg_130" r="1.72" stroke="#0096c7" transform="matrix(2.39536 0 0 2.27333 -465.812 -316.119) matrix(0.975643 0 0 0.975643 5.46906 6.4767)"/>
   <circle cx="424.75" cy="218.87" fill="#0096c7" id="svg_132" r="1.72" stroke="#0096c7" transform="matrix(2.39536 0 0 2.27333 -465.812 -316.119) matrix(0.975643 0 0 0.975643 5.46906 6.4767)"/>
   <circle cx="391.75" cy="226.62" fill="#0096c7" id="svg_133" r="1.72" stroke="#0096c7" transform="matrix(2.39536 0 0 2.27333 -465.812 -316.119) matrix(0.975643 0 0 0.975643 5.46906 6.4767)"/>
   <circle cx="388.75" cy="266.62" fill="#0096c7" id="svg_134" r="1.72" stroke="#0096c7" transform="matrix(2.39536 0 0 2.27333 -465.812 -316.119) matrix(0.975643 0 0 0.975643 5.46906 6.4767)"/>
   <circle cx="394.75" cy="186.12" fill="#0096c7" id="svg_137" r="1.72" stroke="#0096c7" transform="matrix(2.39536 0 0 2.27333 -465.812 -316.119) matrix(0.975643 0 0 0.975643 5.46906 6.4767)"/>
   <circle cx="362.5" cy="309.12" fill="#0096c7" id="svg_138" r="1.72" stroke="#0096c7" transform="matrix(2.39536 0 0 2.27333 -465.812 -316.119) matrix(0.975643 0 0 0.975643 5.46906 6.4767)"/>
   <circle cx="364.25" cy="281.37" fill="#0096c7" id="svg_139" r="1.72" stroke="#0096c7" transform="matrix(2.39536 0 0 2.27333 -465.812 -316.119) matrix(0.975643 0 0 0.975643 5.46906 6.4767)"/>
   <circle cx="395.75" cy="295.87" fill="#0096c7" id="svg_140" r="1.72" stroke="#0096c7" transform="matrix(2.39536 0 0 2.27333 -465.812 -316.119) matrix(0.975643 0 0 0.975643 5.46906 6.4767)"/>
   <circle cx="410.25" cy="242.37" fill="#0096c7" id="svg_142" r="1.72" stroke="#0096c7" transform="matrix(2.39536 0 0 2.27333 -465.812 -316.119) matrix(0.975643 0 0 0.975643 5.46906 6.4767)"/>
   <line fill="none" id="svg_144" stroke="#0096c7" transform="matrix(2.39536 0 0 2.27333 -475.812 -316.119) matrix(0.975643 0 0 0.975643 5.57074 6.47671)" x1="356.92" x2="390.42" y1="341.5" y2="328.5"/>
   <line fill="none" id="svg_150" stroke="#0096c7" transform="matrix(2.39536 0 0 2.27333 -475.812 -316.119) matrix(0.975643 0 0 0.975643 5.57074 6.47671)" x1="383.92" x2="391.67" y1="195.75" y2="164.25"/>
   <line fill="none" id="svg_152" stroke="#0096c7" transform="matrix(2.39536 0 0 2.27333 -475.812 -316.119) matrix(0.975643 0 0 0.975643 5.57074 6.47671)" x1="384.42" x2="414.42" y1="195.5" y2="186.75"/>
   <line fill="none" id="svg_155" stroke="#0096c7" transform="matrix(2.39536 0 0 2.27333 -475.812 -316.119) matrix(0.975643 0 0 0.975643 5.57074 6.47671)" x1="388.67" x2="415.92" y1="244" y2="224.25"/>
   <line fill="none" id="svg_158" stroke="#0096c7" transform="matrix(2.39536 0 0 2.27333 -475.812 -316.119) matrix(0.975643 0 0 0.975643 5.57074 6.47671)" x1="414.92" x2="432.17" y1="225" y2="231.75"/>
   <line fill="none" id="svg_159" stroke="#0096c7" transform="matrix(2.39536 0 0 2.27333 -475.812 -316.119) matrix(0.975643 0 0 0.975643 5.57074 6.47671)" x1="414.67" x2="422.92" y1="225.75" y2="201.5"/>
   <line fill="none" id="svg_160" stroke="#0096c7" transform="matrix(2.39536 0 0 2.27333 -475.812 -316.119) matrix(0.975643 0 0 0.975643 5.57074 6.47671)" x1="383.92" x2="414.42" y1="196.25" y2="225"/>
   <line fill="none" id="svg_161" stroke="#0096c7" transform="matrix(2.39536 0 0 2.27333 -475.812 -316.119) matrix(0.975643 0 0 0.975643 5.57074 6.47671)" x1="387.67" x2="412.92" y1="243.25" y2="277.5"/>
   <line fill="none" id="svg_162" stroke="#0096c7" transform="matrix(2.39536 0 0 2.27333 -475.812 -316.119) matrix(0.975643 0 0 0.975643 5.57074 6.47671)" x1="346.17" x2="381.67" y1="288.75" y2="300.25"/>
   <line fill="none" id="svg_163" stroke="#0096c7" transform="matrix(2.39536 0 0 2.27333 -475.812 -316.119) matrix(0.975643 0 0 0.975643 5.57074 6.47671)" x1="386.42" x2="425.67" y1="243.5" y2="253.75"/>
   <line fill="none" id="svg_164" stroke="#0096c7" transform="matrix(2.39536 0 0 2.27333 -475.812 -316.119) matrix(0.975643 0 0 0.975643 5.57074 6.47671)" x1="386.67" x2="381.92" y1="244.75" y2="298.75"/>
   <line fill="none" id="svg_165" stroke="#0096c7" transform="matrix(2.39536 0 0 2.27333 -475.812 -316.119) matrix(0.975643 0 0 0.975643 5.57074 6.47671)" x1="382.67" x2="413.17" y1="298.5" y2="276.25"/>
   <line fill="none" id="svg_166" stroke="#0096c7" transform="matrix(2.39536 0 0 2.27333 -475.812 -316.119) matrix(0.975643 0 0 0.975643 5.57074 6.47671)" x1="414.92" x2="429.67" y1="277" y2="273.5"/>
   <line fill="none" id="svg_169" stroke="#0096c7" transform="matrix(2.39536 0 0 2.27333 -475.812 -316.119) matrix(0.975643 0 0 0.975643 5.57074 6.47671)" x1="382.17" x2="357.42" y1="298.25" y2="340.5"/>
   <circle cx="380.5" cy="317.38" fill="#0096c7" id="svg_171" r="1.72" stroke="#0096c7" transform="matrix(2.39536 0 0 2.27333 -465.812 -316.119) matrix(0.975643 0 0 0.975643 5.46906 6.4767)"/>
   <circle cx="401.25" cy="317.63" fill="#0096c7" id="svg_172" r="1.72" stroke="#0096c7" transform="matrix(2.39536 0 0 2.27333 -465.812 -316.119) matrix(0.975643 0 0 0.975643 5.46906 6.4767)"/>
   <line fill="none" id="svg_173" stroke="#0096c7" transform="matrix(2.39536 0 0 2.27333 -475.812 -316.119) matrix(0.975643 0 0 0.975643 5.57074 6.47671)" x1="412.42" x2="406.67" y1="277.5" y2="310.25"/>
   <line fill="none" id="svg_174" stroke="#0096c7" transform="matrix(2.39536 0 0 2.27333 -475.812 -316.119) matrix(0.975643 0 0 0.975643 5.57074 6.47671)" x1="382.17" x2="400.92" y1="299.25" y2="314.25"/>
   <circle cx="404.25" cy="205.38" fill="#0096c7" id="svg_175" r="1.72" stroke="#0096c7" transform="matrix(2.39536 0 0 2.27333 -465.812 -316.119) matrix(0.975643 0 0 0.975643 5.46906 6.4767)"/>
   <line fill="none" id="svg_176" stroke="#0096c7" transform="matrix(2.39536 0 0 2.27333 -475.812 -316.119) matrix(0.975643 0 0 0.975643 5.57074 6.47671)" x1="292.42" x2="352.92" y1="189.75" y2="209.5"/>
   <line fill="none" id="svg_177" stroke="#0096c7" transform="matrix(2.39536 0 0 2.27333 -475.812 -316.119) matrix(0.975643 0 0 0.975643 5.57074 6.47671)" x1="311.67" x2="353.67" y1="244.5" y2="207.75"/>
   <line fill="none" id="svg_182" stroke="#0096c7" transform="matrix(2.39536 0 0 2.27333 -475.812 -316.119) matrix(0.975643 0 0 0.975643 5.57074 6.47671)" x1="345.92" x2="316.17" y1="288" y2="283"/>
   <line fill="none" id="svg_183" stroke="#0096c7" transform="matrix(2.39536 0 0 2.27333 -475.812 -316.119) matrix(0.975643 0 0 0.975643 5.57074 6.47671)" x1="288.17" x2="315.42" y1="288.75" y2="283.25"/>
   <line fill="none" id="svg_184" stroke="#0096c7" transform="matrix(2.39536 0 0 2.27333 -475.812 -316.119) matrix(0.975643 0 0 0.975643 5.57074 6.47671)" x1="319.92" x2="315.67" y1="315.75" y2="282.75"/>
   <line fill="none" id="svg_185" stroke="#0096c7" transform="matrix(2.39536 0 0 2.27333 -475.812 -316.119) matrix(0.975643 0 0 0.975643 5.57074 6.47671)" x1="309.67" x2="315.17" y1="246" y2="282"/>
   <line fill="none" id="svg_187" stroke="#0096c7" transform="matrix(2.39536 0 0 2.27333 -475.812 -316.119) matrix(0.975643 0 0 0.975643 5.57074 6.47671)" x1="236.92" x2="265.67" y1="273.5" y2="288.75"/>
   <line fill="none" id="svg_189" stroke="#0096c7" transform="matrix(2.39536 0 0 2.27333 -475.812 -316.119) matrix(0.975643 0 0 0.975643 5.57074 6.47671)" x1="272.67" x2="265.92" y1="250" y2="288"/>
   <line fill="none" id="svg_190" stroke="#0096c7" transform="matrix(2.39536 0 0 2.27333 -475.812 -316.119) matrix(0.975643 0 0 0.975643 5.57074 6.47671)" x1="288.92" x2="265.92" y1="289" y2="288.25"/>
   <line fill="none" id="svg_191" stroke="#0096c7" transform="matrix(2.39536 0 0 2.27333 -475.812 -316.119) matrix(0.975643 0 0 0.975643 5.57074 6.47671)" x1="250.42" x2="266.17" y1="301.75" y2="288"/>
   <line fill="none" id="svg_193" stroke="#0096c7" transform="matrix(2.39536 0 0 2.27333 -475.812 -316.119) matrix(0.975643 0 0 0.975643 5.57074 6.47671)" x1="269.67" x2="265.42" y1="323.75" y2="288"/>
   <line fill="none" id="svg_196" stroke="#0096c7" transform="matrix(2.39536 0 0 2.27333 -475.812 -316.119) matrix(0.975643 0 0 0.975643 5.57074 6.47671)" x1="232.67" x2="253.67" y1="245" y2="237.75"/>
   <line fill="none" id="svg_197" stroke="#0096c7" transform="matrix(2.39536 0 0 2.27333 -475.812 -316.119) matrix(0.975643 0 0 0.975643 5.57074 6.47671)" x1="273.67" x2="252.92" y1="250.25" y2="237.25"/>
   <line fill="none" id="svg_198" stroke="#0096c7" transform="matrix(2.39536 0 0 2.27333 -475.812 -316.119) matrix(0.975643 0 0 0.975643 5.57074 6.47671)" x1="267.17" x2="253.42" y1="220.25" y2="238.5"/>
   <line fill="none" id="svg_199" stroke="#0096c7" transform="matrix(2.39536 0 0 2.27333 -475.812 -316.119) matrix(0.975643 0 0 0.975643 5.57074 6.47671)" x1="236.42" x2="253.67" y1="218.5" y2="237.75"/>
   <line fill="none" id="svg_200" stroke="#0096c7" transform="matrix(2.39536 0 0 2.27333 -475.812 -316.119) matrix(0.975643 0 0 0.975643 5.57074 6.47671)" x1="267.42" x2="311.92" y1="222" y2="245.5"/>
   <circle cx="261.5" cy="288.63" fill="#0096c7" id="svg_186" r="3.83" stroke="#0096c7" transform="matrix(2.39536 0 0 2.27333 -465.812 -316.119) matrix(0.975643 0 0 0.975643 5.46906 6.4767)"/>
   <circle cx="265.47" cy="166.74" fill="#0096c7" id="svg_5" r="5.67" stroke="#0096c7" transform="matrix(2.39536 0 0 2.27333 -465.812 -316.119) matrix(0.975643 0 0 0.975643 5.46906 6.4767)"/>
   <circle cx="291.53" cy="151.74" fill="#0096c7" id="svg_13" r="3.83" stroke="#0096c7" transform="matrix(2.39536 0 0 2.27333 -465.812 -316.119) matrix(0.975643 0 0 0.975643 5.46906 6.4767)"/>
   <circle cx="320.74" cy="145.16" fill="#0096c7" id="svg_15" r="5.67" stroke="#0096c7" transform="matrix(2.39536 0 0 2.27333 -465.812 -316.119) matrix(0.975643 0 0 0.975643 5.46906 6.4767)"/>
   <circle cx="353.11" cy="147.53" fill="#0096c7" id="svg_17" r="3.83" stroke="#0096c7" transform="matrix(2.39536 0 0 2.27333 -465.812 -316.119) matrix(0.975643 0 0 0.975643 5.46906 6.4767)"/>
   <circle cx="327.05" cy="177.26" fill="#0096c7" id="svg_23" r="5.67" stroke="#0096c7" transform="matrix(2.39536 0 0 2.27333 -465.812 -316.119) matrix(0.975643 0 0 0.975643 5.46906 6.4767)"/>
   <circle cx="287.84" cy="189.63" fill="#0096c7" id="svg_19" r="3.83" stroke="#0096c7" transform="matrix(2.39536 0 0 2.27333 -465.812 -316.119) matrix(0.975643 0 0 0.975643 5.46906 6.4767)"/>
   <circle cx="231.79" cy="218.84" fill="#0096c7" id="svg_6" r="5.67" stroke="#0096c7" transform="matrix(2.39536 0 0 2.27333 -465.812 -316.119) matrix(0.975643 0 0 0.975643 5.46906 6.4767)"/>
   <circle cx="243.63" cy="191.74" fill="#0096c7" id="svg_10" r="3.83" stroke="#0096c7" transform="matrix(2.39536 0 0 2.27333 -465.812 -316.119) matrix(0.975643 0 0 0.975643 5.46906 6.4767)"/>
   <circle cx="228.37" cy="245.42" fill="#0096c7" id="svg_7" r="3.83" stroke="#0096c7" transform="matrix(2.39536 0 0 2.27333 -465.812 -316.119) matrix(0.975643 0 0 0.975643 5.46906 6.4767)"/>
   <circle cx="232.84" cy="273.58" fill="#0096c7" id="svg_8" r="5.67" stroke="#0096c7" transform="matrix(2.39536 0 0 2.27333 -465.812 -316.119) matrix(0.975643 0 0 0.975643 5.46906 6.4767)"/>
   <circle cx="246.79" cy="302.79" fill="#0096c7" id="svg_11" r="3.83" stroke="#0096c7" transform="matrix(2.39536 0 0 2.27333 -465.812 -316.119) matrix(0.975643 0 0 0.975643 5.46906 6.4767)"/>
   <circle cx="265.47" cy="323.58" fill="#0096c7" id="svg_9" r="5.67" stroke="#0096c7" transform="matrix(2.39536 0 0 2.27333 -465.812 -316.119) matrix(0.975643 0 0 0.975643 5.46906 6.4767)"/>
   <circle cx="284.42" cy="288.84" fill="#0096c7" id="svg_61" r="5.67" stroke="#0096c7" transform="matrix(2.39536 0 0 2.27333 -465.812 -316.119) matrix(0.975643 0 0 0.975643 5.46906 6.4767)"/>
   <circle cx="269.16" cy="250.42" fill="#0096c7" id="svg_47" r="5.67" stroke="#0096c7" transform="matrix(2.39536 0 0 2.27333 -465.812 -316.119) matrix(0.975643 0 0 0.975643 5.46906 6.4767)"/>
   <circle cx="263.63" cy="221.21" fill="#0096c7" id="svg_20" r="3.83" stroke="#0096c7" transform="matrix(2.39536 0 0 2.27333 -465.812 -316.119) matrix(0.975643 0 0 0.975643 5.46906 6.4767)"/>
   <circle cx="299.68" cy="215.68" fill="#0096c7" id="svg_21" r="5.67" stroke="#0096c7" transform="matrix(2.39536 0 0 2.27333 -465.812 -316.119) matrix(0.975643 0 0 0.975643 5.46906 6.4767)"/>
   <circle cx="348.37" cy="209.63" fill="#0096c7" id="svg_54" r="3.83" stroke="#0096c7" transform="matrix(2.39536 0 0 2.27333 -465.812 -316.119) matrix(0.975643 0 0 0.975643 5.46906 6.4767)"/>
   <circle cx="307.32" cy="245.42" fill="#0096c7" id="svg_62" r="3.83" stroke="#0096c7" transform="matrix(2.39536 0 0 2.27333 -465.812 -316.119) matrix(0.975643 0 0 0.975643 5.46906 6.4767)"/>
   <circle cx="311.5" cy="283.13" fill="#0096c7" id="svg_179" r="1.72" stroke="#0096c7" transform="matrix(2.39536 0 0 2.27333 -465.812 -316.119) matrix(0.975643 0 0 0.975643 5.46906 6.4767)"/>
   <circle cx="314.68" cy="315.95" fill="#0096c7" id="svg_63" r="3.83" stroke="#0096c7" transform="matrix(2.39536 0 0 2.27333 -465.812 -316.119) matrix(0.975643 0 0 0.975643 5.46906 6.4767)"/>
   <circle cx="289.42" cy="336.47" fill="#0096c7" id="svg_14" r="3.83" stroke="#0096c7" transform="matrix(2.39536 0 0 2.27333 -465.812 -316.119) matrix(0.975643 0 0 0.975643 5.46906 6.4767)"/>
   <circle cx="322.32" cy="343.58" fill="#0096c7" id="svg_16" r="5.67" stroke="#0096c7" transform="matrix(2.39536 0 0 2.27333 -465.812 -316.119) matrix(0.975643 0 0 0.975643 5.46906 6.4767)"/>
   <circle cx="352.58" cy="341.21" fill="#0096c7" id="svg_18" r="3.83" stroke="#0096c7" transform="matrix(2.39536 0 0 2.27333 -465.812 -316.119) matrix(0.975643 0 0 0.975643 5.46906 6.4767)"/>
   <circle cx="386.63" cy="328.42" fill="#0096c7" id="svg_95" r="3.83" stroke="#0096c7" transform="matrix(2.39536 0 0 2.27333 -465.812 -316.119) matrix(0.975643 0 0 0.975643 5.46906 6.4767)"/>
   <circle cx="340.74" cy="288.84" fill="#0096c7" id="svg_57" r="5.67" stroke="#0096c7" transform="matrix(2.39536 0 0 2.27333 -465.812 -316.119) matrix(0.975643 0 0 0.975643 5.46906 6.4767)"/>
   <circle cx="377.75" cy="298.88" fill="#0096c7" id="svg_146" r="3.83" stroke="#0096c7" transform="matrix(2.39536 0 0 2.27333 -465.812 -316.119) matrix(0.975643 0 0 0.975643 5.46906 6.4767)"/>
   <circle cx="408" cy="277.38" fill="#0096c7" id="svg_147" r="3.83" stroke="#0096c7" transform="matrix(2.39536 0 0 2.27333 -465.812 -316.119) matrix(0.975643 0 0 0.975643 5.46906 6.4767)"/>
   <circle cx="340.21" cy="242.53" fill="#0096c7" id="svg_55" r="5.67" stroke="#0096c7" transform="matrix(2.39536 0 0 2.27333 -465.812 -316.119) matrix(0.975643 0 0 0.975643 5.46906 6.4767)"/>
   <circle cx="383.63" cy="243.84" fill="#0096c7" id="svg_94" r="3.83" stroke="#0096c7" transform="matrix(2.39536 0 0 2.27333 -465.812 -316.119) matrix(0.975643 0 0 0.975643 5.46906 6.4767)"/>
   <circle cx="410.5" cy="225.12" fill="#0096c7" id="svg_145" r="5.67" stroke="#0096c7" transform="matrix(2.39536 0 0 2.27333 -465.812 -316.119) matrix(0.975643 0 0 0.975643 5.46906 6.4767)"/>
   <circle cx="379.16" cy="196.74" fill="#0096c7" id="svg_56" r="5.67" stroke="#0096c7" transform="matrix(2.39536 0 0 2.27333 -465.812 -316.119) matrix(0.975643 0 0 0.975643 5.46906 6.4767)"/>
   <circle cx="387" cy="164.62" fill="#0096c7" id="svg_126" r="1.72" stroke="#0096c7" transform="matrix(2.39536 0 0 2.27333 -465.812 -316.119) matrix(0.975643 0 0 0.975643 5.46906 6.4767)"/>
   <circle cx="410" cy="186.87" fill="#0096c7" id="svg_128" r="1.72" stroke="#0096c7" transform="matrix(2.39536 0 0 2.27333 -465.812 -316.119) matrix(0.975643 0 0 0.975643 5.46906 6.4767)"/>
   <circle cx="419.25" cy="201.87" fill="#0096c7" id="svg_127" r="1.72" stroke="#0096c7" transform="matrix(2.39536 0 0 2.27333 -465.812 -316.119) matrix(0.975643 0 0 0.975643 5.46906 6.4767)"/>
   <circle cx="428" cy="232.12" fill="#0096c7" id="svg_131" r="1.72" stroke="#0096c7" transform="matrix(2.39536 0 0 2.27333 -465.812 -316.119) matrix(0.975643 0 0 0.975643 5.46906 6.4767)"/>
   <circle cx="425.25" cy="274.12" fill="#0096c7" id="svg_120" r="1.72" stroke="#0096c7" transform="matrix(2.39536 0 0 2.27333 -465.812 -316.119) matrix(0.975643 0 0 0.975643 5.46906 6.4767)"/>
   <circle cx="249.25" cy="237.87" fill="#0096c7" id="svg_195" r="1.72" stroke="#0096c7" transform="matrix(2.39536 0 0 2.27333 -465.812 -316.119) matrix(0.975643 0 0 0.975643 5.46906 6.4767)"/>
  </g>
 </g>
</svg>